<svg width="19" height="17" viewBox="0 0 19 17" fill="none" xmlns="http://www.w3.org/2000/svg">
<path d="M1 6.36349C1 5.05842 2.05796 4.00046 3.36303 4.00046C4.04114 4.00046 4.64316 3.56652 4.85756 2.92321L5.04273 2.36763C5.31493 1.5509 6.07923 1 6.94012 1H12.0569C12.9178 1 13.6821 1.5509 13.9543 2.36763L14.1395 2.92321C14.3539 3.56652 14.9559 4.00046 15.634 4.00046C16.9391 4.00046 17.9971 5.05842 17.9971 6.36349V13.0005C17.9971 14.6573 16.6539 16.0005 14.9971 16.0005H4C2.34315 16.0005 1 14.6573 1 13.0005V6.36349Z" stroke="black" stroke-width="1.5" stroke-linecap="round"/>
<path d="M12.9985 9.58704C12.9985 11.52 11.4315 13.087 9.49854 13.087C7.56554 13.087 5.99854 11.52 5.99854 9.58704C5.99854 7.65404 7.56554 6.08704 9.49854 6.08704C11.4315 6.08704 12.9985 7.65404 12.9985 9.58704Z" stroke="black" stroke-width="1.5" stroke-linecap="round"/>
</svg>
