<svg width="24" height="24" viewBox="0 0 24 24" fill="none" xmlns="http://www.w3.org/2000/svg">
<path fill-rule="evenodd" clip-rule="evenodd" d="M19.643 6.04626C17.8339 4.23716 14.9008 4.23716 13.0917 6.04626L12.0867 7.05124C12.0387 7.09923 11.9609 7.09923 11.9129 7.05124L10.9079 6.04626C9.09884 4.23716 6.16572 4.23717 4.35662 6.04626C2.54753 7.85535 2.50005 12 4.35657 14.5C6.09171 16.8365 10.8804 19.4406 11.4991 19.7711C11.5437 19.7949 11.5825 19.8256 11.6224 19.8567C11.8352 20.0228 12.1322 20.0291 12.3515 19.8758C12.41 19.8349 12.4663 19.7943 12.5325 19.7678C13.2284 19.4899 17.4508 17.7051 19.643 14.5C22.0369 11 21.4521 7.85535 19.643 6.04626Z" stroke="white" stroke-width="1.5" stroke-linecap="round"/>
</svg>
