<svg width="345" height="220" viewBox="0 0 345 220" fill="none" xmlns="http://www.w3.org/2000/svg">
<path d="M314.778 161.084C314.778 161.084 292.166 163.263 264.921 140.972C264.921 140.972 260.95 156.045 258.293 159.882C256.328 163.516 253.343 166.615 249.639 168.867C233.458 178.363 209.957 166.213 202.558 162.689C199.14 161.066 198.626 160.967 185.971 154.789C182.435 153.059 163.626 143.258 163.626 143.258C158.963 141.393 150.982 141.707 150.982 141.707L145.124 150.476C142.86 153.864 139.809 156.762 136.183 158.968C140.105 158.672 143.997 158.448 147.899 158.224C151.792 157.972 155.684 157.757 159.556 157.434C161.502 157.3 163.438 157.121 165.365 156.914C167.291 156.735 169.208 156.475 171.124 156.197C173.03 155.924 174.917 155.549 176.775 155.076C178.656 154.659 180.417 153.883 181.941 152.799C180.648 154.189 178.985 155.257 177.11 155.901C175.272 156.602 173.372 157.16 171.43 157.569C167.584 158.39 163.674 158.941 159.734 159.219C155.802 159.515 151.871 159.658 147.939 159.613C144.01 159.605 140.085 159.389 136.183 158.968H136.174C132.673 161.103 128.714 162.539 124.556 163.182L80.2213 170.095C80.2213 170.095 90.7124 182.335 79.8756 207.944C79.8756 207.944 101.855 205.926 115.606 209.683C129.347 213.431 150.438 213.431 172.764 206.114C195.089 198.797 206.865 200.672 221.752 203.299C236.639 205.926 290.793 229.759 309.809 185.85C309.809 185.85 316.221 171.593 314.778 161.084ZM88.2329 181.967C87.849 181.955 87.4854 181.808 87.2187 181.557C86.952 181.306 86.8029 180.971 86.8029 180.622C86.8029 180.274 86.952 179.939 87.2187 179.688C87.4854 179.437 87.849 179.29 88.2329 179.277C88.6168 179.29 88.9803 179.437 89.2471 179.688C89.5138 179.939 89.6628 180.274 89.6628 180.622C89.6628 180.971 89.5138 181.306 89.2471 181.557C88.9803 181.808 88.6168 181.955 88.2329 181.967ZM87.2846 171.96C87.6692 171.972 88.0337 172.119 88.3012 172.37C88.5687 172.621 88.7183 172.956 88.7183 173.305C88.7183 173.655 88.5687 173.99 88.3012 174.241C88.0337 174.492 87.6692 174.639 87.2846 174.65C86.9001 174.639 86.5355 174.492 86.268 174.241C86.0005 173.99 85.8509 173.655 85.8509 173.305C85.8509 172.956 86.0004 172.621 86.268 172.37C86.5355 172.119 86.9001 171.972 87.2846 171.96H87.2846ZM84.4396 206.5C84.0557 206.487 83.6922 206.34 83.4255 206.089C83.1588 205.839 83.0097 205.504 83.0097 205.155C83.0097 204.806 83.1588 204.471 83.4255 204.22C83.6922 203.97 84.0557 203.822 84.4396 203.81C84.8234 203.822 85.187 203.97 85.4537 204.22C85.7204 204.471 85.8694 204.806 85.8694 205.155C85.8694 205.504 85.7203 205.839 85.4536 206.089C85.1869 206.34 84.8234 206.487 84.4395 206.5H84.4396ZM86.8104 199.183C86.4265 199.171 86.063 199.024 85.7963 198.773C85.5296 198.522 85.3806 198.187 85.3806 197.838C85.3806 197.49 85.5296 197.155 85.7963 196.904C86.063 196.653 86.4265 196.506 86.8104 196.493C87.1942 196.506 87.5578 196.653 87.8246 196.904C88.0913 197.154 88.2403 197.49 88.2403 197.838C88.2403 198.187 88.0913 198.522 87.8245 198.773C87.5578 199.024 87.1942 199.171 86.8104 199.183V199.183ZM88.47 190.145C88.0861 190.132 87.7225 189.985 87.4558 189.734C87.1891 189.483 87.04 189.148 87.04 188.8C87.04 188.451 87.1891 188.116 87.4558 187.865C87.7225 187.614 88.0861 187.467 88.47 187.455C88.8539 187.467 89.2175 187.614 89.4843 187.865C89.751 188.116 89.9001 188.451 89.9001 188.8C89.9001 189.148 89.751 189.484 89.4842 189.734C89.2175 189.985 88.8538 190.132 88.4699 190.145H88.47Z" fill="#020202"/>
<path d="M230.574 118.241C231.231 119.111 232.026 119.888 232.935 120.546C232.599 120.465 229.882 119.766 230.001 118.878V118.824C230.105 118.572 230.309 118.364 230.574 118.241V118.241Z" fill="#020202"/>
<path d="M314.028 120.779C313.339 110.765 311.241 100.872 307.784 91.3414C301.581 74.3856 295.624 67.8847 295.624 67.8847C295.624 67.8847 293.194 70.763 290.023 68.7186C286.852 66.6742 277.971 63.9125 277.971 63.9125C262.511 60.1823 256.89 66.1452 256.89 66.1452C254.098 69.6069 251.087 72.9182 247.871 76.0623C249.197 75.2072 250.625 74.4913 252.129 73.9282C254.186 73.1307 256.377 72.6518 258.609 72.5115C259.748 72.4517 260.892 72.5088 262.017 72.6819C263.152 72.8704 264.253 73.2024 265.287 73.6682C267.307 74.6018 268.934 76.1104 269.92 77.9632C268.47 76.6353 266.712 75.6172 264.774 74.9828C262.837 74.3484 260.768 74.1138 258.718 74.2958C256.655 74.4202 254.612 74.7387 252.622 75.2463C250.775 75.7036 248.918 76.2506 247.051 76.8603L247.041 76.8692C236.145 87.2436 228.153 90.2385 228.153 90.2385C224.676 103.348 226.563 111.256 228.924 115.695C228.924 115.363 228.953 115.031 228.973 114.699C229.134 113.195 229.411 111.703 229.803 110.234C230.585 107.319 231.555 104.448 232.707 101.635C233.863 98.8375 235.108 96.0668 236.491 93.3589C237.849 90.6349 239.369 87.9798 241.045 85.4055C239.118 91.1352 236.787 96.6855 234.564 102.254C233.428 105.033 232.322 107.813 231.295 110.611C230.791 112.009 230.297 113.417 229.931 114.843C229.75 115.479 229.621 116.126 229.546 116.78C229.858 117.284 230.201 117.772 230.573 118.241C231.657 117.743 232.82 117.404 234.021 117.237C242.428 115.677 291.238 124.643 268.31 129.414L267.045 133.879C298.894 143.832 316.221 130.875 316.221 130.875C314.966 129.378 314.334 125.002 314.028 120.779ZM234.337 114.18C233.953 114.167 233.59 114.02 233.323 113.769C233.056 113.518 232.907 113.183 232.907 112.835C232.907 112.486 233.056 112.151 233.323 111.9C233.59 111.649 233.953 111.502 234.337 111.49C234.721 111.502 235.085 111.649 235.351 111.9C235.618 112.151 235.767 112.486 235.767 112.835C235.767 113.183 235.618 113.518 235.351 113.769C235.085 114.02 234.721 114.167 234.337 114.18V114.18ZM242.339 114.664C241.955 114.651 241.591 114.504 241.325 114.253C241.058 114.002 240.909 113.667 240.909 113.319C240.909 112.97 241.058 112.635 241.325 112.384C241.591 112.133 241.955 111.986 242.339 111.974C242.723 111.986 243.086 112.133 243.353 112.384C243.619 112.635 243.769 112.97 243.769 113.319C243.769 113.667 243.619 114.002 243.353 114.253C243.086 114.504 242.723 114.651 242.339 114.664V114.664ZM250.696 115.955C250.312 115.943 249.949 115.795 249.682 115.545C249.415 115.294 249.266 114.959 249.266 114.61C249.266 114.261 249.415 113.926 249.682 113.675C249.949 113.424 250.312 113.277 250.696 113.265C251.08 113.277 251.443 113.425 251.71 113.675C251.977 113.926 252.126 114.261 252.126 114.61C252.126 114.959 251.977 115.294 251.71 115.544C251.443 115.795 251.08 115.942 250.696 115.955V115.955ZM259.409 117.408C259.025 117.395 258.662 117.248 258.395 116.997C258.128 116.746 257.979 116.411 257.979 116.063C257.979 115.714 258.128 115.379 258.395 115.128C258.662 114.877 259.025 114.73 259.409 114.718C259.793 114.73 260.156 114.877 260.423 115.128C260.69 115.379 260.839 115.714 260.839 116.063C260.839 116.411 260.69 116.746 260.423 116.997C260.156 117.248 259.793 117.395 259.409 117.408V117.408ZM278.346 102.783C278.218 104.666 278.119 106.558 277.912 108.432L277.536 111.247C277.418 112.18 277.279 113.113 277.082 114.045C276.716 115.892 276.38 117.757 275.916 119.586C275.432 121.425 274.948 123.254 274.375 125.056C274.513 123.173 274.741 121.308 274.958 119.452C275.195 117.587 275.323 115.722 275.551 113.866C275.926 110.145 276.222 106.432 276.37 102.72C276.524 99.0184 276.435 95.3117 276.104 91.6195C275.975 90.7049 275.916 89.7724 275.728 88.8667L275.491 87.4949C275.393 87.0466 275.274 86.5982 275.165 86.1499C274.785 84.3231 274.06 82.5697 273.022 80.9672C273.758 81.6446 274.368 82.4258 274.829 83.2806C275.086 83.6975 275.314 84.1288 275.511 84.5718C275.732 85.0042 275.926 85.4472 276.094 85.8988C276.786 87.6976 277.298 89.5492 277.625 91.4313C278.25 95.1869 278.491 98.9869 278.346 102.783V102.783Z" fill="#020202"/>
<path d="M228.153 90.2386C227.94 90.686 227.756 91.144 227.6 91.6104C227.639 91.2249 227.669 90.8393 227.689 90.4448C227.985 90.3192 228.153 90.2386 228.153 90.2386Z" fill="#020202"/>
<path d="M233.092 120.017L229.467 135.61L227.63 144.765L225.466 144.289C207.053 140.766 176.686 128.741 176.686 128.741L169.702 120.555C174.058 121.487 175.392 117.058 175.392 117.058C180.459 118.214 180.647 113.498 180.647 113.498C185.102 113.91 184.322 108.145 184.322 108.145C189.074 108.62 187.542 103.572 187.542 103.572C182.964 99.4807 180.33 93.9262 180.203 88.0955C179.927 88.0725 179.649 88.0725 179.373 88.0955C179.373 88.0955 193.42 66.2528 206.203 70.4582L218.996 74.6636C217.513 77.3848 216.713 80.3707 216.654 83.4061C217.82 93.2246 224.873 91.5029 227.323 90.5883C226.618 92.3678 226.064 94.1933 225.664 96.049C225.168 98.2604 224.854 100.502 224.725 102.756C224.696 103.886 224.696 105.016 224.755 106.154C224.837 107.297 225.009 108.432 225.269 109.553C225.521 110.692 225.939 111.796 226.513 112.835C226.958 113.643 227.572 114.364 228.321 114.96C228.412 115.036 228.508 115.108 228.607 115.175L228.617 115.184C229.546 115.964 233.092 120.017 233.092 120.017Z" fill="#020202"/>
<path d="M196.42 21.4436C196.57 23.1859 196.821 24.9199 197.172 26.6384C197.508 28.3344 197.992 30.0036 198.62 31.6301C198.927 32.4279 199.293 33.206 199.716 33.9591C200.229 34.8225 200.532 35.7762 200.603 36.7552C200.763 38.6419 200.448 40.537 199.681 42.2965L199.658 42.3392L199.63 42.3848C199.36 42.8295 199.169 43.3105 199.065 43.8097C199.012 43.9914 199 44.1809 199.028 44.367C199.057 44.5532 199.126 44.7323 199.232 44.8938C199.529 45.1782 199.921 45.3657 200.347 45.4273C200.634 45.4502 200.908 45.4988 201.205 45.5115L202.122 45.508L202.179 45.5078C202.357 45.5072 202.532 45.5514 202.683 45.6352C202.835 45.7191 202.958 45.8395 203.04 45.983C203.414 46.6476 203.858 47.3308 204.309 47.9734C204.742 48.6145 205.235 49.2202 205.783 49.7837C206.042 50.0476 206.328 50.288 206.637 50.5017C207.018 50.762 207.378 51.0456 207.716 51.3505C208.405 51.969 208.99 52.6758 209.453 53.4485L209.405 53.3768C209.976 54.116 210.64 54.7917 211.384 55.39C212.131 55.9956 212.979 56.4891 213.897 56.8521C214.824 57.2115 215.832 57.3626 216.838 57.2926C217.879 57.2088 218.892 56.9434 219.823 56.511C218.962 57.1113 217.969 57.5354 216.911 57.7543C215.813 57.9706 214.673 57.9299 213.597 57.6362C212.524 57.3361 211.516 56.871 210.616 56.2612C209.702 55.6612 208.886 54.9476 208.19 54.1413L208.142 54.0694C207.706 53.4641 207.179 52.917 206.577 52.4438C206.275 52.1978 205.958 51.9691 205.625 51.759C205.222 51.5025 204.845 51.2121 204.502 50.8916C203.853 50.2802 203.265 49.6184 202.743 48.9139C202.228 48.2248 201.755 47.5106 201.326 46.7747L202.243 47.2495L201.132 47.2678C200.755 47.2571 200.359 47.2014 199.974 47.1645C199.056 47.0311 198.223 46.5974 197.634 45.9451C197.376 45.589 197.199 45.1892 197.116 44.7696C197.033 44.3501 197.043 43.9196 197.148 43.504C197.3 42.7954 197.582 42.1151 197.983 41.4916L197.932 41.5796C198.596 40.0701 198.913 38.4536 198.865 36.829C198.835 36.0516 198.636 35.2874 198.278 34.5806C197.885 33.7456 197.554 32.8874 197.287 32.0119C196.779 30.2857 196.46 28.5179 196.336 26.7346C196.194 24.9721 196.222 23.2017 196.42 21.4436V21.4436Z" fill="#020202"/>
<path d="M196.763 21.7948C199.544 23.0905 202.416 24.377 205.287 25.5614C208.11 26.8009 211.065 27.7772 214.106 28.4753C214.462 28.5381 214.824 28.5705 215.186 28.5719C215.515 28.5635 215.82 28.4771 215.845 28.3978C215.851 28.349 215.858 28.4118 215.903 28.2888L216.017 28.0041C216.092 27.8117 216.188 27.6266 216.304 27.4513C216.529 27.0898 216.82 26.7648 217.163 26.4895C217.859 25.968 218.699 25.6298 219.591 25.5116C220.027 25.4466 220.469 25.4246 220.91 25.4462C221.395 25.5051 221.861 25.6526 222.281 25.8799C223.018 26.3255 223.642 26.9085 224.111 27.5901C224.581 28.2717 224.884 29.0363 225.003 29.8329C225.275 31.3198 225.306 32.8349 225.094 34.33L225.1 34.2144C225.155 35.1951 225.115 36.1784 224.98 37.1527C224.915 37.6806 224.773 38.1984 224.558 38.6923C224.498 38.8387 224.419 38.9778 224.321 39.1063C224.27 39.1769 224.227 39.2454 224.167 39.3154C224.091 39.3878 224.011 39.4587 223.929 39.5264C223.743 39.677 223.521 39.7848 223.279 39.8404C223.035 39.8828 222.783 39.8846 222.538 39.8456L223.399 39.4873C221.136 43.8464 220.227 48.6835 220.77 53.4769C220.924 54.6264 221.209 55.913 221.356 57.1436C221.522 58.3884 221.64 59.6422 221.678 60.9007C221.716 62.1614 221.684 63.4229 221.583 64.6806C221.479 65.949 221.285 67.1781 221.102 68.4066C220.761 70.8954 220.226 73.3591 219.501 75.7792C219.3 76.4172 219.033 77.0367 218.704 77.6294L218.171 78.4364C218.019 78.6776 217.886 78.9278 217.771 79.1851C217.313 80.2393 217.133 81.3758 217.244 82.5045C217.57 84.7748 218.35 87.2469 220.071 88.8829C220.921 89.706 222.057 90.2398 223.289 90.3952C224.565 90.5348 225.859 90.4248 227.085 90.0725C229.624 89.3126 232.015 88.1915 234.167 86.7511C236.364 85.3211 238.458 83.7634 240.434 82.0879C244.418 78.7428 248.165 75.1717 251.651 71.396C253.428 69.5151 255.103 67.6283 256.856 65.6887C257.823 64.7556 258.984 64.0038 260.27 63.476C260.902 63.2069 261.549 62.9694 262.209 62.7645C262.883 62.6139 263.548 62.4075 264.232 62.3046C264.919 62.2199 265.604 62.0903 266.295 62.0441L268.373 61.962C269.755 61.9852 271.133 62.0933 272.499 62.2855C273.179 62.3898 273.868 62.4621 274.541 62.5937L276.545 63.0446C277.879 63.3493 279.195 63.716 280.488 64.1433C281.811 64.4998 283.043 65.0523 284.321 65.5116C285.605 65.9622 286.823 66.5311 288.05 67.0863L289.893 67.9165L290.354 68.1241C290.493 68.1815 290.613 68.2409 290.748 68.2905C291.013 68.3896 291.289 68.4618 291.571 68.5057C292.126 68.6012 292.697 68.5798 293.241 68.4433C293.785 68.3069 294.288 68.0589 294.71 67.7186C295.122 67.3488 295.453 66.9112 295.685 66.429C295.821 66.1899 295.925 65.9372 295.995 65.6762L296.114 65.2905L296.163 64.892C296.252 63.7929 296.025 62.6915 295.503 61.6961C294.269 59.6158 292.608 57.7687 290.61 56.2542C286.494 53.1217 282.01 50.4113 277.238 48.1722C272.39 45.7729 267.866 42.8707 263.756 39.524C261.704 37.8484 259.767 36.0612 257.955 34.1722C256.129 32.2938 254.433 30.3152 252.876 28.2475C251.31 26.1858 249.879 24.0416 248.593 21.8261C247.965 20.7115 247.332 19.5991 246.781 18.451C246.495 17.8823 246.204 17.3109 245.94 16.7431L245.074 15.1168L244.219 13.485L243.184 11.9512C242.826 11.4486 242.52 10.9092 242.12 10.4351L240.903 9.02401L240.295 8.31686L239.602 7.68281L238.215 6.41379L236.677 5.30567C236.172 4.9274 235.63 4.59149 235.058 4.30209C230.572 1.75368 225.204 0.804192 219.992 1.63691L220.146 1.58244C217.614 2.79626 215.11 4.11137 212.659 5.47946C210.209 6.85414 207.805 8.29835 205.495 9.85397C203.156 11.3668 200.983 13.0815 199.008 14.9742C198.033 15.9179 197.227 16.9938 196.618 18.1633C196.305 18.7311 196.154 19.3613 196.179 19.9959C196.205 20.6305 196.405 21.2491 196.763 21.7948ZM196.631 21.9282C196.211 21.3613 195.958 20.7063 195.895 20.0255C195.833 19.3447 195.963 18.6606 196.274 18.0384C196.848 16.8064 197.632 15.6635 198.596 14.6514C200.516 12.6561 202.645 10.8343 204.953 9.2117C207.241 7.57833 209.623 6.0616 212.051 4.61323C214.486 3.16919 216.952 1.78945 219.499 0.486048L219.506 0.482542C219.552 0.459091 219.602 0.441884 219.654 0.431462C222.424 -0.100726 225.282 -0.14099 228.069 0.312876C230.854 0.746425 233.524 1.65564 235.936 2.9923C236.556 3.29639 237.146 3.64908 237.699 4.04636L239.375 5.2153L240.888 6.5495L241.642 7.21993L242.304 7.96049L243.628 9.44486C244.062 9.94425 244.396 10.5031 244.785 11.0301L245.908 12.6373L246.839 14.3331L247.76 16.0345C248.027 16.6023 248.309 17.1502 248.59 17.703C249.13 18.8168 249.749 19.8952 250.363 20.9761C251.622 23.1238 253.019 25.2019 254.548 27.1994C256.069 29.2024 257.723 31.1184 259.503 32.9364C261.27 34.7647 263.158 36.4937 265.156 38.1137C269.136 41.3801 273.506 44.2303 278.187 46.611C283.06 48.9531 287.633 51.7778 291.821 55.0333C293.99 56.7095 295.769 58.7604 297.055 61.0666C297.679 62.3198 297.931 63.6998 297.783 65.0687L297.704 65.5884C297.658 65.7577 297.598 65.9246 297.544 66.0924C297.443 66.4286 297.302 66.7539 297.124 67.0624C296.794 67.7069 296.331 68.2876 295.759 68.7728C295.155 69.2494 294.439 69.5937 293.665 69.7791C292.891 69.9645 292.081 69.9861 291.297 69.8421C290.91 69.7753 290.532 69.67 290.171 69.5282C289.992 69.4595 289.813 69.3701 289.646 69.2937L289.199 69.0798L287.412 68.2235C286.221 67.6502 285.036 67.0619 283.793 66.5939C282.556 66.1167 281.356 65.5426 280.077 65.168C278.826 64.7218 277.552 64.3345 276.258 64.0076L274.315 63.5269C273.664 63.3859 273 63.3043 272.343 63.1895C271.026 62.9771 269.696 62.8457 268.36 62.7963L266.362 62.8359C265.698 62.8668 265.043 62.9793 264.382 63.0461C261.747 63.3626 259.294 64.4386 257.384 66.1156C255.673 67.9794 253.917 69.9232 252.137 71.7762C248.596 75.5374 244.849 79.1351 240.91 82.5558C238.931 84.2699 236.832 85.8662 234.626 87.3348C232.438 88.8823 229.991 90.1031 227.378 90.9511C226.016 91.3765 224.568 91.5309 223.134 91.4039C221.644 91.2478 220.257 90.6375 219.199 89.6728C218.183 88.7295 217.397 87.6037 216.89 86.3677C216.363 85.1665 215.999 83.9117 215.806 82.631C215.637 81.2938 215.815 79.9394 216.324 78.6756C216.456 78.3576 216.61 78.0479 216.786 77.7484L217.28 76.9573C217.544 76.4388 217.762 75.9024 217.933 75.3529C218.611 73.0025 219.105 70.6118 219.414 68.1985C220.177 63.3687 220.065 58.4579 219.08 53.6611C218.778 51.1275 218.899 48.567 219.441 46.0664C219.962 43.5702 220.833 41.145 222.035 38.8502L222.896 38.4918C222.943 38.4603 222.892 38.5229 222.942 38.4697C222.955 38.4569 222.97 38.4467 222.987 38.44L223.044 38.3544C223.097 38.2914 223.137 38.2208 223.164 38.1457C223.33 37.7654 223.44 37.367 223.493 36.9608C223.621 36.071 223.67 35.1734 223.641 34.2764L223.641 34.2495C223.64 34.2197 223.642 34.19 223.646 34.1605C223.878 32.8013 223.891 31.4189 223.685 30.0564C223.618 29.4199 223.402 28.8037 223.053 28.2482C222.704 27.6928 222.23 27.2107 221.661 26.8338C221.401 26.687 221.116 26.5819 220.817 26.5232C220.466 26.4993 220.113 26.5093 219.764 26.553C219.076 26.6254 218.423 26.8667 217.875 27.251C217.618 27.4478 217.399 27.6817 217.226 27.9433C217.134 28.0744 217.057 28.2141 216.997 28.36L216.9 28.5799C216.841 28.709 216.77 28.8333 216.688 28.9513C216.502 29.1385 216.271 29.2844 216.013 29.3776C215.755 29.4708 215.477 29.5088 215.2 29.4888C214.77 29.4795 214.341 29.4327 213.921 29.3491C212.349 29.0043 210.817 28.5243 209.345 27.9156C207.878 27.3415 206.44 26.7218 205.017 26.076C202.165 24.7798 199.403 23.4153 196.631 21.9282V21.9282Z" fill="#020202"/>
<path d="M206.042 51.0696C206.64 52.7233 206.908 54.4608 206.832 56.2C206.82 58.0212 206.309 59.8109 205.345 61.4082C204.812 62.038 204.34 62.7084 203.934 63.4118C203.617 64.1032 203.429 64.8376 203.376 65.585C203.301 67.2276 203.503 68.8711 203.974 70.4584C202.749 69.0644 202.005 67.3732 201.835 65.5967C201.74 64.6536 201.86 63.7029 202.187 62.8038C202.564 61.977 203.057 61.1976 203.652 60.4847C204.471 59.1002 205.03 57.6015 205.305 56.0502C205.639 54.4437 205.84 52.7835 206.042 51.0696Z" fill="#020202"/>
<path d="M163.176 113.484C162.809 112.963 162.497 112.411 162.243 111.837C161.98 111.256 161.795 110.648 161.693 110.027C161.551 109.335 161.689 108.621 162.081 108.014C162.56 107.41 163.283 107.001 164.091 106.876L163.95 106.911C164.263 106.774 164.523 106.555 164.699 106.283C164.752 106.186 164.773 106.076 164.758 105.969C164.748 105.91 164.73 105.853 164.705 105.799L164.58 105.519C164.352 105 164.268 104.438 164.337 103.883C164.405 103.327 164.624 102.796 164.973 102.336C165.333 101.88 165.807 101.507 166.357 101.251C166.833 101.047 167.329 100.884 167.839 100.764C168.101 100.706 168.331 100.564 168.487 100.365C168.515 100.302 168.523 100.233 168.509 100.166C168.491 100.067 168.454 99.9715 168.4 99.8837C168.345 99.8146 168.307 99.7358 168.287 99.6524L168.282 99.6325C168.071 98.7658 168.082 97.8665 168.315 97.0043C168.45 96.5388 168.683 96.1015 169.002 95.7166C169.342 95.328 169.776 95.0164 170.271 94.8063C170.695 94.6344 171.141 94.5093 171.597 94.4336C171.926 94.3709 172.241 94.2614 172.532 94.1093C172.768 93.9955 172.958 93.8159 173.074 93.597C173.168 93.384 173.183 93.1489 173.116 92.9275L173.071 92.7781C173.059 92.7351 173.056 92.6902 173.063 92.6461C173.195 91.8743 173.46 91.1261 173.848 90.4293C174.227 89.7258 174.773 89.107 175.446 88.6171C176.118 88.1243 176.93 87.8143 177.788 87.7231C178.203 87.6726 178.622 87.6565 179.04 87.675C179.453 87.6977 179.857 87.7748 180.264 87.8236C180.335 87.832 180.4 87.8645 180.445 87.9144C180.491 87.9644 180.513 88.0281 180.509 88.0928L180.507 88.1203C180.435 89.5412 180.58 90.9644 180.94 92.3487C181.28 93.739 181.802 95.0873 182.495 96.3649C183.166 97.6398 183.992 98.8423 184.959 99.9496C185.912 101.053 186.966 102.082 188.11 103.024C188.211 103.11 188.287 103.217 188.331 103.337C188.575 103.986 188.727 104.661 188.785 105.345C188.866 106.107 188.719 106.874 188.361 107.567C188.237 107.756 188.102 107.937 187.955 108.111C187.778 108.267 187.592 108.422 187.4 108.562C187.191 108.667 186.975 108.767 186.757 108.86C186.544 108.927 186.327 108.98 186.106 109.017C185.694 109.084 185.275 109.109 184.857 109.092C184.472 109.055 184.095 109.003 183.713 108.954L184.894 107.921C185.029 108.621 185.089 109.331 185.074 110.041C185.07 110.794 184.924 111.54 184.643 112.249C184.31 113.098 183.621 113.794 182.726 114.183C181.854 114.493 180.899 114.557 179.986 114.367L181.26 113.443C181.222 114.144 181.06 114.836 180.779 115.491C180.49 116.206 179.992 116.837 179.339 117.315C178.645 117.805 177.782 118.055 176.904 118.022C176.51 118.012 176.117 117.968 175.732 117.891C175.372 117.8 175.024 117.692 174.673 117.589L175.902 116.902C175.766 117.649 175.508 118.374 175.134 119.051C174.752 119.794 174.135 120.418 173.362 120.842C172.953 121.046 172.504 121.173 172.04 121.215C171.576 121.256 171.108 121.213 170.663 121.086C170.264 120.974 169.875 120.833 169.501 120.665L168.492 120.091C168.375 120.024 168.287 119.922 168.244 119.802C168.012 119.207 167.715 118.634 167.357 118.092C166.997 117.528 166.579 116.991 166.153 116.455C165.715 115.923 165.247 115.411 164.75 114.923C164.258 114.439 163.72 113.956 163.176 113.484ZM163.327 113.369C163.946 113.742 164.542 114.147 165.11 114.581C165.689 115.022 166.242 115.49 166.767 115.982C167.295 116.483 167.783 117.016 168.227 117.58C168.695 118.159 169.096 118.78 169.421 119.435L169.173 119.146L170.083 119.562C170.381 119.663 170.686 119.744 170.997 119.805C171.259 119.869 171.532 119.883 171.801 119.848C172.069 119.812 172.327 119.727 172.558 119.599C173.023 119.292 173.381 118.869 173.586 118.381C173.837 117.847 174.001 117.283 174.073 116.706C174.087 116.589 174.129 116.476 174.195 116.375C174.261 116.274 174.35 116.187 174.456 116.119C174.562 116.052 174.683 116.006 174.81 115.984C174.937 115.962 175.068 115.966 175.194 115.994L175.302 116.018L176.121 116.206C176.375 116.241 176.633 116.256 176.89 116.25C177.326 116.26 177.753 116.128 178.091 115.878C178.442 115.594 178.703 115.23 178.846 114.825C179.022 114.369 179.123 113.892 179.144 113.41C179.148 113.283 179.18 113.158 179.237 113.042C179.294 112.926 179.376 112.821 179.478 112.734C179.58 112.647 179.699 112.579 179.83 112.533C179.961 112.488 180.101 112.467 180.241 112.47L180.337 112.477L180.418 112.486C180.897 112.592 181.399 112.574 181.867 112.435C182.062 112.344 182.234 112.219 182.375 112.067C182.516 111.915 182.622 111.74 182.688 111.55C182.894 111.044 183.011 110.512 183.034 109.974C183.066 109.394 183.038 108.812 182.952 108.237C182.931 108.094 182.946 107.948 182.998 107.812C183.05 107.676 183.136 107.553 183.25 107.452C183.364 107.351 183.502 107.276 183.653 107.233C183.805 107.189 183.965 107.179 184.122 107.202L184.133 107.204L184.994 107.335C185.25 107.351 185.508 107.343 185.762 107.313C185.962 107.308 186.156 107.256 186.327 107.162C186.498 107.069 186.638 106.936 186.736 106.778C187.1 105.819 187.105 104.777 186.751 103.815L186.971 104.127C185.803 103.074 184.758 101.913 183.853 100.665C182.954 99.4231 182.201 98.0995 181.606 96.7153C181.014 95.3426 180.571 93.9207 180.284 92.4697C179.975 91.0213 179.845 89.5462 179.897 88.0717L180.14 88.3682C179.402 88.2301 178.643 88.2176 177.9 88.3314C177.179 88.4355 176.51 88.7344 175.98 89.1891C175.458 89.6475 175.055 90.2047 174.798 90.821C174.532 91.4349 174.371 92.0817 174.318 92.7395L174.265 92.4585C174.505 92.9443 174.542 93.4926 174.369 94.0013C174.19 94.492 173.841 94.9171 173.374 95.2137C172.633 95.6094 171.843 95.926 171.022 96.1571C170.764 96.2871 170.541 96.466 170.368 96.6817C170.194 96.8974 170.074 97.1447 170.015 97.4066C169.872 98.0181 169.868 98.6497 170.003 99.2627L169.886 99.0118C170.083 99.3062 170.207 99.6361 170.249 99.9785C170.298 100.354 170.224 100.733 170.038 101.071C169.678 101.636 169.088 102.05 168.396 102.224C167.957 102.317 167.527 102.442 167.111 102.597C166.778 102.73 166.485 102.933 166.257 103.191C166.04 103.458 165.897 103.769 165.841 104.098C165.784 104.426 165.815 104.762 165.931 105.077L166.051 105.423C166.102 105.58 166.13 105.741 166.137 105.904C166.146 106.241 166.05 106.575 165.86 106.865C165.517 107.353 165.01 107.728 164.414 107.933C164.373 107.949 164.329 107.96 164.285 107.967L164.272 107.968C163.757 107.996 163.273 108.201 162.919 108.542C162.598 108.963 162.441 109.47 162.474 109.982C162.486 110.559 162.573 111.133 162.735 111.691C162.897 112.26 163.095 112.82 163.327 113.369V113.369Z" fill="#020202"/>
<path d="M171.727 100.48C172.34 101.663 172.867 102.881 173.305 104.127C173.535 104.748 173.721 105.38 173.9 106.021C173.993 106.326 174.043 106.716 174.142 106.92C174.253 107.19 174.402 107.446 174.584 107.682C175.384 108.719 176.277 109.694 177.254 110.597L180.202 113.426C178.97 112.742 177.805 111.964 176.719 111.1C175.59 110.245 174.592 109.257 173.751 108.163C173.531 107.862 173.355 107.536 173.226 107.194C173.122 106.867 173.043 106.534 172.988 106.197C172.867 105.569 172.703 104.941 172.563 104.307C172.258 103.045 171.974 101.77 171.727 100.48Z" fill="#020202"/>
<path d="M167.256 106.022C167.816 107.019 168.256 108.068 168.568 109.151C168.65 109.421 168.727 109.693 168.79 109.968C168.859 110.195 168.962 110.413 169.096 110.616C169.382 111.068 169.717 111.493 170.095 111.886C170.841 112.716 171.677 113.503 172.501 114.304C173.332 115.101 174.174 115.896 174.987 116.737C173.922 116.179 172.914 115.536 171.974 114.815C171.016 114.102 170.132 113.312 169.331 112.454C168.919 112.007 168.561 111.52 168.266 111.002C168.112 110.717 168.002 110.415 167.939 110.103L167.816 109.293L167.256 106.022Z" fill="#020202"/>
<path d="M176.688 96.9147C177.876 98.8415 178.899 100.794 180.03 102.692C180.578 103.648 181.163 104.581 181.786 105.491C182.397 106.419 183.114 107.286 183.923 108.079C182.841 107.539 181.899 106.796 181.159 105.899C180.395 105.031 179.725 104.098 179.159 103.113C178.59 102.139 178.094 101.13 177.676 100.094C177.244 99.0628 176.914 97.9988 176.688 96.9147V96.9147Z" fill="#020202"/>
<path d="M270.013 123.39C269.293 126.664 268.461 129.914 267.597 133.158C266.732 136.401 265.839 139.64 264.868 142.859C263.903 146.079 262.905 149.292 261.876 152.497C261.333 154.103 260.882 155.687 260.257 157.309C259.659 158.935 258.862 160.495 257.879 161.959C255.931 164.939 253.203 167.437 249.939 169.233C246.676 170.99 243.066 172.15 239.313 172.648C235.601 173.163 231.829 173.219 228.1 172.814C227.17 172.721 226.244 172.603 225.32 172.455C224.378 172.28 223.447 172.061 222.53 171.8L219.907 170.904L217.351 169.918C203.91 164.361 191.137 157.76 178.267 151.31C175.058 149.682 171.882 148.004 168.711 146.311C167.922 145.879 167.123 145.47 166.346 145.011C165.593 144.553 164.814 144.131 164.014 143.745C162.373 143.061 160.628 142.602 158.838 142.385C155.203 142.019 151.54 141.93 147.887 142.118C147.423 142.118 146.957 142.116 146.482 142.087C145.972 142.077 145.467 141.992 144.987 141.838C144.83 141.782 144.686 141.701 144.561 141.598L144.298 141.376L143.799 140.948L142.799 140.092L138.802 136.669L138.768 136.637C138.466 136.328 138.193 135.996 137.952 135.644C137.708 135.28 137.513 134.891 137.373 134.485C137.234 134.065 137.167 133.628 137.175 133.189C137.18 132.722 137.295 132.26 137.512 131.836L137.601 132.466C137.162 132.022 136.812 131.512 136.566 130.96C136.326 130.443 136.136 129.909 135.997 129.363C135.719 128.293 135.55 127.203 135.494 126.105L135.608 126.433C135.046 125.636 134.702 124.728 134.605 123.786C134.552 123.336 134.535 122.882 134.555 122.429C134.571 121.971 134.628 121.515 134.724 121.065L135.43 121.887C133.91 121.832 132.417 121.505 131.037 120.922C130.36 120.644 129.703 120.323 129.074 119.964C128.435 119.602 127.827 119.197 127.254 118.754C127.227 118.733 127.202 118.709 127.18 118.684L127.169 118.672C126.591 118.07 126.161 117.363 125.907 116.598C125.767 116.135 125.767 115.646 125.907 115.183C126.066 114.703 126.379 114.278 126.807 113.963C127.212 113.677 127.685 113.481 128.189 113.392C128.692 113.303 129.212 113.324 129.705 113.452L131.913 113.941L140.739 115.922L139.631 116.994C139.242 115.889 139.076 114.729 139.141 113.57C139.191 112.974 139.313 112.385 139.506 111.814C139.704 111.157 140.094 110.561 140.634 110.088C141.265 109.584 142.091 109.328 142.931 109.376C143.626 109.425 144.306 109.584 144.94 109.847C146.06 110.321 147.118 110.906 148.096 111.591C149.054 112.238 149.961 112.93 150.844 113.588L151.493 114.056C151.679 114.177 151.875 114.284 152.079 114.376C152.538 114.575 153.019 114.73 153.513 114.838C155.681 115.27 157.9 115.453 160.118 115.383L160.163 115.383C160.225 115.383 160.288 115.388 160.349 115.4C162.698 115.917 164.903 116.872 166.823 118.205C168.684 119.465 170.42 120.87 172.011 122.405C173.592 123.919 175.077 125.513 176.459 127.179C177.032 127.893 177.791 128.468 178.668 128.852L181.725 130.117C185.833 131.792 189.969 133.405 194.13 134.955C198.217 136.563 202.452 137.837 206.788 138.762L206.842 138.772L206.886 138.781C213.763 140.574 220.634 142.391 227.496 144.233L226.742 144.648L230.056 131.367L233.438 118.099C233.444 118.076 233.459 118.056 233.481 118.043C233.503 118.031 233.53 118.026 233.555 118.031C233.58 118.036 233.602 118.05 233.617 118.069C233.631 118.089 233.636 118.113 233.632 118.136L230.812 131.512L227.924 144.874C227.894 145.015 227.803 145.139 227.672 145.219C227.541 145.299 227.38 145.328 227.225 145.301L227.189 145.293L227.17 145.289C220.251 143.632 213.34 141.947 206.438 140.234L206.535 140.253C204.265 139.873 202.03 139.337 199.849 138.65C197.688 137.994 195.557 137.281 193.439 136.544C189.205 135.066 185.039 133.453 180.906 131.776L177.795 130.5C176.627 129.992 175.613 129.232 174.842 128.288C173.501 126.683 172.061 125.148 170.53 123.691C169.019 122.244 167.372 120.918 165.608 119.73C163.929 118.567 162.004 117.729 159.953 117.269L160.183 117.286C157.764 117.352 155.346 117.131 152.99 116.629C152.36 116.484 151.748 116.278 151.165 116.016C150.852 115.871 150.554 115.703 150.272 115.514C150.019 115.338 149.794 115.167 149.565 114.996C148.665 114.311 147.804 113.643 146.909 113.027C146.058 112.418 145.136 111.895 144.161 111.466C143.742 111.285 143.292 111.17 142.83 111.127C142.667 111.111 142.502 111.125 142.346 111.169C142.189 111.212 142.043 111.283 141.917 111.379C141.353 112.037 141.038 112.844 141.021 113.678C140.961 114.624 141.087 115.574 141.395 116.48L141.398 116.491C141.447 116.634 141.453 116.786 141.416 116.931C141.378 117.076 141.299 117.21 141.185 117.318C141.072 117.426 140.929 117.505 140.771 117.546C140.613 117.587 140.445 117.589 140.286 117.552L131.482 115.493L129.282 114.972C129.048 114.898 128.798 114.877 128.552 114.909C128.307 114.941 128.074 115.026 127.872 115.156C127.695 115.28 127.565 115.451 127.501 115.645C127.437 115.839 127.441 116.047 127.514 116.238C127.702 116.794 128.014 117.308 128.43 117.75L128.345 117.668C128.844 118.063 129.374 118.425 129.929 118.752C130.491 119.085 131.077 119.382 131.684 119.642C132.867 120.164 134.153 120.47 135.467 120.54L135.472 120.54C135.671 120.548 135.858 120.628 135.992 120.761C136.126 120.895 136.197 121.071 136.188 121.252C136.186 121.289 136.18 121.325 136.172 121.362C136.089 121.736 136.034 122.115 136.008 122.496C135.981 122.882 135.985 123.27 136.02 123.656C136.073 124.395 136.318 125.113 136.735 125.75L136.743 125.761C136.808 125.856 136.845 125.966 136.849 126.078C136.876 127.095 137.005 128.108 137.235 129.104C137.407 130.055 137.828 130.954 138.463 131.726L138.467 131.73C138.548 131.815 138.599 131.92 138.614 132.031C138.63 132.143 138.608 132.255 138.552 132.355C138.418 132.631 138.343 132.926 138.331 133.227C138.317 133.555 138.358 133.884 138.454 134.2C138.559 134.528 138.707 134.843 138.895 135.138C139.092 135.441 139.318 135.729 139.569 135.998L139.536 135.966L143.475 139.484L144.459 140.363L144.951 140.803C145.029 140.871 145.124 140.961 145.188 141.011C145.235 141.047 145.289 141.075 145.346 141.095C146.176 141.298 147.035 141.386 147.893 141.359C151.583 141.248 155.276 141.384 158.943 141.766C160.799 142.005 162.604 142.495 164.3 143.218C165.119 143.619 165.914 144.057 166.684 144.532C167.443 144.988 168.24 145.405 169.021 145.839C172.172 147.543 175.385 149.157 178.602 150.763C185.029 153.986 191.531 157.082 198.108 160.049C204.674 163.02 211.274 165.965 217.999 168.551L220.521 169.503L223.063 170.351L224.321 170.662C224.742 170.78 225.173 170.87 225.609 170.93C226.495 171.065 227.389 171.172 228.286 171.255C231.867 171.599 235.481 171.545 239.048 171.095C242.591 170.659 246.006 169.598 249.1 167.971C252.167 166.322 254.739 164.012 256.586 161.244C258.525 158.515 259.484 155.333 260.632 152.152C261.743 148.978 262.823 145.795 263.873 142.602C265.964 136.216 267.993 129.809 269.82 123.352C269.823 123.34 269.829 123.329 269.837 123.32C269.844 123.31 269.854 123.302 269.865 123.296C269.876 123.29 269.889 123.286 269.901 123.284C269.914 123.282 269.927 123.283 269.94 123.286C269.964 123.292 269.986 123.306 269.999 123.325C270.013 123.344 270.018 123.368 270.013 123.39V123.39Z" fill="#020202"/>
<path d="M232.99 146.301L227.191 145.19C227.063 145.166 226.95 145.096 226.878 144.996C226.807 144.896 226.782 144.774 226.809 144.657C226.836 144.541 226.913 144.438 227.023 144.373C227.133 144.308 227.268 144.285 227.396 144.31C227.423 144.315 227.45 144.323 227.475 144.332L232.99 146.301Z" fill="#020202"/>
<path d="M140.513 116.737C142.31 116.785 144.098 116.983 145.856 117.327C146.728 117.495 147.598 117.668 148.46 117.876C149.329 118.065 150.168 118.332 151.055 118.492C150.157 118.653 149.236 118.678 148.328 118.565C147.433 118.488 146.542 118.368 145.66 118.205C143.888 117.897 142.161 117.404 140.513 116.737V116.737Z" fill="#020202"/>
<path d="M135.448 121.213C136.832 121.31 138.178 121.673 139.396 122.278C140.016 122.573 140.593 122.939 141.111 123.366C141.666 123.782 142.069 124.339 142.27 124.966C141.774 124.565 141.23 124.216 140.648 123.926C140.083 123.633 139.518 123.339 138.93 123.068C137.73 122.513 136.567 121.894 135.448 121.213V121.213Z" fill="#020202"/>
<path d="M136.172 126.092C137.166 126.403 138.091 126.871 138.906 127.475C139.745 128.051 140.464 128.758 141.029 129.563C140.035 129.253 139.109 128.784 138.295 128.179C137.458 127.602 136.739 126.895 136.172 126.092V126.092Z" fill="#020202"/>
<path d="M138.032 132.096C138.911 132.309 139.733 132.682 140.449 133.193C141.186 133.676 141.806 134.293 142.27 135.004C141.39 134.793 140.567 134.42 139.853 133.907C139.117 133.422 138.497 132.806 138.032 132.096Z" fill="#020202"/>
<path d="M146.301 138.663C145.994 138.527 145.733 138.32 145.543 138.063C145.354 137.805 145.243 137.507 145.223 137.198C145.152 136.583 145.233 135.962 145.461 135.38L145.448 135.415C145.518 135.116 145.554 134.812 145.557 134.507C145.588 134.282 145.542 134.054 145.425 133.854C145.148 133.552 144.942 133.202 144.821 132.825C144.688 132.468 144.619 132.093 144.618 131.716C144.609 131.323 144.7 130.933 144.883 130.577C145.082 130.307 145.265 130.026 145.429 129.737C145.657 129.123 145.735 128.471 145.657 127.827C146.02 128.461 146.148 129.184 146.022 129.889C145.923 130.223 145.787 130.547 145.616 130.856C145.527 131.124 145.496 131.405 145.526 131.684C145.576 132.259 145.798 132.81 146.168 133.277C146.449 133.648 146.567 134.1 146.502 134.546C146.464 134.91 146.384 135.271 146.265 135.62L146.26 135.637L146.252 135.656C146.139 135.904 146.02 136.15 145.936 136.405C145.852 136.657 145.796 136.916 145.769 137.178C145.73 137.446 145.757 137.718 145.849 137.975C145.941 138.232 146.095 138.467 146.301 138.663V138.663Z" fill="#020202"/>
<path d="M137.387 116.021C135.961 114.927 134.581 113.793 133.21 112.652C131.847 111.503 130.483 110.356 129.154 109.178C126.472 106.843 123.858 104.449 121.275 102.028C121.187 101.946 121.117 101.848 121.07 101.741C121.024 101.633 121.001 101.519 121.003 101.404C121.005 101.288 121.032 101.174 121.082 101.069C121.133 100.963 121.206 100.867 121.297 100.787L121.345 100.747L121.361 100.735C122.611 99.7811 123.882 98.852 125.155 97.9247L125.165 97.9176C125.356 97.7792 125.598 97.7117 125.842 97.7289C126.086 97.7462 126.313 97.8468 126.479 98.0104C128.874 100.395 131.208 102.831 133.506 105.296C134.658 106.527 135.791 107.773 136.907 109.034C138.024 110.293 139.128 111.564 140.192 112.867C138.852 111.793 137.552 110.687 136.265 109.569C134.98 108.449 133.709 107.318 132.453 106.174C129.943 103.885 127.468 101.566 125.055 99.1965L126.379 99.2821C125.125 100.231 123.87 101.178 122.593 102.101L122.679 100.808C125.233 103.254 127.755 105.728 130.21 108.261C131.449 109.516 132.653 110.803 133.859 112.088C135.056 113.381 136.244 114.681 137.387 116.021Z" fill="#020202"/>
<path d="M130.797 93.5999C129.913 91.8322 129.2 89.9981 128.666 88.1182C128.09 86.2487 127.696 84.3367 127.49 82.4044C128.376 84.1713 129.089 86.0056 129.62 87.8861C130.194 89.756 130.588 91.6679 130.797 93.5999V93.5999Z" fill="#020202"/>
<path d="M139.824 97.2899C140.557 96.1774 141.448 95.1563 142.472 94.2524C143.466 93.3213 144.591 92.513 145.818 91.8486C145.086 92.9622 144.196 93.9835 143.17 94.8861C142.174 95.8158 141.049 96.6239 139.824 97.2899Z" fill="#020202"/>
<path d="M147.059 105.733C148.338 105.418 149.66 105.267 150.986 105.285C152.312 105.265 153.635 105.416 154.914 105.733C153.635 106.051 152.312 106.201 150.986 106.182C149.66 106.2 148.338 106.049 147.059 105.733Z" fill="#020202"/>
<path d="M78.5667 173.219C78.6743 172.635 78.8372 172.061 79.0535 171.503C79.1701 171.218 79.319 170.944 79.4978 170.686C79.686 170.38 79.9935 170.15 80.3595 170.04C80.5659 170.007 80.7781 170.023 80.9752 170.088C81.1723 170.152 81.3474 170.262 81.4832 170.407C81.7312 170.635 81.9467 170.891 82.1247 171.168C82.46 171.694 82.7487 172.243 82.9879 172.81C83.8916 175.049 84.5431 177.364 84.9325 179.722C85.5453 184.433 85.5724 189.191 85.0134 193.908C84.7407 196.259 84.3848 198.604 83.8522 200.932C83.5746 202.095 83.263 203.253 82.8636 204.404C82.4985 205.619 81.9141 206.77 81.134 207.811C80.8667 208.136 80.5215 208.401 80.1244 208.586C79.8561 208.697 79.5599 208.741 79.2665 208.714C78.9897 208.68 78.7258 208.587 78.4967 208.442C77.9002 207.989 77.4514 207.397 77.1989 206.73C76.7307 205.601 76.3775 204.436 76.1435 203.248C75.6978 200.928 75.4026 198.586 75.2593 196.235C75.8378 198.523 76.3369 200.822 77.0852 203.043C77.4123 204.141 77.8444 205.211 78.3766 206.241C78.5814 206.673 78.8925 207.057 79.2861 207.364C79.4366 207.421 79.394 207.405 79.4883 207.369C79.6488 207.261 79.7871 207.128 79.8968 206.976C80.4847 206.03 80.9245 205.015 81.2035 203.958C81.5362 202.864 81.7932 201.737 82.0168 200.604C82.4783 198.338 82.813 196.039 83.0483 193.732C83.316 191.428 83.4727 189.112 83.5475 186.798C83.6415 184.492 83.5944 182.182 83.4065 179.88C83.3184 178.731 83.103 177.619 82.888 176.466C82.6682 175.325 82.4103 174.191 82.0746 173.087C81.9199 172.54 81.718 172.004 81.4707 171.486C81.2335 171.011 80.8536 170.452 80.4594 170.504C80.0145 170.566 79.6079 171.135 79.3237 171.614C79.021 172.128 78.7678 172.665 78.5667 173.219V173.219Z" fill="#020202"/>
<path d="M265.013 140.945L270.525 144.742L273.374 146.55C274.328 147.145 275.243 147.787 276.24 148.322C278.207 149.425 280.114 150.607 282.157 151.583C283.173 152.077 284.147 152.64 285.182 153.099L288.276 154.49C292.436 156.276 296.733 157.785 301.134 159.004C305.534 160.263 310.128 160.87 314.741 160.803L314.462 161.085C314.487 158.645 314.472 156.204 314.437 153.764C314.412 151.323 314.316 148.883 314.256 146.442L314.028 139.12L313.878 131.799L315.349 132.424C313.631 133.601 311.766 134.588 309.791 135.366L308.334 135.942L306.844 136.437C305.859 136.796 304.831 137.018 303.82 137.299C299.739 138.27 295.535 138.749 291.316 138.724L288.168 138.659C287.122 138.607 286.082 138.471 285.041 138.381C282.949 138.241 280.908 137.801 278.851 137.49C276.805 137.12 274.8 136.589 272.789 136.112L266.89 134.284L267.493 133.994C266.699 136.26 265.875 138.557 265.013 140.945ZM264.823 140.995C265.377 138.658 265.969 136.231 266.591 133.772L266.696 133.359L267.194 133.482L273.135 134.944L276.143 135.5C277.147 135.672 278.132 135.936 279.149 136.032C281.174 136.262 283.18 136.623 285.217 136.683C286.232 136.74 287.245 136.82 288.258 136.857L291.3 136.87C295.343 136.816 299.366 136.352 303.295 135.486C304.262 135.237 305.253 135.046 306.194 134.723L307.622 134.281L309.015 133.763C310.847 133.083 312.587 132.215 314.2 131.174L315.704 130.162L315.671 131.799L315.521 139.12L315.292 146.442C315.232 148.882 315.136 151.323 315.112 153.764C315.076 156.204 315.061 158.645 315.087 161.085L315.089 161.349L314.807 161.367C312.456 161.489 310.098 161.433 307.757 161.2L306.006 161.029L304.265 160.782C303.097 160.642 301.958 160.384 300.805 160.171C296.21 159.227 291.751 157.804 287.516 155.93L284.381 154.465C283.332 153.984 282.349 153.395 281.338 152.854C279.297 151.798 277.395 150.546 275.478 149.324C274.503 148.735 273.604 148.051 272.692 147.384L269.968 145.378C268.19 143.923 266.45 142.414 264.823 140.995Z" fill="#020202"/>
<path d="M297.091 64.9424C299.127 66.2064 301.03 67.6383 302.777 69.2199C304.539 70.7866 306.207 72.438 307.774 74.1672C310.887 77.6455 313.687 81.3462 316.144 85.2333C321.033 93.0235 324.847 101.33 327.5 109.966C330.074 118.585 331.92 127.369 333.022 136.243C334.239 145.086 334.973 153.968 335.224 162.891C335.511 171.808 335.297 180.733 334.583 189.63C334.518 190.763 334.405 191.815 334.455 192.879C334.484 193.944 334.607 195.004 334.823 196.051C335.275 198.138 336.096 200.145 337.255 201.994C338.427 203.826 339.928 205.467 341.695 206.851C342.14 207.188 342.604 207.509 343.071 207.821L343.798 208.258L344.162 208.478C344.269 208.536 344.372 208.601 344.471 208.67C344.594 208.804 344.454 208.575 344.784 209.016C345.637 209.41 343.672 210.864 343.886 210.43C343.794 210.435 343.702 210.431 343.611 210.418L343.49 210.399L339.894 209.493C335.234 208.354 330.444 207.712 325.62 207.581C320.8 207.433 315.984 207.965 311.344 209.159C309.031 209.753 306.819 210.608 304.465 211.377C303.315 211.791 302.101 212.057 300.924 212.403C299.728 212.699 298.514 212.951 297.296 213.167C294.844 213.612 292.326 213.679 289.849 213.367C289.23 213.278 288.618 213.151 288.018 212.987C287.421 212.81 286.842 212.586 286.288 212.318C285.155 211.805 284.213 211.002 283.579 210.008C283.567 209.987 283.564 209.964 283.572 209.941C283.579 209.919 283.595 209.9 283.617 209.889C283.639 209.877 283.665 209.874 283.69 209.88C283.715 209.886 283.736 209.9 283.749 209.919L283.758 209.932C284.435 210.832 285.382 211.537 286.486 211.964C287.028 212.193 287.59 212.379 288.168 212.518C288.75 212.647 289.341 212.739 289.937 212.794C292.34 212.964 294.757 212.79 297.1 212.277C298.274 212.025 299.444 211.737 300.596 211.407C301.734 211.025 302.899 210.727 304.011 210.279C306.235 209.463 308.499 208.476 310.895 207.817C315.671 206.473 320.648 205.811 325.648 205.854C330.636 205.898 335.599 206.498 340.426 207.642C341.029 207.78 341.628 207.929 342.223 208.085C342.795 208.23 343.466 208.421 343.913 208.521L343.906 208.519C343.852 208.515 343.798 208.514 343.745 208.517C343.995 208.091 342.083 209.515 342.898 209.878C343.209 210.288 343.032 210.043 343.13 210.151C343.172 210.181 343.101 210.135 343.057 210.111L342.656 209.87L341.852 209.384C341.334 209.038 340.821 208.681 340.329 208.306C338.372 206.782 336.725 204.958 335.463 202.917C334.223 200.876 333.357 198.666 332.897 196.374C332.678 195.23 332.561 194.073 332.547 192.912C332.51 191.752 332.652 190.583 332.73 189.498C333.567 180.654 334.038 171.79 334.142 162.904C334.258 154.015 333.672 145.131 332.386 136.319C332.027 134.122 331.622 131.931 331.231 129.74C330.732 127.566 330.275 125.385 329.742 123.221C328.624 118.902 327.423 114.603 325.923 110.39C324.517 106.152 322.848 101.994 321.053 97.8871C319.26 93.7776 317.179 89.7764 314.823 85.9079C312.5 82.0227 309.872 78.2938 306.961 74.75C304.075 71.1771 300.725 67.9341 296.981 65.0917L296.975 65.0872C296.955 65.0729 296.942 65.0521 296.939 65.0293C296.935 65.0064 296.942 64.9832 296.956 64.9646C296.971 64.9459 296.994 64.9332 297.019 64.9291C297.044 64.9249 297.069 64.9297 297.091 64.9424L297.091 64.9424Z" fill="#020202"/>
<path d="M82.7738 173.647C79.5856 173.802 76.3894 173.753 73.2087 173.502C70.0188 173.274 66.8477 172.865 63.714 172.278C60.566 171.704 57.4693 170.919 54.4495 169.929C51.426 168.912 48.5097 167.649 45.7361 166.157C45.0523 165.769 44.3238 165.435 43.6761 165.002L41.7189 163.719C40.4147 162.849 39.1044 162.056 37.7975 161.221L29.9669 156.255L14.3662 146.253L14.5076 146.328C14.1196 146.173 13.7165 146.051 13.3035 145.965C12.968 145.884 12.6174 145.868 12.2745 145.918C12.0569 145.995 12.086 145.96 12.0157 146.185C11.9633 146.259 12.0132 146.463 11.9941 146.598L12.0925 147.131L12.0937 147.138C12.1364 147.369 12.0863 147.607 11.9526 147.807C11.8608 147.965 11.7906 148.132 11.7435 148.306C11.6875 148.509 11.6574 148.717 11.6537 148.927C11.6556 149.368 11.7505 149.804 11.9333 150.213L11.6092 151.229C11.7291 151.141 11.67 151.183 11.6882 151.168L11.6746 151.193C11.6562 151.23 11.6429 151.268 11.6351 151.308C11.6091 151.44 11.6073 151.574 11.6299 151.707C11.6912 152.069 11.8118 152.42 11.9876 152.75L12.012 153.418C12.0452 153.324 12.0024 153.481 12.0135 153.545C12.014 153.642 12.023 153.738 12.0402 153.833C12.0805 154.055 12.1482 154.271 12.242 154.479C12.4496 154.944 12.7196 155.384 13.0458 155.788L13.1053 156.726C13.1257 156.694 13.1425 156.661 13.1553 156.626C13.158 156.616 13.1588 156.617 13.1588 156.617C13.159 156.627 13.158 156.638 13.1558 156.647C13.1568 156.696 13.1608 156.745 13.1677 156.793C13.1972 156.935 13.2424 157.073 13.3026 157.206C13.4563 157.532 13.6466 157.842 13.8704 158.131C14.1097 158.447 14.3698 158.749 14.6493 159.036C14.9287 159.328 15.2845 159.637 15.5984 159.937L19.4839 163.562L27.2553 170.813L42.7912 185.326L42.8151 185.348C42.8324 185.364 42.8487 185.382 42.8637 185.4C44.1827 187.011 45.4188 188.643 46.5952 190.333C47.8007 192.021 48.8548 193.795 49.7475 195.637C50.1769 196.459 50.7632 197.205 51.4793 197.841C53.7769 199.806 56.7243 201.028 59.8648 201.318C61.9503 201.489 64.0438 201.078 65.8645 200.139L66.5427 199.781L67.1529 199.33C67.5567 199.036 67.9711 198.726 68.3984 198.389C68.8083 198.048 69.2471 197.738 69.7107 197.461C70.157 197.162 70.6279 196.895 71.1192 196.662C75.031 194.769 79.5548 194.193 83.8893 195.038C79.5891 194.41 75.1819 195.141 71.404 197.109C70.9403 197.349 70.4978 197.621 70.0806 197.924C69.6467 198.204 69.2383 198.516 68.8593 198.856C68.4781 199.18 68.0669 199.513 67.6367 199.853L67.0003 200.357L66.2859 200.771C64.3465 201.87 62.075 202.389 59.7932 202.252C57.5298 202.109 55.332 201.5 53.3676 200.469C51.2971 199.502 49.6052 197.979 48.5224 196.108C47.6151 194.352 46.5549 192.664 45.3518 191.061C44.1624 189.436 42.8907 187.838 41.575 186.306L41.6474 186.38L25.9465 171.966L18.0994 164.755L14.1757 161.149C13.8472 160.839 13.5254 160.568 13.1912 160.227C12.8515 159.884 12.5353 159.522 12.2445 159.144C11.9321 158.744 11.6719 158.312 11.4694 157.858C11.3564 157.599 11.2746 157.33 11.2256 157.055C11.2009 156.895 11.1913 156.732 11.1968 156.57C11.2021 156.475 11.2144 156.38 11.2335 156.286C11.244 156.231 11.2582 156.177 11.2761 156.124C11.3024 156.038 11.3391 155.954 11.3856 155.875L11.445 156.812C11.0291 156.285 10.687 155.713 10.4264 155.109C10.2849 154.783 10.1839 154.444 10.1253 154.097C10.0936 153.909 10.0785 153.718 10.0803 153.527C10.0772 153.281 10.1193 153.037 10.205 152.804L10.2295 153.472C9.97363 152.976 9.80315 152.447 9.72405 151.904C9.67897 151.583 9.69302 151.258 9.76561 150.942C9.80829 150.758 9.87683 150.58 9.96954 150.412C10.0216 150.318 10.0818 150.229 10.1496 150.144C10.2434 150.025 10.356 149.92 10.4838 149.832L10.1598 150.849C9.8888 150.227 9.75335 149.563 9.76097 148.894C9.76977 148.55 9.82252 148.208 9.91817 147.874C10.0179 147.51 10.1813 147.161 10.4022 146.843L10.2624 147.519C10.2142 147.258 10.1626 147.002 10.1264 146.735C10.101 146.43 10.1227 146.122 10.1908 145.822C10.264 145.447 10.4588 145.1 10.7504 144.825C11.042 144.551 11.4171 144.362 11.8278 144.281C12.4515 144.168 13.0954 144.185 13.7109 144.331C14.2534 144.447 14.7819 144.611 15.2889 144.821C15.3338 144.839 15.3766 144.861 15.4167 144.887L15.4306 144.896L30.9744 155.022L38.7159 160.12C39.9934 160.977 41.3141 161.817 42.5559 162.686L44.4401 163.983C45.0645 164.422 45.7594 164.755 46.416 165.147C49.0892 166.661 51.9073 167.953 54.8362 169.008C60.7631 171.065 66.9494 172.443 73.2521 173.109C76.4109 173.465 79.5908 173.645 82.7738 173.647V173.647Z" fill="#020202"/>
<path d="M11.1775 147.325C11.5244 147.064 11.9708 146.938 12.4196 146.974C12.8671 146.993 13.3037 147.106 13.6951 147.304C14.0788 147.49 14.4278 147.73 14.7292 148.015C14.8697 148.163 15.0161 148.304 15.1472 148.456C15.2608 148.623 15.3871 148.777 15.4841 148.952C14.7541 148.541 14.1263 148.085 13.4275 147.765C13.091 147.594 12.7327 147.461 12.3606 147.369C11.975 147.274 11.5704 147.259 11.1775 147.325Z" fill="#020202"/>
<path d="M11.0466 150.531C11.0803 150.321 11.3282 150.189 11.5473 150.13C11.7726 150.09 12.0034 150.083 12.2309 150.111C12.6658 150.167 13.0872 150.289 13.4771 150.473C14.2439 150.819 14.9263 151.301 15.4841 151.891C15.0881 151.759 14.7009 151.607 14.3245 151.434L13.2248 150.94C12.8719 150.774 12.5083 150.627 12.136 150.501C11.9578 150.436 11.7699 150.396 11.5786 150.382C11.4833 150.366 11.3851 150.371 11.2925 150.397C11.1999 150.423 11.1155 150.469 11.0466 150.531V150.531Z" fill="#020202"/>
<path d="M11.1085 153.111C11.3158 152.9 11.5875 152.75 11.8891 152.68C12.1906 152.61 12.5083 152.624 12.8015 152.718C13.3896 152.851 13.9451 153.083 14.4393 153.402C14.9291 153.702 15.3814 154.049 15.788 154.439C16.2004 154.818 16.5716 155.232 16.8966 155.675C16.3986 155.384 15.9604 155.045 15.496 154.74C15.0377 154.429 14.5885 154.113 14.1199 153.834C13.6692 153.543 13.1851 153.297 12.6761 153.101C12.4289 153.004 12.1644 152.948 11.8954 152.936C11.6183 152.905 11.3385 152.967 11.1085 153.111V153.111Z" fill="#020202"/>
<path d="M12.2455 156.301C12.2484 156.178 12.2846 156.057 12.351 155.95C12.4175 155.843 12.512 155.753 12.6262 155.687C12.8764 155.564 13.1651 155.523 13.4448 155.569C13.9588 155.653 14.4443 155.844 14.8632 156.127C15.6776 156.65 16.3688 157.315 16.8967 158.083C16.4608 157.854 16.0911 157.568 15.6944 157.318C15.305 157.06 14.93 156.792 14.5403 156.557C14.1761 156.31 13.7769 156.109 13.3534 155.959C13.1565 155.872 12.9294 155.858 12.7218 155.922C12.5142 155.986 12.3429 156.122 12.2455 156.301V156.301Z" fill="#020202"/>
<path d="M74.7984 195.487C72.1876 196.003 69.8265 197.262 68.0587 199.081C61.4439 204.991 51.1081 200.113 49.1443 195.891C47.1805 191.669 42.2193 185.853 42.2193 185.853C41.0354 184.794 39.4456 183.346 37.6297 181.68C44.7882 176.194 42.3694 163.406 42.3694 163.406C37.4548 154.782 25.8147 152.629 25.8147 152.629C27.291 163.375 21.2611 166.504 21.2607 166.505C17.0999 162.624 14.0543 159.772 14.0543 159.772C11.6254 157.332 12.2455 156.3 12.2455 156.3C10.6434 154.237 11.1086 153.111 11.1086 153.111C10.1267 151.141 11.0466 150.531 11.0466 150.531C10.7895 150.025 10.6674 149.471 10.6901 148.914C10.7128 148.357 10.8798 147.813 11.1775 147.325L11.1086 146.7L2.58351 153.997C1.48915 154.933 0.698521 156.123 0.297623 157.439C-0.103274 158.754 -0.0990936 160.144 0.309726 161.458C2.49204 168.473 8.48914 181.51 23.5116 185.29C23.5116 185.29 43.3563 194.484 28.266 200.3L48.9376 219.064C48.9376 219.064 49.7989 215.155 53.6748 214.286C57.2672 213.429 60.4539 211.532 62.7521 208.884C63.5679 207.968 64.4528 206.899 65.4011 205.653C66.84 203.739 68.5412 201.998 70.4637 200.473C72.1644 199.139 74.0593 197.978 75.2594 198.236L74.7984 195.487Z" fill="#020202"/>
<path d="M70.5827 173.032C70.5827 173.032 70.4888 173.402 70.3522 174.049" stroke="#020202" stroke-width="1.68761" stroke-linecap="round" stroke-linejoin="round"/>
<path d="M69.9827 176.007C69.1926 180.707 68.34 189.783 72.4143 194.316" stroke="#020202" stroke-width="1.68761" stroke-linecap="round" stroke-linejoin="round" stroke-dasharray="2.15 2.15"/>
<path d="M73.1636 195.049C73.4424 195.288 73.7403 195.507 74.0548 195.707" stroke="#020202" stroke-width="1.68761" stroke-linecap="round" stroke-linejoin="round"/>
<path d="M72.9166 187.979C73.48 188.52 74.1457 188.965 74.8823 189.292C75.2331 189.423 75.6132 189.476 75.9911 189.447C76.403 189.402 76.806 189.305 77.1887 189.16C76.9024 189.484 76.5139 189.722 76.075 189.84C75.6116 189.966 75.1147 189.943 74.6678 189.775C74.2406 189.609 73.8628 189.354 73.5655 189.029C73.2693 188.725 73.0481 188.367 72.9166 187.979V187.979Z" fill="#020202"/>
<path d="M201.287 33.5886C201.617 33.0365 202.045 32.5377 202.554 32.1126C203.055 31.6795 203.612 31.3033 204.213 30.9921C204.828 30.6845 205.488 30.4598 206.174 30.3252C206.866 30.1951 207.582 30.2204 208.26 30.3989C207.629 30.5683 207.008 30.767 206.399 30.9943C205.819 31.2389 205.251 31.4893 204.694 31.7748C203.572 32.3386 202.499 32.9828 201.287 33.5886Z" fill="#020202"/>
<path d="M205.421 38.2481C205.868 38.234 206.291 38.0631 206.601 37.7714C206.912 37.4797 207.085 37.09 207.085 36.6845C207.085 36.2789 206.912 35.8892 206.601 35.5975C206.291 35.3058 205.868 35.1349 205.421 35.1208C204.975 35.1349 204.552 35.3058 204.241 35.5975C203.931 35.8892 203.757 36.2789 203.757 36.6845C203.757 37.09 203.931 37.4797 204.241 37.7714C204.552 38.0631 204.975 38.234 205.421 38.2481V38.2481Z" fill="#020202"/>
<path d="M219.823 35.3711C220.204 35.6418 220.637 35.8463 221.099 35.9743C221.273 35.9626 221.259 35.9713 221.337 35.8446C221.386 35.7821 221.425 35.7132 221.451 35.6402C221.497 35.5525 221.529 35.4593 221.546 35.3634C221.619 35.1575 221.673 34.9466 221.709 34.7327C221.782 34.5192 221.795 34.2854 221.858 34.0583C221.953 33.5798 222.09 33.109 222.269 32.6505C222.472 33.1136 222.593 33.6031 222.628 34.1008C222.684 34.6099 222.638 35.1241 222.492 35.6184C222.454 35.7556 222.398 35.8879 222.324 36.0124C222.211 36.2448 222.03 36.4444 221.8 36.5891C221.697 36.6357 221.589 36.6754 221.479 36.7076C221.272 36.7456 221.056 36.7213 220.865 36.6382C220.576 36.515 220.334 36.3181 220.166 36.0716C220.007 35.8584 219.891 35.6212 219.823 35.3711V35.3711Z" fill="#020202"/>
<path d="M218.238 31.337C217.983 30.894 217.847 30.4028 217.841 29.9032C217.8 29.3424 217.991 28.7878 218.378 28.3484C218.631 28.1089 218.965 27.953 219.327 27.9057C219.648 27.8796 219.972 27.9259 220.269 28.0405C220.527 28.1476 220.769 28.2819 220.993 28.4405C221.193 28.6098 221.378 28.7942 221.545 28.9916C221.284 28.9539 221.025 28.9006 220.771 28.8322C220.526 28.7914 220.286 28.7421 220.068 28.7158C219.899 28.6781 219.723 28.6796 219.556 28.7204C219.389 28.7611 219.235 28.8397 219.111 28.9488C218.859 29.2538 218.686 29.6063 218.605 29.9803L218.238 31.337Z" fill="#020202"/>
<path d="M202.596 45.128C203.065 44.857 203.564 44.6328 204.085 44.4593C204.307 44.3839 204.511 44.3048 204.723 44.2193C204.97 44.1056 205.204 43.97 205.421 43.8146C205.474 43.9673 205.487 44.1291 205.459 44.2871C205.43 44.445 205.361 44.5947 205.257 44.724C205.054 44.9793 204.775 45.1763 204.452 45.2914C204.151 45.3983 203.827 45.4416 203.506 45.4179C203.178 45.4028 202.862 45.3022 202.596 45.128V45.128Z" fill="#020202"/>
<path d="M206.207 47.9425C207.845 47.0902 209.569 46.3834 211.357 45.832C211.446 45.8023 211.544 45.797 211.637 45.8169C211.73 45.8368 211.814 45.8809 211.88 45.9439C211.946 46.0069 211.99 46.086 212.007 46.1714C212.023 46.2568 212.012 46.3448 211.974 46.4245C211.595 47.2518 211.13 48.0444 210.585 48.7913C210.309 49.1729 209.991 49.5278 209.635 49.8504C209.448 50.0176 209.236 50.1588 209.003 50.2693C208.879 50.3256 208.743 50.3562 208.604 50.3588C208.537 50.3539 208.473 50.3368 208.413 50.3084C208.354 50.2801 208.302 50.2412 208.26 50.194C208.36 50.2369 208.474 50.247 208.581 50.2225C208.689 50.198 208.783 50.1405 208.849 50.0597C209.007 49.9119 209.144 49.7465 209.255 49.5675C209.495 49.2024 209.714 48.826 209.91 48.4399C210.308 47.6645 210.7 46.869 211.065 46.0831L211.682 46.6755C209.906 47.2568 208.073 47.6811 206.207 47.9425V47.9425Z" fill="#020202"/>
<path d="M291.141 212.194C291.525 212.182 291.889 212.035 292.156 211.784C292.423 211.533 292.572 211.198 292.572 210.849C292.572 210.5 292.423 210.165 292.156 209.914C291.889 209.663 291.525 209.516 291.141 209.504C290.757 209.516 290.393 209.663 290.126 209.914C289.859 210.165 289.71 210.5 289.71 210.849C289.71 211.198 289.859 211.533 290.126 211.784C290.393 212.035 290.757 212.182 291.141 212.194V212.194Z" fill="#020202"/>
<path d="M299.135 209.17C299.519 209.158 299.883 209.011 300.15 208.76C300.417 208.509 300.566 208.174 300.566 207.825C300.566 207.476 300.417 207.141 300.15 206.89C299.883 206.639 299.519 206.492 299.135 206.48C298.75 206.492 298.386 206.639 298.119 206.89C297.852 207.141 297.703 207.476 297.703 207.825C297.703 208.174 297.852 208.509 298.119 208.76C298.386 209.011 298.75 209.158 299.135 209.17V209.17Z" fill="#020202"/>
<path d="M307.096 205.662C307.48 205.65 307.844 205.503 308.111 205.252C308.378 205.002 308.528 204.666 308.528 204.317C308.528 203.969 308.378 203.633 308.111 203.382C307.844 203.131 307.48 202.984 307.096 202.972C306.712 202.984 306.348 203.131 306.081 203.382C305.814 203.633 305.665 203.969 305.665 204.317C305.665 204.666 305.814 205.002 306.081 205.252C306.348 205.503 306.712 205.65 307.096 205.662V205.662Z" fill="#020202"/>
<path d="M316.939 203.669C317.324 203.657 317.688 203.51 317.955 203.259C318.222 203.008 318.371 202.673 318.371 202.324C318.371 201.975 318.222 201.64 317.955 201.389C317.688 201.138 317.324 200.991 316.939 200.979C316.555 200.991 316.191 201.138 315.924 201.389C315.657 201.64 315.508 201.975 315.508 202.324C315.508 202.673 315.657 203.008 315.924 203.259C316.191 203.51 316.555 203.657 316.939 203.669V203.669Z" fill="#020202"/>
<path d="M325.846 203.667C326.23 203.655 326.594 203.508 326.861 203.257C327.128 203.006 327.278 202.671 327.278 202.322C327.278 201.973 327.128 201.638 326.861 201.387C326.594 201.136 326.23 200.989 325.846 200.977C325.462 200.989 325.098 201.136 324.831 201.387C324.564 201.638 324.415 201.973 324.415 202.322C324.415 202.671 324.564 203.006 324.831 203.257C325.098 203.508 325.462 203.655 325.846 203.667V203.667Z" fill="#020202"/>
<path d="M333.94 204.841C334.325 204.829 334.688 204.682 334.955 204.431C335.223 204.18 335.372 203.845 335.372 203.496C335.372 203.147 335.223 202.812 334.955 202.561C334.688 202.31 334.325 202.163 333.94 202.151C333.556 202.163 333.192 202.31 332.925 202.561C332.658 202.812 332.509 203.147 332.509 203.496C332.509 203.845 332.658 204.18 332.925 204.431C333.192 204.682 333.556 204.829 333.94 204.841V204.841Z" fill="#020202"/>
<ellipse cx="214.521" cy="38" rx="7.16107" ry="6" fill="#FE5312"/>
</svg>
