<svg width="360" height="209" viewBox="0 0 360 209" fill="none" xmlns="http://www.w3.org/2000/svg">
<path d="M137 86V71H165.5V86H137Z" fill="#FE5312"/>
<path d="M158 63V48H244V63H158Z" fill="#FE5312"/>
<path d="M136 17.5V0H194.5L195.5 17.5H136Z" fill="#FE5312"/>
<path d="M329.215 121.383C328.769 120.801 328.379 120.184 327.988 119.56C320.456 107.717 287.544 113.33 287.544 113.33C283.822 141.883 277.345 138.518 276.146 136.722C274.947 134.926 272.781 117.292 271.348 114.893C267.209 114.53 258.751 114.591 258.751 114.591C250.588 114.783 242.912 121.966 235.359 133.665C227.806 145.358 214.489 155.255 214.489 155.255C214.489 155.255 218.444 155.618 219.883 164.254C220.768 164.528 223.42 163.356 225.353 162.41C227.077 161.566 229 161.213 230.911 161.389C234.023 161.677 238.498 162.67 242.076 166.056C242.516 166.467 242.983 166.847 243.474 167.194C243.926 166.94 244.18 166.769 244.18 166.769C251.555 163.712 255.873 153.096 255.873 153.096C255.274 151.761 254.926 150.328 254.845 148.867C254.728 147.413 254.748 145.951 254.906 144.501C255.064 143.082 255.174 141.677 255.215 140.266C255.286 138.842 255.224 137.415 255.03 136.002C255.617 137.344 255.952 138.782 256.017 140.245C256.117 141.698 256.087 143.156 255.927 144.604C255.77 146.016 255.681 147.421 255.646 148.84C255.596 150.262 255.671 151.687 255.873 153.096C256.286 156.884 257.182 160.604 258.539 164.165C260.487 164.81 262.497 165.254 264.536 165.487C265.539 165.602 266.55 165.634 267.558 165.583C268.591 165.526 269.621 165.416 270.643 165.254C269.72 165.807 268.705 166.188 267.647 166.378C267.118 166.481 266.582 166.545 266.044 166.57C265.504 166.577 264.964 166.557 264.426 166.509C263.356 166.392 262.306 166.139 261.301 165.755C260.298 165.382 259.365 164.844 258.539 164.165C259.116 165.75 259.882 167.259 260.821 168.661C265.905 168.954 270.888 170.202 275.509 172.341C276.681 172.883 277.757 173.609 278.84 174.144C279.942 174.694 281.097 175.132 282.287 175.453C284.683 176.105 287.151 176.455 289.634 176.495C290.895 176.536 292.095 176.467 293.397 176.426C294.677 176.412 295.956 176.474 297.228 176.611C299.751 176.871 302.266 177.159 304.761 177.598C305.713 177.763 306.659 177.941 307.605 178.126C307.167 177.531 306.79 176.892 306.481 176.22C305.999 175.208 305.638 174.143 305.405 173.047C305.165 171.951 305.021 170.837 304.973 169.716C304.911 168.586 304.954 167.453 305.103 166.33L305.11 166.296L305.124 166.248C305.5 165.032 305.732 163.776 305.816 162.506C305.922 161.218 305.936 159.924 305.857 158.634C305.768 157.342 305.61 156.056 305.384 154.782C305.138 153.527 304.809 152.218 304.63 150.896C304.271 148.259 304.189 145.592 304.384 142.938C304.452 141.616 304.589 140.293 304.788 138.991C304.971 137.683 305.22 136.386 305.535 135.105C305.21 137.711 305.032 140.333 305.001 142.959C304.963 145.566 305.153 148.171 305.569 150.745C305.658 151.389 305.816 152.02 305.946 152.65L306.371 154.597C306.624 155.912 306.791 157.242 306.872 158.579C307.074 161.258 306.765 163.952 305.96 166.516C305.79 167.569 305.703 168.635 305.7 169.703C305.692 170.788 305.777 171.873 305.953 172.944C306.125 174.019 306.401 175.075 306.776 176.097C307.04 176.815 307.373 177.506 307.77 178.16C309.257 178.462 310.73 178.804 312.19 179.209C314.645 179.85 317.004 180.811 319.208 182.067C316.931 180.995 314.533 180.199 312.067 179.695C310.799 179.401 309.522 179.145 308.236 178.928C308.232 178.924 308.227 178.922 308.222 178.921C307.036 178.715 305.844 178.537 304.644 178.379C302.149 178.057 299.648 177.776 297.146 177.578C295.907 177.461 294.662 177.413 293.418 177.434C292.205 177.475 290.875 177.564 289.614 177.523C287.044 177.47 284.492 177.088 282.02 176.385C280.779 176.022 279.576 175.54 278.428 174.946C277.853 174.665 277.291 174.288 276.763 173.979C276.235 173.657 275.708 173.321 275.152 173.047C272.936 171.883 270.602 170.96 268.189 170.292C265.776 169.569 263.314 169.024 260.821 168.661L255.153 169.202C255.328 169.443 255.456 169.715 255.53 170.004C256.99 174.726 254.886 193.225 254.886 193.225C262.98 199.16 307.783 208.337 307.783 208.337C336.665 213.197 336.932 187.55 336.932 187.55C342.1 141.527 331.943 124.92 329.215 121.383ZM293.075 168.297C292.546 168.4 292.01 168.464 291.471 168.489C290.931 168.496 290.391 168.476 289.854 168.428C288.784 168.311 287.733 168.058 286.728 167.674C285.726 167.301 284.792 166.763 283.966 166.084C285.915 166.729 287.924 167.173 289.963 167.406C290.966 167.521 291.977 167.553 292.986 167.502C294.019 167.445 295.048 167.335 296.07 167.173C295.148 167.726 294.133 168.107 293.075 168.297V168.297Z" fill="black"/>
<path d="M271.288 114.925C271.091 114.628 270.871 114.345 270.631 114.081C270.392 113.821 270.13 113.583 269.847 113.371C269.567 113.164 269.264 112.988 268.944 112.848C268.637 112.71 268.31 112.622 267.974 112.586L268.081 112.565C267.394 112.896 266.666 113.139 265.918 113.288C265.157 113.452 264.374 113.477 263.604 113.363C262.805 113.245 262.052 112.916 261.422 112.41C260.843 111.892 260.335 111.299 259.912 110.648C259.084 109.394 258.349 108.082 257.71 106.722C257.067 105.372 256.488 104.007 255.949 102.604L256.503 102.97C255.864 103.035 255.22 102.937 254.629 102.685C254.285 102.524 253.995 102.266 253.794 101.944C253.608 101.633 253.497 101.283 253.47 100.922C253.438 100.302 253.526 99.682 253.73 99.0959C253.908 98.5367 254.144 97.9974 254.433 97.4863C254.974 96.6937 255.229 95.7396 255.153 94.7825C255.11 94.3165 254.982 93.8624 254.775 93.4427L254.401 92.7432C254.272 92.4953 254.147 92.2431 254.03 91.9852C253.787 91.4691 253.594 90.9314 253.453 90.379C253.298 89.8412 253.173 89.2954 253.078 88.7441C252.959 88.1969 252.922 87.6362 252.853 87.0818C252.831 86.5223 252.797 85.964 252.827 85.4052C252.874 83.1576 253.424 80.9491 254.437 78.9423C254.472 78.8747 254.526 78.8186 254.591 78.7803C254.657 78.7421 254.733 78.7233 254.809 78.7262C254.885 78.7291 254.958 78.7536 255.021 78.7968C255.084 78.8399 255.133 78.9 255.163 78.97L255.169 78.9853C256.006 80.9168 257.073 82.7398 258.349 84.4143C259.619 86.1051 261.144 87.5879 262.87 88.8095C264.591 90.034 266.558 90.8711 268.633 91.2632C270.706 91.6452 272.835 91.5881 274.884 91.0957L274.899 91.0923C274.947 91.0814 274.997 91.0845 275.044 91.1011C275.09 91.1177 275.131 91.1472 275.162 91.1862C275.988 92.3244 276.564 93.625 276.851 95.0022C277.157 96.3475 277.313 97.7224 277.316 99.1019C277.324 100.475 277.226 101.846 277.024 103.204C276.783 104.494 276.692 105.807 276.753 107.117C276.815 108.383 277.157 109.62 277.756 110.738C278.353 111.814 279.265 112.682 280.37 113.225C281.497 113.751 282.741 113.972 283.98 113.867C285.249 113.764 286.491 113.445 287.652 112.922C287.764 112.873 287.886 112.855 288.008 112.869C288.129 112.883 288.244 112.929 288.342 113.002C288.439 113.074 288.516 113.172 288.564 113.284C288.612 113.396 288.63 113.519 288.616 113.64L288.614 113.648C288.111 118.017 287.329 122.348 286.272 126.617C285.724 128.771 285.004 130.878 284.119 132.917C283.665 133.959 283.106 134.952 282.453 135.882C282.111 136.361 281.723 136.806 281.295 137.209C280.851 137.645 280.328 137.994 279.755 138.236C279.141 138.5 278.462 138.575 277.806 138.451C277.155 138.318 276.557 137.999 276.084 137.533C275.832 137.294 275.631 137.006 275.492 136.686C275.382 136.41 275.288 136.128 275.211 135.841C275.058 135.293 274.941 134.754 274.826 134.213C274.373 132.055 274.062 129.894 273.717 127.736L272.702 121.269C272.528 120.193 272.346 119.118 272.136 118.05C271.965 116.981 271.681 115.934 271.288 114.925L271.284 114.915C271.276 114.899 271.275 114.881 271.281 114.864C271.287 114.848 271.299 114.834 271.315 114.826C271.331 114.818 271.349 114.817 271.366 114.822C271.383 114.827 271.397 114.839 271.406 114.855C271.883 115.849 272.242 116.895 272.476 117.973C272.748 119.034 272.991 120.101 273.226 121.169C273.701 123.304 274.101 125.452 274.531 127.592C274.952 129.732 275.389 131.873 275.87 133.98C275.995 134.504 276.123 135.029 276.277 135.529C276.347 135.768 276.431 136.002 276.528 136.231C276.613 136.411 276.734 136.572 276.883 136.703C277.194 137.004 277.59 137.204 278.017 137.275C278.445 137.345 278.883 137.284 279.275 137.099C280.138 136.638 280.864 135.956 281.377 135.122C281.953 134.247 282.447 133.32 282.855 132.355C283.685 130.377 284.355 128.336 284.86 126.251C285.879 122.035 286.673 117.769 287.239 113.469L288.201 114.196C286.888 114.765 285.487 115.103 284.059 115.196C282.592 115.296 281.126 115.011 279.804 114.368C278.476 113.699 277.389 112.633 276.695 111.318C276.042 110.033 275.683 108.62 275.644 107.179C275.608 105.791 275.737 104.403 276.03 103.045C276.274 101.741 276.419 100.421 276.461 99.0952C276.51 97.7744 276.408 96.4525 276.158 95.1547C275.933 93.8744 275.447 92.6542 274.73 91.5701L275.007 91.6604C272.877 92.1016 270.682 92.1201 268.545 91.7148C267.481 91.5071 266.445 91.1782 265.456 90.7344C264.464 90.3031 263.516 89.7773 262.626 89.1642C260.852 87.9292 259.264 86.446 257.912 84.76C256.529 83.089 255.355 81.2553 254.416 79.2996L255.148 79.3426C254.288 81.2509 253.861 83.3258 253.897 85.4186C253.901 86.4627 254.011 87.5038 254.223 88.5261C254.323 89.0381 254.45 89.5444 254.605 90.0424C254.742 90.5352 254.92 91.0155 255.138 91.4784C255.245 91.7122 255.361 91.9439 255.483 92.1745C255.605 92.4113 255.73 92.6134 255.875 92.9039C256.15 93.4554 256.321 94.0523 256.38 94.6652C256.473 95.8839 256.15 97.0982 255.463 98.109C254.956 98.9261 254.672 99.861 254.637 100.822C254.634 100.995 254.68 101.165 254.77 101.313C254.86 101.461 254.989 101.581 255.144 101.659C255.554 101.83 255.999 101.898 256.441 101.859L256.449 101.858C256.567 101.853 256.684 101.886 256.782 101.952C256.88 102.018 256.955 102.113 256.995 102.225C257.485 103.594 258.039 104.962 258.63 106.299C259.198 107.64 259.863 108.938 260.617 110.183C260.978 110.787 261.415 111.342 261.919 111.833C262.434 112.276 263.057 112.574 263.724 112.697C265.136 112.921 266.581 112.741 267.894 112.177L267.922 112.165C267.948 112.155 267.975 112.152 268.001 112.156C268.385 112.214 268.756 112.336 269.1 112.515C269.434 112.686 269.748 112.893 270.036 113.134C270.316 113.376 270.572 113.645 270.8 113.938C271.025 114.228 271.227 114.534 271.406 114.855C271.41 114.862 271.413 114.871 271.414 114.88C271.415 114.889 271.415 114.898 271.412 114.907C271.41 114.915 271.406 114.923 271.4 114.931C271.395 114.938 271.388 114.944 271.38 114.948C271.365 114.956 271.347 114.958 271.33 114.954C271.313 114.95 271.298 114.94 271.288 114.925V114.925Z" fill="black"/>
<path d="M255.067 102.252C254.927 103.343 254.781 104.424 254.666 105.507C254.559 106.59 254.455 107.671 254.422 108.751C254.369 109.826 254.414 110.903 254.555 111.969C254.625 112.497 254.767 113.013 254.977 113.503C255.174 114.005 255.501 114.446 255.926 114.78C255.423 114.522 255.009 114.12 254.735 113.626C254.463 113.132 254.262 112.602 254.137 112.052C253.902 110.962 253.812 109.845 253.868 108.732C253.913 107.628 254.039 106.53 254.246 105.445C254.439 104.362 254.714 103.295 255.067 102.252V102.252Z" fill="black"/>
<path d="M254.736 79.1819C254.595 78.9357 254.506 78.6634 254.473 78.3815C254.441 78.0996 254.466 77.814 254.548 77.5423L254.661 77.1343L254.838 76.7561C254.9 76.6311 254.956 76.501 255.023 76.3792L255.256 76.0362C255.565 75.5785 255.915 75.1501 256.303 74.7564C256.695 74.3754 257.113 74.0242 257.522 73.6593C259.251 72.3522 261.102 71.2159 263.05 70.2663C264.022 69.805 265.005 69.3638 265.987 68.925C266.98 68.5172 267.98 68.1235 268.982 67.7365C269.986 67.3689 271.005 67.0515 272.019 66.7148C272.532 66.5605 273.027 66.3853 273.575 66.2337C274.106 66.0909 274.645 65.9763 275.189 65.8904C277.348 65.5352 279.556 65.6251 281.679 66.1547C283.794 66.6875 285.748 67.723 287.377 69.1731C288.983 70.6455 290.307 72.3994 291.283 74.3481C292.262 76.2888 293.011 78.3377 293.514 80.4528L293.524 80.5097C294.053 83.4124 294.985 86.2272 296.291 88.8728C296.936 90.1928 297.682 91.4606 298.524 92.6646C299.352 93.871 300.287 95.0007 301.317 96.04L302.947 97.5496C303.533 98.0626 304.085 98.6145 304.597 99.2016C305.645 100.36 306.51 101.672 307.161 103.091C308.511 105.897 308.848 109.083 308.116 112.109C308.112 112.126 308.101 112.14 308.087 112.149C308.072 112.158 308.054 112.162 308.037 112.158C308.02 112.155 308.005 112.145 307.995 112.131C307.985 112.117 307.98 112.099 307.983 112.082L307.984 112.074C308.176 110.597 308.117 109.097 307.808 107.64C307.527 106.196 307.019 104.806 306.303 103.522C305.95 102.884 305.559 102.268 305.129 101.679C304.689 101.098 304.211 100.546 303.699 100.028C303.199 99.4965 302.664 99.0001 302.096 98.5418L300.355 97.0342C298.118 94.8739 296.302 92.3167 295 89.493C294.351 88.0949 293.803 86.6526 293.358 85.1769C292.896 83.7004 292.561 82.1874 292.354 80.6542L292.364 80.7108C291.954 78.653 291.343 76.6407 290.538 74.703C289.732 72.7623 288.549 71.0007 287.058 69.5202C286.291 68.8043 285.437 68.1874 284.517 67.6839C283.59 67.1917 282.598 66.8311 281.571 66.6125C279.515 66.2027 277.394 66.2532 275.36 66.7604C274.856 66.8769 274.359 67.0199 273.87 67.1888C273.4 67.3543 272.9 67.5698 272.403 67.7587L269.41 68.8788C268.427 69.2747 267.442 69.6639 266.451 70.039L263.538 71.2915C261.619 72.1523 259.768 73.1591 258.004 74.303C257.592 74.617 257.165 74.9212 256.765 75.2518C256.372 75.5863 256.006 75.9511 255.671 76.3426L255.42 76.6373C255.347 76.7414 255.286 76.852 255.218 76.9595L255.018 77.2868L254.88 77.6384C254.682 78.1044 254.671 78.6286 254.848 79.1027L254.855 79.1171C254.862 79.1327 254.863 79.1504 254.858 79.1666C254.852 79.1829 254.841 79.1965 254.826 79.2047C254.811 79.2129 254.793 79.2151 254.777 79.2109C254.76 79.2066 254.746 79.1963 254.736 79.1819V79.1819Z" fill="black"/>
<path d="M256.432 92.4244C257.38 91.7427 258.415 91.1901 259.508 90.7809C260.055 90.5707 260.617 90.4021 261.188 90.2765C261.764 90.1307 262.363 90.1031 262.95 90.1954C262.39 90.3165 261.84 90.4829 261.307 90.6928L259.706 91.2987C258.634 91.7012 257.565 92.116 256.432 92.4244Z" fill="black"/>
<path d="M259.431 96.2552C259.647 96.2477 259.851 96.1568 260.001 96.0016C260.151 95.8464 260.235 95.639 260.235 95.4232C260.235 95.2074 260.151 95 260.001 94.8447C259.851 94.6895 259.647 94.5986 259.431 94.5912C259.215 94.5986 259.011 94.6895 258.861 94.8447C258.711 95 258.627 95.2074 258.627 95.4232C258.627 95.639 258.711 95.8464 258.861 96.0016C259.011 96.1568 259.215 96.2477 259.431 96.2552Z" fill="black"/>
<path d="M258.089 106.335C258.506 106.348 258.924 106.336 259.339 106.3C259.745 106.263 260.145 106.214 260.542 106.139C260.938 106.062 261.333 105.973 261.73 105.865C262.127 105.757 262.526 105.639 262.95 105.533C262.634 105.833 262.274 106.081 261.882 106.27C261.489 106.461 261.072 106.601 260.643 106.684C259.777 106.871 258.873 106.747 258.089 106.335V106.335Z" fill="black"/>
<path d="M255.002 190.767C252.941 190.008 250.822 189.417 248.666 189C246.544 188.568 244.364 188.499 242.218 188.795L241.428 188.928L240.657 189.137C240.145 189.28 239.642 189.454 239.15 189.656C238.168 190.079 237.226 190.59 236.337 191.184C235.431 191.778 234.571 192.459 233.559 193.046C232.546 193.615 231.455 194.034 230.321 194.29C229.196 194.556 228.04 194.673 226.883 194.636C225.672 194.638 224.478 194.348 223.402 193.792C223.105 193.611 222.84 193.381 222.619 193.113C222.42 192.87 222.297 192.691 222.123 192.491C221.797 192.116 221.419 191.788 221.001 191.518C220.082 190.984 219.111 190.543 218.104 190.203C217.017 189.858 215.975 189.385 214.999 188.795C214.505 188.461 214.07 188.046 213.714 187.567C213.539 187.342 213.382 187.126 213.214 186.927C213.131 186.823 213.044 186.735 212.955 186.634C212.859 186.52 212.747 186.405 212.666 186.29C212.011 185.382 211.41 184.437 210.866 183.459C210.315 182.497 209.767 181.539 209.241 180.564L209.402 180.682L207.991 180.374C207.503 180.291 207.025 180.16 206.562 179.983C205.635 179.596 204.822 178.98 204.197 178.193C203.855 177.8 203.62 177.325 203.515 176.814C203.475 176.545 203.492 176.27 203.566 176.008C203.639 175.746 203.767 175.503 203.941 175.293C204.274 174.9 204.682 174.578 205.141 174.343C205.599 174.109 206.1 173.968 206.614 173.928C207.11 173.9 207.608 173.92 208.1 173.989L209.537 174.093C210.495 174.153 211.454 174.198 212.413 174.228C214.33 174.286 216.249 174.273 218.155 174.154C220.048 174.056 221.928 173.792 223.775 173.367C224.668 173.155 225.532 172.838 226.351 172.423C226.735 172.223 227.092 171.975 227.414 171.686C227.737 171.389 228.031 171.062 228.291 170.709C228.508 170.463 228.644 170.155 228.679 169.829C228.667 169.759 228.656 169.731 228.566 169.654C228.431 169.568 228.284 169.502 228.13 169.46C227.273 169.286 226.391 169.274 225.529 169.425C225.089 169.486 224.654 169.582 224.228 169.711C224.055 169.762 223.887 169.833 223.729 169.921L223.582 170.017C223.517 170.062 223.452 170.097 223.387 170.134C223.259 170.206 223.128 170.269 222.993 170.325C222.49 170.525 221.964 170.662 221.428 170.732C221.17 170.768 220.913 170.794 220.658 170.812C220.362 170.838 220.064 170.827 219.771 170.779C219.15 170.674 218.576 170.384 218.124 169.947C217.693 169.514 217.38 168.979 217.216 168.391C216.929 167.264 217.081 166.071 217.64 165.051C217.918 164.483 218.356 164.009 218.902 163.689C219.083 163.592 219.28 163.529 219.484 163.5C219.603 163.484 219.724 163.483 219.843 163.497C219.905 163.504 219.967 163.515 220.027 163.53L220.105 163.551L220.114 163.55C220.254 163.564 220.395 163.555 220.532 163.523C221.414 163.32 222.273 163.031 223.098 162.66C223.532 162.476 223.964 162.283 224.394 162.082L225.038 161.777C225.269 161.666 225.504 161.562 225.743 161.465C226.698 161.082 227.702 160.835 228.726 160.731C229.738 160.639 230.757 160.675 231.761 160.836C232.742 160.97 233.713 161.167 234.669 161.425C236.594 161.932 238.424 162.747 240.089 163.838C240.915 164.392 241.688 165.02 242.398 165.715C243.084 166.347 243.817 166.924 244.592 167.443C247.896 169.369 251.711 170.239 255.523 169.935L255.529 169.935C255.547 169.934 255.565 169.94 255.578 169.951C255.591 169.963 255.6 169.979 255.602 169.996C255.603 170.014 255.598 170.032 255.587 170.046C255.576 170.059 255.56 170.069 255.543 170.071C251.645 170.669 247.658 169.989 244.179 168.132C243.327 167.618 242.518 167.037 241.758 166.395C239.654 164.526 237.112 163.219 234.368 162.594C233.457 162.375 232.533 162.214 231.602 162.112C230.698 161.989 229.781 161.981 228.875 162.088C227.981 162.193 227.105 162.421 226.273 162.766C226.067 162.853 225.863 162.946 225.661 163.046L225.003 163.367C224.563 163.579 224.118 163.784 223.668 163.983C222.743 164.419 221.772 164.75 220.773 164.971C220.438 165.041 220.093 165.042 219.757 164.972L219.678 164.954C219.651 164.947 219.672 164.953 219.668 164.952L219.675 164.953C219.678 164.954 219.679 164.953 219.673 164.953C219.638 164.96 219.605 164.973 219.574 164.99C219.295 165.179 219.072 165.439 218.928 165.743C218.548 166.43 218.438 167.234 218.619 167.997C218.713 168.343 218.89 168.66 219.133 168.922C219.376 169.162 219.685 169.323 220.02 169.385C220.202 169.418 220.388 169.426 220.572 169.409C220.797 169.397 221.02 169.378 221.24 169.35C221.66 169.303 222.074 169.204 222.47 169.056C222.558 169.022 222.644 168.982 222.728 168.937C222.767 168.917 222.806 168.894 222.843 168.87L222.999 168.772C223.26 168.621 223.538 168.503 223.828 168.421C224.326 168.277 224.835 168.173 225.35 168.109C226.394 167.945 227.46 167.985 228.489 168.228C228.799 168.318 229.09 168.461 229.35 168.652C229.513 168.777 229.648 168.934 229.748 169.113C229.848 169.292 229.911 169.489 229.933 169.693C229.961 170.045 229.892 170.397 229.734 170.713C229.615 170.973 229.466 171.217 229.29 171.442C228.973 171.861 228.612 172.244 228.214 172.586C227.811 172.932 227.365 173.225 226.888 173.459C225.976 173.893 225.015 174.218 224.027 174.426C222.107 174.821 220.153 175.027 218.192 175.04C216.249 175.081 214.312 175.015 212.381 174.892C211.416 174.829 210.453 174.75 209.491 174.654L208.05 174.499C207.589 174.428 207.123 174.401 206.657 174.42C206.207 174.449 205.767 174.565 205.362 174.764C204.958 174.962 204.596 175.239 204.298 175.577C204.16 175.736 204.057 175.923 203.996 176.125C203.936 176.327 203.919 176.54 203.948 176.749C204.036 177.186 204.235 177.593 204.524 177.933C205.1 178.666 205.858 179.234 206.723 179.582C207.162 179.744 207.617 179.864 208.08 179.937L209.499 180.214C209.531 180.22 209.562 180.233 209.589 180.252C209.615 180.271 209.638 180.296 209.655 180.324L209.659 180.332C210.72 182.245 211.912 184.083 213.227 185.833C213.309 185.939 213.398 186.017 213.482 186.111C213.58 186.213 213.691 186.317 213.785 186.425C213.983 186.639 214.16 186.863 214.333 187.065C214.653 187.462 215.038 187.8 215.472 188.067C216.411 188.576 217.406 188.974 218.438 189.251C219.538 189.568 220.6 190.004 221.606 190.552C222.123 190.87 222.594 191.258 223.003 191.707C223.197 191.918 223.398 192.188 223.554 192.366C223.692 192.517 223.851 192.646 224.027 192.75C224.929 193.191 225.921 193.416 226.925 193.407C227.976 193.44 229.028 193.341 230.055 193.114C231.08 192.895 232.067 192.529 232.986 192.027C233.887 191.514 234.791 190.857 235.74 190.259C236.701 189.649 237.716 189.129 238.772 188.705C239.309 188.508 239.857 188.344 240.413 188.212L241.248 188.023L242.095 187.914C244.338 187.686 246.605 187.855 248.79 188.415C250.943 188.96 253.04 189.705 255.055 190.64C255.071 190.647 255.083 190.66 255.09 190.677C255.097 190.693 255.097 190.711 255.091 190.727C255.085 190.744 255.072 190.757 255.057 190.765C255.041 190.772 255.023 190.774 255.006 190.768L255.002 190.767Z" fill="black"/>
<path d="M209.448 180.447C210.783 180.333 212.118 180.279 213.452 180.235C214.787 180.184 216.122 180.177 217.456 180.17L219.458 180.184C220.146 180.184 220.831 180.279 221.493 180.465C222.761 180.915 223.997 181.45 225.193 182.066C224.548 181.882 223.917 181.664 223.279 181.464C222.663 181.227 222.033 181.032 221.391 180.879C220.756 180.748 220.107 180.691 219.458 180.71L217.456 180.724C216.122 180.717 214.787 180.71 213.452 180.659C212.118 180.615 210.783 180.561 209.448 180.447Z" fill="black"/>
<path d="M210.127 181.64C211.024 182.332 211.882 183.07 212.733 183.816C213.174 184.174 213.565 184.596 213.994 184.894C214.427 185.205 214.912 185.437 215.426 185.577C215.922 185.726 216.495 185.749 217.06 185.854C217.624 185.947 218.182 186.069 218.733 186.219C219.859 186.456 220.907 186.977 221.774 187.734C221.308 187.424 220.796 187.189 220.257 187.036C219.726 186.866 219.185 186.732 218.636 186.635C218.086 186.54 217.537 186.441 216.982 186.373C216.409 186.319 215.84 186.231 215.277 186.111C214.701 185.947 214.161 185.677 213.684 185.316C213.244 184.944 212.828 184.545 212.438 184.121C211.651 183.314 210.869 182.501 210.127 181.64Z" fill="black"/>
<path d="M197.514 163.896C197.071 163 196.531 162.156 195.903 161.379L196.009 161.448C194.957 161.283 193.977 160.813 193.191 160.096C192.78 159.681 192.528 159.136 192.476 158.555C192.45 158.267 192.463 157.976 192.514 157.691C192.584 157.42 192.669 157.152 192.769 156.89C193.249 155.868 194.094 155.062 195.138 154.632C195.66 154.383 196.229 154.247 196.807 154.232C197.429 154.228 198.038 154.419 198.546 154.778L197.645 155.067C197.782 154.693 197.971 154.341 198.205 154.019C198.427 153.704 198.687 153.417 198.979 153.165C199.569 152.661 200.269 152.303 201.023 152.119C201.751 151.945 202.505 151.906 203.247 152.004L203.777 152.072C203.983 152.103 204.186 152.153 204.383 152.223C204.749 152.347 205.1 152.513 205.429 152.716C206.671 153.519 207.664 154.652 208.297 155.989C208.918 157.255 209.37 158.596 209.642 159.98L208.349 160.059C208.461 159.179 208.726 158.325 209.132 157.536C209.536 156.723 210.139 156.025 210.884 155.507C211.646 155.008 212.532 154.734 213.442 154.714C213.66 154.705 213.877 154.712 214.094 154.733L214.418 154.754C214.544 154.759 214.67 154.78 214.792 154.815C215.23 154.945 215.643 155.147 216.015 155.412C217.35 156.46 218.336 157.888 218.846 159.507C219.384 161.04 219.732 162.633 219.884 164.251C219.528 162.691 219.018 161.171 218.361 159.712C217.762 158.29 216.777 157.065 215.516 156.175C215.219 155.992 214.895 155.854 214.557 155.766C214.485 155.749 214.41 155.742 214.336 155.746L214.057 155.743C213.164 155.698 212.281 155.951 211.546 156.461C210.997 156.918 210.545 157.483 210.22 158.12C209.894 158.757 209.702 159.454 209.653 160.167L209.653 160.172C209.636 160.326 209.565 160.47 209.453 160.577C209.34 160.684 209.193 160.748 209.038 160.757C208.883 160.766 208.73 160.719 208.606 160.626C208.481 160.533 208.394 160.398 208.36 160.246C208.098 158.986 207.674 157.765 207.098 156.613C206.56 155.506 205.742 154.559 204.725 153.866C204.483 153.712 204.223 153.586 203.953 153.49C203.833 153.444 203.708 153.411 203.582 153.391L203.11 153.325C202.515 153.239 201.909 153.259 201.32 153.383C200.756 153.501 200.228 153.75 199.778 154.109C199.338 154.467 198.988 154.923 198.758 155.442L198.73 155.507C198.672 155.645 198.56 155.755 198.421 155.811C198.281 155.867 198.125 155.866 197.986 155.807C197.94 155.787 197.896 155.761 197.856 155.73C197.519 155.501 197.127 155.366 196.72 155.341C196.313 155.315 195.907 155.399 195.544 155.584C194.698 155.883 193.989 156.478 193.548 157.26C193.32 157.627 193.209 158.054 193.23 158.485C193.252 158.916 193.405 159.331 193.669 159.672C194.318 160.372 195.155 160.87 196.079 161.108L196.102 161.115C196.136 161.125 196.165 161.147 196.185 161.177C196.75 162.018 197.197 162.933 197.514 163.896V163.896Z" fill="black"/>
<path d="M192.889 163.43C192.522 162.674 191.869 162.093 191.075 161.816C190.304 161.596 189.479 161.658 188.749 161.992C188.398 162.1 188.082 162.301 187.836 162.573C187.589 162.846 187.421 163.18 187.348 163.54C187.315 164.295 187.52 165.04 187.935 165.671C188.353 166.368 188.849 167.014 189.416 167.596C189.553 167.748 189.698 167.886 189.841 168.026L190.306 168.432C190.637 168.719 190.958 169.011 191.275 169.305C192.547 170.482 193.735 171.717 194.92 172.971C195.009 173.065 195.067 173.183 195.088 173.311L195.095 173.355C195.173 173.754 195.303 174.14 195.482 174.505C195.857 175.288 196.391 175.985 197.049 176.551C197.383 176.854 197.717 177.057 198.164 177.4C198.983 178.043 199.675 178.834 200.202 179.732C200.732 180.614 201.126 181.572 201.367 182.573L201.336 182.475C201.649 183.34 202.235 184.079 203.006 184.58C203.83 185.06 204.765 185.317 205.719 185.325C206.72 185.346 207.719 185.243 208.693 185.017C209.69 184.8 210.668 184.502 211.618 184.128C210.726 184.652 209.784 185.084 208.805 185.419C207.812 185.767 206.775 185.979 205.725 186.049C204.62 186.128 203.515 185.908 202.525 185.412C202.024 185.134 201.575 184.773 201.195 184.345C200.829 183.913 200.523 183.433 200.287 182.918L200.274 182.886L200.255 182.82C200.002 181.961 199.627 181.143 199.143 180.391C198.664 179.647 198.061 178.991 197.36 178.451C197.045 178.21 196.556 177.907 196.174 177.567C195.772 177.229 195.406 176.85 195.082 176.435C194.752 176.02 194.471 175.567 194.244 175.088C194.004 174.586 193.839 174.053 193.752 173.504L193.927 173.888C192.78 172.64 191.595 171.409 190.408 170.207C190.108 169.909 189.806 169.615 189.501 169.331L189.015 168.875C188.858 168.711 188.7 168.547 188.555 168.377C187.962 167.699 187.453 166.952 187.038 166.153C186.554 165.314 186.371 164.335 186.519 163.378C186.573 163.126 186.667 162.885 186.799 162.665C186.941 162.456 187.102 162.261 187.279 162.082L187.875 161.672L188.514 161.41C189.388 161.1 190.346 161.128 191.201 161.487C191.601 161.677 191.957 161.948 192.248 162.283C192.538 162.617 192.757 163.008 192.889 163.43V163.43Z" fill="black"/>
<path d="M194.424 173.429C194.214 172.671 194.229 171.868 194.466 171.118C194.579 170.726 194.78 170.365 195.054 170.063C195.188 169.908 195.354 169.783 195.54 169.697C195.726 169.61 195.928 169.564 196.133 169.561C195.828 169.752 195.576 170.015 195.397 170.326C195.224 170.628 195.088 170.95 194.994 171.285C194.775 171.963 194.641 172.681 194.424 173.429Z" fill="black"/>
<path d="M196.043 161.279C196.514 161.164 196.899 161.083 197.308 161.003C197.735 160.907 198.17 160.85 198.607 160.834C198.31 161.21 197.885 161.464 197.413 161.547C197.179 161.602 196.935 161.607 196.699 161.56C196.463 161.514 196.239 161.419 196.043 161.279V161.279Z" fill="black"/>
<path d="M198.545 155.253C198.537 155.848 198.615 156.442 198.777 157.015C198.921 157.586 199.226 158.105 199.656 158.508C199.883 158.7 200.148 158.843 200.432 158.929C200.717 159.015 201.017 159.042 201.312 159.009C201.62 158.984 201.925 158.933 202.224 158.858L203.106 158.54L202.251 158.94C201.951 159.045 201.643 159.125 201.329 159.179C201.005 159.243 200.67 159.241 200.347 159.172C200.023 159.103 199.716 158.97 199.446 158.779C198.916 158.369 198.515 157.814 198.291 157.182C198.054 156.565 197.908 155.917 197.86 155.259C197.856 155.213 197.86 155.168 197.874 155.124C197.888 155.081 197.91 155.041 197.939 155.006C197.969 154.971 198.005 154.943 198.045 154.922C198.085 154.901 198.13 154.889 198.175 154.885C198.22 154.882 198.266 154.887 198.309 154.901C198.352 154.916 198.392 154.938 198.427 154.968C198.461 154.998 198.489 155.034 198.509 155.075C198.529 155.116 198.541 155.16 198.544 155.205C198.545 155.216 198.545 155.226 198.545 155.236L198.545 155.253Z" fill="black"/>
<path d="M201.306 159.125C201.782 159.849 202.202 160.609 202.563 161.397C202.967 162.19 203.244 163.042 203.382 163.921C203.421 164.085 203.499 164.236 203.61 164.363C203.72 164.49 203.86 164.588 204.016 164.65C204.375 164.83 204.759 164.953 205.156 165.014C205.561 165.089 205.976 165.092 206.382 165.025C206.802 164.989 207.191 164.793 207.469 164.478C207.364 164.676 207.219 164.851 207.043 164.991C206.867 165.131 206.664 165.232 206.447 165.289C206.014 165.417 205.561 165.468 205.111 165.439C204.65 165.418 204.198 165.309 203.779 165.118C203.534 165.022 203.319 164.865 203.152 164.662C202.986 164.459 202.875 164.216 202.829 163.958C202.691 163.137 202.47 162.332 202.17 161.556L201.306 159.125Z" fill="black"/>
<path d="M209.675 160.003C209.826 161.073 210.166 162.108 210.679 163.06C210.807 163.287 210.953 163.505 211.115 163.71C211.32 163.957 211.503 164.222 211.659 164.503C211.816 164.787 211.942 165.088 212.034 165.399C212.128 165.728 212.172 166 212.237 166.271C212.27 166.513 212.337 166.749 212.434 166.973C212.568 167.175 212.737 167.351 212.933 167.493C213.127 167.645 213.348 167.756 213.585 167.821C213.822 167.886 214.069 167.904 214.313 167.873C214.826 167.766 215.288 167.488 215.622 167.083C215.997 166.667 216.317 166.203 216.572 165.705L216.558 165.749C216.729 164.942 216.843 164.124 216.899 163.301C216.974 162.475 216.918 161.643 216.736 160.834C216.978 161.635 217.095 162.469 217.08 163.306C217.084 164.145 217.028 164.984 216.914 165.816C216.912 165.828 216.908 165.84 216.903 165.852L216.899 165.86C216.664 166.412 216.358 166.932 215.988 167.405C215.608 167.928 215.06 168.305 214.436 168.474C214.108 168.543 213.769 168.546 213.44 168.482C213.11 168.419 212.796 168.291 212.517 168.105C212.229 167.926 211.976 167.696 211.771 167.426C211.658 167.277 211.577 167.107 211.53 166.926L211.401 166.498C211.286 165.972 211.084 165.469 210.805 165.009C210.663 164.793 210.5 164.59 210.32 164.404C210.104 164.169 209.907 163.918 209.73 163.652C209.058 162.604 208.581 161.443 208.322 160.225C208.302 160.137 208.299 160.046 208.314 159.958C208.329 159.869 208.362 159.784 208.409 159.707C208.457 159.631 208.52 159.565 208.593 159.512C208.666 159.46 208.749 159.423 208.837 159.403C208.925 159.382 209.016 159.38 209.105 159.395C209.194 159.41 209.279 159.442 209.355 159.49C209.432 159.538 209.498 159.6 209.55 159.673C209.602 159.747 209.64 159.83 209.66 159.918C209.664 159.934 209.667 159.95 209.669 159.967L209.675 160.003Z" fill="black"/>
<path d="M208.41 172.012C208.437 172.012 208.458 172.019 208.485 172.019L208.547 172.06L208.41 172.012Z" fill="black"/>
<path d="M222.316 171.087C210.542 169.298 199.445 164.734 196.69 163.548C196.213 163.339 195.702 163.216 195.182 163.185C192.674 163.054 191.81 163.87 191.577 164.713C191.473 165.12 191.502 165.55 191.662 165.939C191.821 166.328 192.101 166.655 192.461 166.872L204.709 174.576L204.716 174.569C205.333 173.827 206.048 173.172 206.841 172.622C206.551 173.231 206.195 173.806 205.778 174.336C206.918 174.023 208.122 174.027 209.26 174.349C223.44 175.693 227.004 172.732 227.004 172.732C225.483 171.313 222.316 171.087 222.316 171.087ZM211.974 169.915L214.853 172.012L208.253 171.025L202.31 167.043L211.974 169.915ZM215.675 173.472C213.221 173.246 210.775 172.965 208.328 172.691C208.28 172.682 208.234 172.666 208.191 172.643C205.929 171.279 203.674 169.901 201.44 168.489L198.088 166.358C196.992 165.625 195.874 164.919 194.785 164.165C195.957 164.782 197.108 165.433 198.266 166.063L201.714 168.03C203.989 169.326 206.237 170.669 208.485 172.019C210.898 172.314 213.324 172.615 215.737 172.958C218.17 173.301 220.61 173.657 223.036 174.082C220.576 173.931 218.122 173.705 215.675 173.472H215.675Z" fill="black"/>
<path d="M208.547 172.06L208.41 172.012C208.437 172.012 208.458 172.019 208.485 172.019L208.547 172.06Z" fill="white"/>
<path d="M125.054 73.7424C125.054 73.7424 123.294 72.6865 121.651 74.5637C121.651 74.5637 118.718 70.396 106.282 74.0051C106.282 74.0051 107.924 77.1449 109.097 77.1449C110.271 77.1449 106.868 82.5419 103.7 82.3072C103.7 82.3072 98.3034 90.168 102.41 97.7942C106.457 105.311 109.365 107.698 113.379 102.823C113.502 102.672 113.64 102.532 113.79 102.407C114.944 101.455 120.055 97.4968 121.867 100.449C122.252 101.104 122.363 101.886 122.174 102.623C121.347 106.086 117.48 118.841 106.282 113.75C106.282 113.75 93.2307 108.856 96.309 97.2624C96.6381 96.0831 97.1155 94.9504 97.7296 93.8913C98.3217 92.8093 98.6866 91.6179 98.802 90.3899C98.9173 89.1619 98.7807 87.9234 98.4004 86.7501C97.9286 85.0774 96.8643 83.6335 95.4062 82.6879C93.9925 81.8061 92.1289 81.4119 90.7173 83.8776C90.133 84.9034 89.825 86.0633 89.8234 87.2438C89.8207 88.3243 90.0217 89.6495 90.9119 90.2854L89.8233 92.3972C89.2314 91.1926 88.4743 90.0764 87.574 89.0809C86.0665 87.5541 85.0981 85.5772 84.8156 83.4502C84.4171 80.076 84.8969 75.0379 88.9174 69.1667C88.9174 69.1667 94.3144 58.3728 104.404 58.6074C114.494 58.8421 123.176 61.5405 125.054 73.7424Z" fill="black"/>
<path d="M108.159 87.8214C109.911 87.4207 111.712 87.2723 113.507 87.3808C114.411 87.4258 115.308 87.5619 116.184 87.787C117.079 87.9789 117.91 88.3944 118.601 88.9947C117.804 88.6245 116.952 88.3848 116.079 88.2846C115.217 88.1606 114.346 88.0704 113.468 88.0311C111.714 87.9223 109.95 87.914 108.159 87.8214Z" fill="black"/>
<path d="M125.054 87.654C124.412 87.8491 123.818 88.1763 123.31 88.6146C123.07 88.8132 122.874 89.0603 122.735 89.3398C122.596 89.6193 122.518 89.9249 122.505 90.2367C122.553 90.8763 122.72 91.5013 122.999 92.0786L123.767 93.9648C124.339 95.241 124.672 96.6117 124.748 98.0083C124.747 98.3762 124.679 98.7409 124.548 99.0849C124.408 99.4331 124.179 99.7382 123.883 99.9695C123.282 100.348 122.573 100.516 121.867 100.449C122.529 100.392 123.16 100.14 123.678 99.7239C123.891 99.4969 124.052 99.226 124.149 98.9303C124.246 98.6346 124.276 98.3213 124.239 98.0123C124.189 97.359 124.056 96.7147 123.845 96.0945C123.647 95.4594 123.412 94.83 123.16 94.2029C122.919 93.5712 122.658 92.9431 122.424 92.2962C122.311 91.9696 122.197 91.6439 122.109 91.2996C122 90.9436 121.962 90.5692 122 90.1986C122.039 89.83 122.159 89.4746 122.352 89.1578C122.544 88.8409 122.804 88.5705 123.113 88.3656C123.694 87.9772 124.359 87.7332 125.054 87.654V87.654Z" fill="black"/>
<path d="M125.054 73.7424C125.274 75.0575 125.437 76.3797 125.544 77.709C125.666 79.036 125.742 80.3671 125.771 81.7021C125.791 83.0369 125.771 84.3742 125.667 85.7125C125.606 87.0766 125.301 88.4188 124.767 89.6757C124.76 89.6913 124.75 89.7057 124.738 89.7185C124.326 90.1618 123.94 90.628 123.58 91.1148C123.402 91.3586 123.243 91.6162 123.106 91.8852C122.953 92.1471 122.892 92.4525 122.932 92.7531C122.838 92.4507 122.855 92.1246 122.98 91.8337C123.088 91.5401 123.219 91.2557 123.372 90.9831C123.679 90.4398 124.033 89.9249 124.431 89.4444L124.401 89.487C124.629 88.8868 124.78 88.2605 124.852 87.6227C124.954 86.9793 124.995 86.3222 125.043 85.6674C125.121 84.3531 125.134 83.0308 125.142 81.7079C125.142 79.06 125.084 76.4071 125.054 73.7424Z" fill="black"/>
<path d="M118.014 96.7383C117.89 96.993 117.79 97.2585 117.715 97.5316C117.639 97.7838 117.622 98.0503 117.666 98.3101C117.703 98.5676 117.815 98.8083 117.99 99.0014C118.174 99.2145 118.379 99.4091 118.601 99.5823C118.459 99.5402 118.319 99.4902 118.183 99.4324C118.05 99.3593 117.924 99.273 117.809 99.1749C117.567 98.9652 117.403 98.6793 117.345 98.3644C117.304 98.0523 117.351 97.735 117.48 97.4481C117.601 97.1733 117.784 96.9303 118.014 96.7383V96.7383Z" fill="black"/>
<path d="M90.9119 90.2853C91.318 90.7949 91.642 91.3649 91.8722 91.9746C91.9956 92.2858 92.0849 92.6095 92.1384 92.9399C92.1672 93.1132 92.1787 93.2888 92.1726 93.4644L92.1692 93.5994L92.1772 93.6727C92.1742 93.7204 92.1846 93.768 92.2073 93.81C92.308 94.0246 92.4857 94.1935 92.7052 94.2831C92.9658 94.4162 93.2403 94.5202 93.5237 94.5931C94.1264 94.7556 94.7463 94.8455 95.3703 94.861C94.7539 95.1026 94.086 95.1824 93.4301 95.0931C93.0877 95.0582 92.7525 94.9723 92.4356 94.8383C92.2492 94.7659 92.0789 94.6574 91.9346 94.5189C91.7902 94.3805 91.6747 94.2149 91.5947 94.0316C91.5526 93.9283 91.532 93.8176 91.5342 93.7061L91.5319 93.5415L91.5369 93.4387C91.5442 93.2968 91.541 93.1545 91.5274 93.013C91.5014 92.7125 91.4544 92.4141 91.3869 92.12C91.2539 91.5172 91.0787 90.9111 90.9119 90.2853Z" fill="black"/>
<path d="M89.8234 92.3972C89.5615 93.3462 89.1924 94.2622 88.723 95.1275C88.2636 96.0056 87.709 96.8305 87.0691 97.5873C86.429 98.3583 85.6697 99.0221 84.8201 99.5535C83.9682 100.082 82.9933 100.378 81.9916 100.414C82.9083 100.138 83.7696 99.7043 84.5364 99.1314C85.2867 98.5542 85.9699 97.8946 86.573 97.1649C87.1925 96.4363 87.7653 95.6691 88.2878 94.868C88.8138 94.0633 89.3361 93.2473 89.8234 92.3972Z" fill="black"/>
<path d="M98.4208 119.851C99.1621 119.526 99.8632 119.116 100.51 118.629C101.151 118.15 101.76 117.628 102.331 117.067C102.92 116.523 103.449 115.915 103.998 115.319L104.797 114.397C105.057 114.082 105.316 113.765 105.602 113.461C105.439 113.842 105.249 114.209 105.059 114.579C104.845 114.933 104.634 115.291 104.398 115.633C103.922 116.318 103.381 116.956 102.783 117.537C102.182 118.123 101.51 118.632 100.785 119.054C100.065 119.491 99.2579 119.763 98.4208 119.851V119.851Z" fill="black"/>
<path d="M86.6831 97.3757C86.0993 96.5105 85.3772 95.7473 84.5456 95.1165C84.3725 94.9635 84.1628 94.8579 83.9368 94.81C83.7109 94.7621 83.4763 94.7734 83.2561 94.8429C82.8669 95.1073 82.5876 95.5046 82.4705 95.9603C82.3102 96.4461 82.1947 96.9456 82.1255 97.4525C82.0906 97.7047 82.0597 97.9671 82.0369 98.2095C82.0383 98.4405 82.0585 98.7117 82.0817 98.964C82.1826 99.9987 82.3744 101.022 82.6548 102.023C83.1713 104.06 83.9734 106.014 85.0375 107.826C86.1157 109.637 87.4054 111.313 88.8796 112.82C89.6187 113.567 90.387 114.287 91.1667 114.989C91.9765 115.657 92.7502 116.374 93.5931 116.988C93.9998 117.316 94.4481 117.583 94.8727 117.883C95.3223 118.142 95.7539 118.435 96.2222 118.655C97.127 119.147 98.0895 119.524 99.0874 119.778C101.08 120.307 103.198 120.084 105.038 119.153C106.887 118.166 108.44 116.705 109.538 114.92C109.542 114.912 109.549 114.906 109.557 114.904C109.565 114.901 109.574 114.902 109.582 114.906C109.589 114.91 109.594 114.917 109.597 114.925C109.599 114.933 109.599 114.942 109.596 114.95C108.641 116.888 107.14 118.505 105.279 119.603C104.325 120.143 103.276 120.495 102.189 120.638C101.099 120.767 99.9946 120.697 98.9294 120.431C97.8718 120.18 96.8539 119.784 95.9043 119.255C95.4195 119.015 94.9793 118.703 94.5193 118.424C94.0876 118.106 93.6308 117.82 93.2212 117.475C92.3627 116.83 91.611 116.077 90.8165 115.369C90.4113 115.025 90.0679 114.613 89.6959 114.234C89.3375 113.841 88.9495 113.477 88.6166 113.061C87.2275 111.456 85.9661 109.744 84.8439 107.942C83.7012 106.14 82.791 104.2 82.1351 102.17C81.815 101.143 81.6059 100.084 81.5115 99.0122C81.4936 98.7376 81.4774 98.4815 81.4834 98.1836C81.5145 97.9013 81.5527 97.6388 81.596 97.3685C81.6823 96.8296 81.8182 96.2998 82.0019 95.7858C82.0846 95.5021 82.2229 95.2378 82.4088 95.0082C82.5947 94.7786 82.8245 94.5882 83.0847 94.4483C83.3773 94.3336 83.7012 94.327 83.9982 94.4297C84.2682 94.5222 84.5204 94.6603 84.7437 94.838C85.5636 95.5366 86.241 96.3868 86.7389 97.3419C86.7411 97.3456 86.7424 97.3497 86.7429 97.354C86.7435 97.3582 86.7432 97.3625 86.742 97.3666C86.7409 97.3708 86.739 97.3746 86.7363 97.378C86.7337 97.3813 86.7304 97.3842 86.7267 97.3863C86.7194 97.39 86.711 97.391 86.703 97.3891C86.695 97.3871 86.6879 97.3824 86.6831 97.3757V97.3757Z" fill="black"/>
<path d="M88.6653 94.6128C87.6177 93.9678 86.4493 93.544 85.2318 93.3676C84.0325 93.1485 82.7943 93.3702 81.7456 93.992C81.251 94.3356 80.8352 94.7805 80.5256 95.297L79.4612 96.8259C78.7567 97.865 77.9678 98.8443 77.1025 99.7538C77.0823 99.7737 77.0582 99.7892 77.0317 99.7992C77.0052 99.8093 76.9769 99.8136 76.9486 99.8121L76.9328 99.8111C72.5482 99.5514 68.1487 99.4473 63.7606 99.4769C61.5662 99.4951 59.374 99.5831 57.1945 99.7543C55.0318 99.874 52.8904 100.246 50.8138 100.862L50.7771 100.872L50.7269 100.883C49.5776 101.177 48.4828 101.653 47.4844 102.294C46.965 102.609 46.4652 102.955 45.9878 103.33L45.2644 103.887C45.031 104.082 44.811 104.295 44.5836 104.499C42.7719 106.154 41.1624 108.018 39.7885 110.052C37.031 114.153 34.7772 118.572 33.0756 123.212C32.655 124.376 32.1945 125.525 31.8064 126.701L30.6959 130.248C30.3201 131.416 29.984 132.654 29.5463 133.837C29.1206 135.031 28.6226 136.186 28.1459 137.333L26.6781 140.779L25.9137 142.496C25.6532 143.09 25.3629 143.67 25.0438 144.235C24.979 144.34 24.9054 144.44 24.8239 144.533C24.8704 144.535 24.8744 144.428 24.877 144.471C24.8696 144.538 24.8724 144.606 24.8854 144.672C24.9343 144.914 25.0179 145.148 25.1337 145.367C25.3898 145.856 25.7318 146.295 26.1433 146.663C26.9837 147.419 28.0347 147.899 29.1556 148.04L28.715 149.11C28.0236 148.57 27.3693 147.984 26.7563 147.357C26.4204 147.018 26.1275 146.64 25.8842 146.23C25.8109 146.097 25.7526 145.956 25.7106 145.809C25.6885 145.713 25.6736 145.615 25.6659 145.516C25.6659 145.387 25.6879 145.259 25.731 145.137C25.7802 145.006 25.8592 144.888 25.9617 144.793C26.0093 144.749 26.0594 144.707 26.1118 144.668C26.1572 144.642 26.2014 144.621 26.2475 144.599C26.4018 144.529 26.5664 144.483 26.7351 144.464C27.2174 144.429 27.702 144.463 28.1746 144.565C28.6162 144.645 29.0388 144.753 29.4599 144.863L30.7151 145.262L31.9293 145.749C35.1007 147.18 37.9134 149.08 40.8414 150.751C43.7503 152.45 46.7589 153.972 49.8507 155.31C52.9527 156.631 56.1232 157.785 59.3486 158.767L59.3524 158.769C59.4408 158.796 59.5173 158.853 59.5691 158.929C59.6209 159.006 59.6449 159.098 59.6373 159.19C59.358 162.342 59.2448 165.506 59.2983 168.669C59.3202 170.242 59.4546 171.812 59.7005 173.365C59.8175 174.124 60.0353 174.863 60.3483 175.563C60.4939 175.879 60.7118 176.155 60.9844 176.371C61.0542 176.401 61.1218 176.433 61.1894 176.469C61.2606 176.491 61.3366 176.49 61.4095 176.507C61.5734 176.526 61.7971 176.515 61.988 176.52L81.0549 176.572C87.4104 176.603 93.7657 176.569 100.121 176.561L119.188 176.497L118.968 176.594C120.266 175.226 121.687 173.981 123.213 172.873C124.735 171.749 126.389 170.815 128.137 170.091C129.904 169.347 131.803 168.966 133.72 168.97C134.693 168.988 135.66 169.128 136.597 169.388L139.239 170.273C140.122 170.559 141.007 170.839 141.894 171.097C142.747 171.384 143.63 171.575 144.525 171.665C145.52 171.777 146.482 172.089 147.353 172.583C147.811 172.827 148.225 173.147 148.577 173.529C148.774 173.739 148.927 173.988 149.026 174.259C149.125 174.53 149.169 174.819 149.154 175.107C149.179 175.598 149.162 176.091 149.104 176.58C149.043 177.147 148.804 177.68 148.42 178.102C148.006 178.51 147.461 178.759 146.882 178.804C146.373 178.858 145.858 178.842 145.353 178.756C144.871 178.68 144.395 178.572 143.928 178.431L142.595 178.028C142.169 177.906 141.736 177.812 141.297 177.745C140.935 177.671 140.56 177.674 140.199 177.756L140.33 176.848C142.094 178.084 144.165 178.806 146.314 178.937C147.401 178.994 148.49 178.932 149.563 178.75C150.67 178.599 151.769 178.413 152.885 178.227C153.447 178.138 154.005 178.04 154.623 178.001C154.962 177.973 155.302 177.993 155.635 178.06C156.037 178.146 156.401 178.36 156.67 178.671C156.903 178.947 157.081 179.264 157.195 179.606C157.522 180.525 157.571 181.52 157.335 182.466C157.169 183.094 156.874 183.681 156.468 184.188C156.062 184.695 155.555 185.112 154.978 185.412C153.897 185.966 152.722 186.311 151.513 186.428L152.04 186.031C151.758 186.675 151.408 187.287 150.996 187.857C150.586 188.432 150.109 188.957 149.575 189.419C149.013 189.889 148.375 190.258 147.688 190.51C146.98 190.748 146.233 190.843 145.488 190.789L146.052 190.558C144.907 191.892 143.783 193.202 142.493 194.464C142.328 194.62 142.154 194.778 141.96 194.935C141.761 195.086 141.552 195.225 141.335 195.351C140.928 195.58 140.505 195.78 140.069 195.949C139.22 196.28 138.341 196.531 137.446 196.701C135.672 197.032 133.861 197.115 132.064 196.949C131.616 196.918 131.174 196.845 130.728 196.794L129.408 196.563L128.171 196.361L126.912 196.23C123.484 196.053 120.047 196.164 116.638 196.561C113.205 196.909 109.781 197.427 106.375 198.03C104.685 198.331 103.011 198.728 101.306 199.104C99.6076 199.481 97.9038 199.848 96.1954 200.193C92.777 200.876 89.3437 201.498 85.8901 201.992C78.9843 203.018 72.0165 203.569 65.0354 203.642C64.1629 203.645 63.2907 203.678 62.4182 203.657L59.801 203.598C58.0556 203.586 56.3139 203.462 54.5719 203.358C52.8278 203.284 51.0929 203.082 49.3561 202.913C48.4838 202.816 47.6295 202.763 46.7398 202.625C45.8589 202.488 44.9869 202.3 44.1281 202.061C40.6595 201.126 37.5132 199.258 35.0302 196.662C32.5438 194.051 30.9716 190.704 30.5495 187.124C29.7853 180.184 29.4785 173.235 29.3045 166.283C29.1527 159.33 29.1337 152.379 29.2474 145.428C29.2476 145.41 29.255 145.392 29.2679 145.379C29.2809 145.367 29.2984 145.36 29.3166 145.36C29.3348 145.36 29.3521 145.367 29.3649 145.38C29.3776 145.393 29.3847 145.411 29.3845 145.429C29.4136 152.377 29.5736 159.322 29.8645 166.264C30.1719 173.199 30.5513 180.146 31.4133 187.012C31.8558 190.387 33.3834 193.528 35.7657 195.96C38.1396 198.393 41.1327 200.133 44.4222 200.99C45.2395 201.21 46.069 201.382 46.9065 201.504C47.7353 201.627 48.6175 201.677 49.4726 201.763C51.1954 201.917 52.9151 202.102 54.6448 202.161C56.3722 202.248 58.0983 202.357 59.8289 202.354L62.4229 202.39C63.2875 202.403 64.1525 202.363 65.017 202.352L67.6108 202.299L70.2021 202.166C71.9306 202.097 73.6541 201.946 75.3784 201.807C77.1049 201.695 78.8212 201.465 80.5429 201.297C82.2595 201.083 83.9771 200.872 85.6883 200.615C89.1136 200.118 92.5198 199.495 95.9142 198.811C97.611 198.465 99.3033 198.097 100.997 197.717C102.684 197.342 104.391 196.934 106.122 196.623C109.557 196.008 113.009 195.479 116.489 195.12C119.986 194.705 123.512 194.601 127.026 194.81L128.358 194.955L129.692 195.18L130.937 195.404C131.355 195.453 131.77 195.524 132.189 195.555C133.856 195.718 135.538 195.649 137.187 195.351C138 195.201 138.797 194.978 139.569 194.683C139.945 194.54 140.309 194.37 140.66 194.175C140.82 194.084 140.974 193.983 141.122 193.874C141.266 193.758 141.415 193.625 141.566 193.483C142.767 192.321 143.919 190.998 145.041 189.702C145.107 189.626 145.188 189.565 145.28 189.525C145.372 189.485 145.471 189.466 145.572 189.469L145.605 189.47C146.163 189.511 146.724 189.442 147.257 189.268C147.795 189.071 148.295 188.783 148.737 188.418C149.19 188.027 149.595 187.585 149.944 187.099C150.298 186.614 150.601 186.094 150.848 185.546L150.85 185.542C150.896 185.437 150.969 185.345 151.061 185.276C151.153 185.207 151.262 185.163 151.376 185.149C152.413 185.054 153.424 184.768 154.357 184.303C154.786 184.09 155.164 183.789 155.468 183.419C155.772 183.048 155.994 182.618 156.12 182.156C156.243 181.689 156.269 181.203 156.196 180.726C156.15 180.285 155.996 179.862 155.746 179.495C155.648 179.372 155.509 179.289 155.354 179.262C155.134 179.22 154.909 179.207 154.686 179.225C154.179 179.252 153.625 179.339 153.074 179.421C151.967 179.594 150.843 179.772 149.717 179.914C148.565 180.094 147.397 180.147 146.233 180.072C143.859 179.906 141.58 179.076 139.656 177.677L139.646 177.669C139.57 177.614 139.512 177.538 139.476 177.451C139.44 177.364 139.429 177.269 139.444 177.177C139.458 177.084 139.498 176.997 139.559 176.925C139.62 176.853 139.699 176.8 139.788 176.77C140.328 176.608 140.901 176.585 141.453 176.703C141.935 176.781 142.411 176.89 142.879 177.029L144.216 177.448C144.639 177.581 145.071 177.684 145.508 177.758C146.351 177.902 147.268 177.886 147.719 177.416C148.195 176.952 148.224 176.036 148.202 175.12C148.206 175.016 148.202 174.911 148.19 174.807C148.189 174.732 148.172 174.657 148.141 174.588C148.08 174.423 147.987 174.272 147.869 174.143C147.589 173.838 147.261 173.583 146.898 173.386C146.147 172.951 145.318 172.67 144.458 172.557C143.501 172.453 142.558 172.241 141.648 171.926C140.75 171.654 139.862 171.364 138.976 171.066L136.33 170.149C135.473 169.908 134.591 169.773 133.701 169.747C131.886 169.727 130.084 170.07 128.403 170.757C125.007 172.194 121.945 174.317 119.407 176.993L119.398 177.003C119.37 177.03 119.337 177.053 119.301 177.068C119.265 177.083 119.226 177.09 119.187 177.09L100.122 177.026C93.7675 177.018 87.4125 176.984 81.0578 177.015L61.9936 177.067C61.7879 177.064 61.6125 177.08 61.3818 177.061C61.2586 177.051 61.1365 177.03 61.0164 177.001L60.6823 176.846C60.319 176.582 60.0267 176.231 59.8312 175.826C59.4822 175.08 59.2355 174.29 59.098 173.478C58.8244 171.896 58.6647 170.296 58.6202 168.691C58.522 165.499 58.5922 162.305 58.8306 159.121L59.1192 159.544C55.8488 158.596 52.6318 157.474 49.482 156.181C46.336 154.869 43.2717 153.37 40.3058 151.69C37.3267 150.053 34.4911 148.152 31.4697 146.81L30.324 146.356L29.1566 145.99C28.7582 145.887 28.3588 145.788 27.9665 145.719C27.61 145.643 27.245 145.613 26.8809 145.632C26.8323 145.645 26.7472 145.655 26.759 145.661L26.7511 145.659C26.7632 145.656 26.7742 145.65 26.7824 145.64C26.7882 145.622 26.8281 145.594 26.8351 145.554C26.8558 145.391 26.8344 145.544 26.9249 145.668C27.1208 145.983 27.3525 146.274 27.6155 146.536C28.1897 147.117 28.8017 147.66 29.4475 148.161L29.4531 148.165C29.5561 148.246 29.6297 148.359 29.6627 148.486C29.6956 148.612 29.686 148.747 29.6353 148.867C29.5847 148.988 29.4958 149.089 29.3822 149.155C29.2687 149.22 29.1369 149.247 29.0068 149.23C27.6376 149.063 26.3524 148.48 25.324 147.56C24.8037 147.097 24.371 146.543 24.0466 145.927C23.8697 145.594 23.7443 145.237 23.6744 144.868C23.6288 144.628 23.6352 144.38 23.693 144.143C23.7404 143.966 23.8287 143.803 23.9507 143.667C23.9643 143.629 23.9553 143.664 23.9993 143.584C24.2685 143.12 24.5413 142.531 24.7988 141.982L25.5629 140.289L27.0416 136.868C27.527 135.717 28.0215 134.586 28.438 133.435C28.8712 132.282 29.1934 131.115 29.586 129.913L30.7271 126.335C31.1258 125.148 31.5982 123.985 32.0303 122.809C33.7877 118.095 36.1065 113.61 38.9367 109.451C39.6579 108.415 40.4313 107.416 41.2537 106.458C42.0917 105.507 42.9887 104.61 43.9394 103.771C44.1787 103.562 44.41 103.345 44.6561 103.144L45.4205 102.571C45.9277 102.183 46.4579 101.826 47.0081 101.502C48.1175 100.808 49.3355 100.305 50.6114 100.014L50.5247 100.035C52.678 99.4202 54.8962 99.0611 57.1336 98.9654C59.3427 98.8202 61.5515 98.7605 63.7575 98.7702C68.1707 98.7795 72.5722 99.0031 76.9674 99.3536L76.7979 99.4107C77.658 98.5397 78.4465 97.6007 79.1554 96.6027L80.2479 95.1038C80.5919 94.562 81.046 94.0986 81.5808 93.7438C82.1216 93.3951 82.7373 93.1797 83.3775 93.1151C84.0047 93.0407 84.6392 93.0532 85.263 93.1523C86.5027 93.3587 87.6868 93.8172 88.7421 94.4994C88.7573 94.5091 88.7681 94.5244 88.7721 94.542C88.7761 94.5596 88.773 94.5781 88.7634 94.5934C88.7539 94.6087 88.7387 94.6196 88.7211 94.6238C88.7036 94.6279 88.6851 94.625 88.6697 94.6156L88.6653 94.6128Z" fill="black"/>
<path d="M56.479 106.242C57.3335 106.484 58.1089 106.948 58.7268 107.585C59.3636 108.213 59.8729 108.958 60.2267 109.78C60.5811 110.597 60.7804 111.472 60.8143 112.362C60.8313 112.8 60.8089 113.238 60.7473 113.672C60.6727 114.102 60.5589 114.525 60.4073 114.935C60.2552 114.511 60.1866 114.102 60.0749 113.702C59.955 113.304 59.8831 112.909 59.7499 112.531C59.5373 111.78 59.2766 111.043 58.9696 110.325C58.6616 109.612 58.3014 108.922 57.8921 108.261C57.4633 107.56 56.9914 106.885 56.479 106.242V106.242Z" fill="black"/>
<path d="M59.4686 122.667C59.7327 125.71 59.8615 128.751 59.9427 131.793C60.0325 134.834 60.0421 137.875 60.0363 140.916C60.0048 143.956 59.956 146.997 59.8275 150.037C59.7075 153.077 59.5388 156.117 59.2339 159.156C58.9682 156.113 58.8386 153.071 58.7578 150.03C58.6683 146.989 58.6587 143.948 58.6663 140.907C58.6995 137.866 58.7482 134.826 58.8772 131.786C58.9975 128.746 59.1654 125.706 59.4686 122.667Z" fill="black"/>
<path d="M122.214 102.568C124.724 104.138 127.188 105.774 129.606 107.475C130.817 108.324 132.017 109.189 133.207 110.069L134.979 111.422C135.29 111.655 135.582 111.911 135.854 112.189L136.275 112.628L136.63 113.077C137.548 114.261 138.386 115.506 139.137 116.802C139.894 118.08 140.631 119.365 141.347 120.66C142.763 123.26 144.221 125.831 145.722 128.373C146.472 129.645 147.237 130.909 148.016 132.164L149.182 134.046C149.527 134.661 149.938 135.238 150.406 135.765C150.903 136.253 151.494 136.735 152.009 137.342C152.618 137.976 152.985 138.805 153.045 139.683C152.999 140.583 152.607 141.431 151.951 142.048C151.67 142.332 151.376 142.6 151.067 142.853C150.792 143.076 150.524 143.309 150.261 143.55C149.734 144.034 149.249 144.543 148.755 145.091C148.253 145.646 147.732 146.185 147.204 146.717C146.139 147.781 145.007 148.777 143.816 149.7C142.602 150.64 141.281 151.432 139.879 152.059C139.144 152.37 138.372 152.584 137.582 152.695C136.752 152.818 135.904 152.745 135.108 152.48C134.981 152.442 134.873 152.358 134.805 152.244L134.8 152.237C134.286 151.385 133.722 150.535 133.153 149.703C132.584 148.868 131.987 148.052 131.364 147.257C130.739 146.468 130.071 145.713 129.362 144.997C128.68 144.261 127.845 143.683 126.915 143.305L126.91 143.303C126.894 143.297 126.88 143.286 126.872 143.27C126.864 143.255 126.863 143.237 126.867 143.221C126.872 143.204 126.882 143.19 126.897 143.18C126.912 143.171 126.93 143.168 126.946 143.172C127.962 143.434 128.901 143.933 129.687 144.628C130.493 145.28 131.248 145.991 131.945 146.758C133.347 148.276 134.636 149.896 135.8 151.604L135.492 151.36C136.797 151.627 138.154 151.429 139.33 150.802C140.613 150.191 141.819 149.429 142.923 148.534C144.066 147.646 145.16 146.695 146.199 145.686C146.724 145.184 147.244 144.674 147.747 144.147C148.256 143.611 148.805 143.064 149.38 142.565C149.668 142.314 149.964 142.07 150.269 141.837C150.546 141.607 150.809 141.409 151.04 141.174C151.489 140.787 151.782 140.251 151.865 139.664C151.83 139.055 151.587 138.477 151.178 138.025C150.758 137.485 150.228 136.996 149.713 136.408C149.577 136.255 149.45 136.094 149.333 135.926L149.036 135.423L148.501 134.442L147.456 132.485C146.766 131.178 146.062 129.88 145.343 128.591C143.901 126.015 142.381 123.482 140.734 121.032C139.102 118.585 137.446 116.108 135.678 113.848L135.343 113.43L134.995 113.073C134.756 112.818 134.496 112.582 134.219 112.367L132.496 110.999L129.017 108.267C126.693 106.448 124.398 104.585 122.134 102.679C122.12 102.667 122.112 102.652 122.109 102.634C122.107 102.617 122.112 102.6 122.122 102.586C122.132 102.571 122.147 102.562 122.165 102.558C122.182 102.555 122.199 102.558 122.214 102.568L122.214 102.568Z" fill="black"/>
<path d="M131.389 124.701C130.19 129.21 129.057 133.73 128.11 138.267C127.623 140.516 127.284 142.795 127.093 145.088C127.028 146.191 127.021 147.409 126.924 148.589C126.83 149.792 126.629 150.984 126.323 152.152C125.603 154.46 124.448 156.61 122.922 158.485C122.217 159.426 121.47 160.335 120.771 161.248C120.434 161.702 120.093 162.152 119.791 162.638C119.467 163.106 119.174 163.599 118.882 164.093C117.734 166.099 116.708 168.172 115.809 170.301C114.86 172.422 114.042 174.601 113.243 176.793C114.261 172.21 115.841 167.77 117.947 163.573C118.491 162.513 119.114 161.494 119.81 160.527C120.502 159.571 121.21 158.66 121.877 157.716C123.28 155.952 124.341 153.94 125.003 151.785C125.297 150.7 125.494 149.591 125.592 148.471C125.701 147.329 125.697 146.213 125.802 144.992C126.047 142.643 126.471 140.317 127.071 138.033C128.221 133.5 129.664 129.047 131.389 124.701Z" fill="black"/>
<path d="M151.444 141.674C152.952 142.845 154.381 144.093 155.833 145.255C156.2 145.538 156.565 145.816 156.924 146.06L157.522 146.416C157.741 146.555 157.951 146.701 158.15 146.854C158.919 147.474 159.627 148.167 160.264 148.923C161.528 150.42 162.523 152.125 163.202 153.963C163.914 155.783 164.115 157.763 163.784 159.689C163.584 157.839 163.055 156.039 162.223 154.375C161.413 152.734 160.403 151.199 159.218 149.805C158.647 149.105 158.014 148.457 157.329 147.869C157.163 147.722 156.992 147.586 156.82 147.46L156.226 147.048C155.836 146.745 155.465 146.417 155.118 146.066C153.761 144.718 152.531 143.248 151.444 141.674V141.674Z" fill="black"/>
<path d="M136.312 152.125C137.66 153.933 138.581 156.022 139.006 158.237C139.054 158.519 139.094 158.804 139.133 159.09C139.159 159.366 139.162 159.694 139.197 159.931C139.25 160.416 139.365 160.891 139.54 161.346C139.923 162.318 140.413 163.243 141.001 164.106C141.584 164.999 142.225 165.852 142.921 166.66C143.257 167.077 143.628 167.464 143.985 167.864C144.372 168.232 144.725 168.642 145.124 168.999C146.644 170.543 148.465 171.758 150.474 172.57C149.355 172.456 148.267 172.139 147.262 171.634C146.258 171.122 145.308 170.511 144.426 169.809C142.65 168.41 141.108 166.738 139.855 164.856C139.219 163.893 138.702 162.856 138.317 161.767C138.131 161.184 138.024 160.579 138 159.968C137.982 159.659 137.99 159.436 137.99 159.164L137.95 158.379C137.705 156.227 137.153 154.121 136.312 152.125V152.125Z" fill="black"/>
<path d="M151.444 169.715C151.581 168.832 151.887 167.983 152.346 167.216C152.796 166.441 153.342 165.726 153.972 165.088C154.609 164.461 155.316 163.91 156.079 163.445C156.458 163.214 156.849 163.004 157.252 162.817C157.662 162.648 158.073 162.484 158.491 162.347C157.764 162.852 157.047 163.337 156.367 163.864C155.688 164.385 155.042 164.947 154.433 165.548C153.832 166.153 153.277 166.803 152.772 167.49C152.257 168.186 151.812 168.931 151.444 169.715Z" fill="black"/>
<path d="M153.918 171.279C155.441 168.845 157.109 166.504 158.913 164.27C159.816 163.151 160.754 162.057 161.727 160.99C162.717 159.928 163.765 158.922 164.867 157.977C165.99 156.991 167.254 156.178 168.618 155.564C169.354 155.254 170.148 155.102 170.948 155.118C171.767 155.139 172.568 155.368 173.275 155.784C174.591 156.631 175.598 157.881 176.146 159.348C176.432 160.045 176.638 160.773 176.762 161.516C176.914 162.286 176.899 163.08 176.716 163.843L176.497 163.362C178.038 164.149 179.523 165.001 180.996 165.888C182.465 166.775 183.916 167.695 185.313 168.696C186.741 169.669 188.064 170.788 189.261 172.034C189.866 172.677 190.38 173.4 190.787 174.184C191.235 175.019 191.341 175.994 191.083 176.906L191.091 176.881C190.896 177.635 190.479 178.313 189.893 178.827C189.575 179.082 189.204 179.264 188.808 179.361C188.411 179.458 187.999 179.466 187.599 179.386C186.856 179.235 186.151 178.941 185.521 178.519C184.916 178.124 184.345 177.679 183.812 177.19L184.731 176.794C184.705 177.733 184.504 178.66 184.137 179.526C183.779 180.4 183.241 181.19 182.56 181.845C181.878 182.491 181.078 182.999 180.204 183.344C179.835 183.504 179.475 183.685 179.126 183.886C178.965 183.978 178.811 184.08 178.664 184.193C178.609 184.235 178.557 184.282 178.509 184.332C178.473 184.364 178.483 184.401 178.516 184.279L178.283 183.623C178.71 183.994 179.063 184.442 179.324 184.944C179.602 185.459 179.747 186.036 179.747 186.621C179.747 187.207 179.602 187.783 179.324 188.299C179.071 188.788 178.738 189.232 178.339 189.612C177.538 190.367 176.519 190.852 175.428 190.998C174.921 191.059 174.411 191.083 173.9 191.069C173.351 191.068 172.806 190.981 172.284 190.812L172.768 190.813C171.172 191.308 169.532 191.646 167.87 191.823C166.213 191.992 164.542 191.983 162.886 191.796C162.024 191.714 161.178 191.514 160.37 191.202C159.921 191.029 159.515 190.76 159.18 190.416C158.844 190.071 158.586 189.658 158.425 189.204C158.188 188.297 158.297 187.333 158.731 186.502C158.925 186.099 159.176 185.727 159.477 185.396C159.797 184.996 160.257 184.732 160.764 184.658L160.707 184.664C160.946 184.629 161.187 184.608 161.429 184.604C161.666 184.599 161.904 184.607 162.14 184.63C162.624 184.669 163.096 184.795 163.535 185.002L163.182 185.415C162.964 185.028 162.794 184.617 162.675 184.189C162.552 183.764 162.497 183.321 162.512 182.879C162.528 182.432 162.654 181.996 162.88 181.609C163.109 181.237 163.42 180.922 163.79 180.688C163.805 180.678 163.823 180.674 163.841 180.678C163.859 180.681 163.875 180.692 163.885 180.707C163.894 180.722 163.897 180.739 163.895 180.756C163.892 180.773 163.883 180.788 163.87 180.799C163.549 181.048 163.289 181.368 163.11 181.733C162.941 182.092 162.861 182.486 162.877 182.883C162.896 183.281 162.978 183.674 163.118 184.047C163.255 184.42 163.436 184.775 163.656 185.106C163.689 185.155 163.706 185.214 163.704 185.273C163.702 185.333 163.681 185.39 163.644 185.437C163.608 185.484 163.557 185.518 163.499 185.534C163.442 185.551 163.381 185.548 163.325 185.527L163.303 185.519C162.915 185.377 162.507 185.299 162.094 185.287C161.884 185.279 161.674 185.284 161.464 185.301C161.258 185.317 161.054 185.346 160.852 185.387L160.824 185.392L160.794 185.394C160.507 185.494 160.258 185.681 160.084 185.93C159.856 186.213 159.67 186.528 159.532 186.864C159.239 187.497 159.19 188.216 159.393 188.883C159.521 189.187 159.713 189.461 159.956 189.685C160.199 189.908 160.487 190.077 160.801 190.179C161.515 190.42 162.259 190.564 163.011 190.606C164.579 190.726 166.154 190.678 167.711 190.462C169.266 190.27 170.798 189.929 172.288 189.446C172.44 189.395 172.604 189.394 172.756 189.442L172.773 189.447C173.579 189.625 174.409 189.658 175.226 189.547C176.015 189.445 176.752 189.099 177.334 188.557C177.904 188.06 178.262 187.362 178.333 186.609C178.336 186.248 178.252 185.892 178.088 185.571C177.919 185.233 177.692 184.928 177.417 184.669L177.368 184.624C177.286 184.548 177.225 184.451 177.193 184.343C177.16 184.236 177.158 184.122 177.185 184.013C177.238 183.786 177.354 183.578 177.519 183.413C177.62 183.309 177.729 183.212 177.846 183.126C178.043 182.98 178.25 182.848 178.465 182.73C178.866 182.51 179.279 182.312 179.702 182.139C180.44 181.87 181.118 181.46 181.7 180.932C182.272 180.401 182.733 179.763 183.057 179.053C183.386 178.341 183.584 177.576 183.641 176.794L183.643 176.753C183.65 176.65 183.685 176.551 183.746 176.467C183.807 176.384 183.891 176.319 183.987 176.282C184.083 176.244 184.189 176.235 184.29 176.256C184.391 176.276 184.485 176.325 184.559 176.397C185.033 176.861 185.542 177.289 186.081 177.675C186.586 178.056 187.159 178.336 187.77 178.5C188.047 178.575 188.338 178.587 188.62 178.536C188.903 178.484 189.171 178.371 189.404 178.203C189.884 177.816 190.238 177.295 190.421 176.707L190.429 176.681C190.669 175.935 190.611 175.125 190.265 174.421C189.922 173.666 189.46 172.97 188.895 172.362C187.745 171.118 186.463 170.002 185.072 169.034C182.267 167.103 179.28 165.45 176.153 164.1C176.069 164.063 176.001 163.997 175.959 163.914C175.918 163.832 175.907 163.738 175.927 163.648L175.934 163.619C176.037 162.977 176.007 162.32 175.844 161.689C175.696 161.028 175.474 160.384 175.183 159.772C174.66 158.562 173.784 157.539 172.669 156.837C172.119 156.538 171.507 156.37 170.881 156.346C170.256 156.322 169.633 156.442 169.061 156.697C167.808 157.25 166.641 157.982 165.596 158.868C164.5 159.754 163.453 160.7 162.46 161.701C161.449 162.694 160.471 163.726 159.521 164.786C157.632 166.917 155.794 169.105 154.031 171.357C154.025 171.364 154.019 171.37 154.011 171.375C154.003 171.38 153.995 171.383 153.986 171.384C153.977 171.385 153.968 171.385 153.959 171.382C153.95 171.38 153.942 171.376 153.935 171.371C153.921 171.36 153.912 171.345 153.909 171.328C153.906 171.311 153.909 171.294 153.918 171.279V171.279Z" fill="black"/>
<path d="M167.682 160.837C167.689 162.106 167.851 163.369 168.163 164.599C168.325 165.18 168.582 165.731 168.925 166.228C169.249 166.695 169.736 167.024 170.291 167.149C170.863 167.286 171.46 167.28 172.029 167.13C172.619 166.993 173.178 166.747 173.678 166.404C174.716 165.682 175.614 164.776 176.325 163.731C175.821 164.948 175.018 166.017 173.989 166.839C173.459 167.28 172.837 167.597 172.168 167.766C171.499 167.935 170.801 167.951 170.125 167.814C169.419 167.642 168.803 167.211 168.4 166.606C168.032 166.032 167.776 165.394 167.645 164.725C167.411 163.439 167.423 162.119 167.682 160.837V160.837Z" fill="black"/>
<path d="M177.772 172.961C179.075 173.008 180.342 173.398 181.445 174.093C182.002 174.43 182.517 174.829 182.982 175.284C183.446 175.733 183.851 176.241 184.186 176.793C183.698 176.371 183.229 175.952 182.731 175.572C182.24 175.187 181.727 174.833 181.193 174.512C180.661 174.186 180.109 173.895 179.541 173.64C178.966 173.376 178.375 173.149 177.772 172.961V172.961Z" fill="black"/>
<path d="M163.419 185.26C163.722 185.566 164.07 185.822 164.452 186.02C164.823 186.235 165.199 186.437 165.58 186.634C166.342 187.026 167.116 187.402 167.893 187.77C169.443 188.523 171.013 189.242 172.528 190.13C170.825 189.733 169.171 189.149 167.596 188.387C166.804 188.011 166.039 187.578 165.308 187.092C164.54 186.643 163.892 186.015 163.419 185.26V185.26Z" fill="black"/>
<path d="M175.504 175.933C175.772 176.08 176.006 176.281 176.192 176.524C176.298 176.654 176.375 176.805 176.417 176.968C176.459 177.13 176.464 177.3 176.433 177.465C176.336 177.792 176.132 178.077 175.854 178.275C175.604 178.468 175.329 178.627 175.038 178.75C174.904 178.807 174.775 178.873 174.651 178.947C174.533 179.005 174.42 179.07 174.311 179.144L174.015 179.403C173.926 179.5 173.844 179.603 173.77 179.712C173.458 180.147 173.27 180.659 173.229 181.193C173.151 181.72 173.23 182.259 173.457 182.741C173.683 183.223 174.047 183.628 174.503 183.904C174.615 183.98 174.739 184.037 174.87 184.071C175 184.114 175.126 184.171 175.26 184.207C175.537 184.26 175.818 184.294 176.1 184.308C176.391 184.316 176.681 184.306 176.97 184.278C177.259 184.227 177.551 184.184 177.85 184.146C177.574 184.255 177.293 184.359 177.006 184.456C176.713 184.537 176.414 184.6 176.113 184.644C175.802 184.67 175.491 184.672 175.18 184.649C175.023 184.622 174.868 184.586 174.715 184.541C174.556 184.511 174.403 184.457 174.261 184.381C173.656 184.106 173.165 183.629 172.875 183.03C172.594 182.437 172.481 181.778 172.548 181.125C172.614 180.472 172.857 179.849 173.252 179.324C173.352 179.194 173.462 179.071 173.581 178.956L173.972 178.65C174.247 178.491 174.537 178.36 174.837 178.257C175.361 178.137 175.818 177.819 176.113 177.37C176.157 177.247 176.173 177.116 176.16 176.987C176.147 176.857 176.106 176.732 176.039 176.62C175.899 176.364 175.718 176.132 175.504 175.933V175.933Z" fill="black"/>
<path d="M169.95 162.793C170.03 163.153 170.14 163.506 170.279 163.848C170.395 164.172 170.6 164.458 170.871 164.67C171.006 164.767 171.161 164.832 171.324 164.863C171.487 164.894 171.655 164.889 171.816 164.849C171.993 164.817 172.167 164.772 172.338 164.715C172.509 164.65 172.678 164.573 172.86 164.513C172.717 164.636 172.56 164.742 172.406 164.86C172.235 164.951 172.056 165.03 171.872 165.093C171.675 165.161 171.465 165.181 171.258 165.154C171.051 165.126 170.854 165.051 170.681 164.935C170.366 164.677 170.142 164.325 170.044 163.93C169.94 163.56 169.908 163.174 169.95 162.793Z" fill="black"/>
<path d="M170.576 162.347C170.944 162.243 171.325 162.192 171.707 162.196C172.096 162.197 172.483 162.259 172.854 162.378C173.24 162.505 173.577 162.749 173.818 163.077C174.025 163.417 174.097 163.823 174.018 164.213C173.973 163.855 173.835 163.515 173.617 163.227C173.382 162.969 173.08 162.782 172.745 162.685C172.041 162.473 171.311 162.359 170.576 162.347Z" fill="black"/>
<path d="M175.817 182.973C175.952 182.694 176.159 182.457 176.416 182.284C176.553 182.189 176.707 182.123 176.87 182.089C177.033 182.055 177.202 182.055 177.365 182.088C177.677 182.188 177.95 182.381 178.149 182.642C178.23 182.774 178.315 182.902 178.385 183.036C178.438 183.18 178.498 183.318 178.539 183.462C178.338 183.234 178.161 183.006 177.961 182.808C177.775 182.618 177.544 182.479 177.289 182.404C177.035 182.344 176.768 182.379 176.538 182.502C176.278 182.628 176.036 182.786 175.817 182.973V182.973Z" fill="black"/>
<path d="M163.784 184.491C163.802 183.955 163.939 183.429 164.185 182.951C164.25 182.817 164.342 182.698 164.455 182.601C164.568 182.504 164.699 182.431 164.841 182.386C164.991 182.357 165.146 182.363 165.293 182.402C165.441 182.441 165.578 182.513 165.694 182.613C165.92 182.783 166.111 182.995 166.259 183.236C166.41 183.491 166.461 183.793 166.402 184.084C166.321 184.346 166.184 184.588 165.999 184.791C165.815 184.994 165.589 185.154 165.336 185.26C165.745 184.964 166.035 184.532 166.155 184.041C166.176 183.812 166.123 183.583 166.004 183.387C165.869 183.187 165.699 183.014 165.502 182.876C165.425 182.8 165.331 182.742 165.228 182.707C165.126 182.672 165.016 182.661 164.909 182.675C164.694 182.746 164.513 182.891 164.396 183.084C164.127 183.522 163.921 183.996 163.784 184.491V184.491Z" fill="black"/>
<path d="M155.423 180.52C155.391 181.056 155.241 181.579 154.983 182.049C154.914 182.182 154.819 182.298 154.704 182.392C154.588 182.487 154.455 182.556 154.312 182.597C154.161 182.622 154.007 182.612 153.86 182.569C153.713 182.526 153.578 182.451 153.465 182.348C153.244 182.172 153.058 181.956 152.916 181.711C152.772 181.452 152.729 181.148 152.796 180.859C152.883 180.599 153.027 180.361 153.217 180.163C153.406 179.965 153.637 179.81 153.893 179.711C153.476 179.997 153.174 180.421 153.042 180.908C153.014 181.137 153.061 181.367 153.176 181.567C153.305 181.769 153.471 181.947 153.664 182.09C153.739 182.169 153.831 182.229 153.933 182.266C154.035 182.304 154.144 182.318 154.252 182.307C154.468 182.241 154.653 182.101 154.775 181.911C155.056 181.48 155.274 181.012 155.423 180.52V180.52Z" fill="black"/>
<path d="M160.33 189.386C160.47 189.016 160.666 188.67 160.913 188.361C161.039 188.197 161.19 188.053 161.36 187.936C161.458 187.863 161.572 187.815 161.693 187.797C161.813 187.778 161.937 187.789 162.052 187.829C162.256 187.945 162.41 188.133 162.483 188.356C162.556 188.547 162.602 188.747 162.62 188.951C162.668 189.344 162.651 189.742 162.569 190.13C162.526 189.748 162.461 189.369 162.374 188.996C162.332 188.817 162.277 188.643 162.21 188.472C162.132 188.323 162.038 188.161 161.92 188.126C161.698 188.005 161.351 188.28 161.097 188.529C160.827 188.802 160.571 189.088 160.33 189.386V189.386Z" fill="black"/>
<path d="M151.441 171.32L148.672 174.37C148.672 174.37 148.693 178.27 146.719 178.434C146.719 178.434 145.718 179.339 146.431 179.524C147.069 179.682 149.365 179.113 150.358 179.229C150.358 179.229 155.067 178.297 155.869 178.804C156.11 178.968 156.313 179.182 156.463 179.432C156.614 179.681 156.708 179.961 156.739 180.251L157.123 180.209L171.975 181.094L178.418 171.32L151.441 171.32ZM170.577 178.16L149.735 177.811L152.456 173.431H173.339L170.577 178.16Z" fill="black"/>
<path d="M134.362 178.436C135.165 177.851 136.073 177.425 137.037 177.183C138.017 176.931 139.032 176.843 140.04 176.923C140.13 176.931 140.214 176.973 140.273 177.042C140.332 177.111 140.362 177.201 140.355 177.291C140.348 177.382 140.306 177.466 140.237 177.525C140.168 177.585 140.079 177.614 139.989 177.608C139.974 177.607 139.96 177.605 139.946 177.602C139.01 177.418 138.05 177.389 137.105 177.519C136.14 177.646 135.209 177.957 134.362 178.436V178.436Z" fill="black"/>
<path d="M139.993 185.516C141.922 185.552 143.85 185.619 145.779 185.802C146.256 185.845 146.755 185.923 147.216 185.976C147.681 186.027 148.15 186.036 148.618 186.004C149.543 185.941 150.451 185.723 151.304 185.36L151.327 185.35C151.41 185.313 151.504 185.311 151.589 185.344C151.674 185.377 151.742 185.442 151.779 185.525C151.816 185.608 151.818 185.703 151.785 185.788C151.752 185.872 151.687 185.941 151.603 185.977L151.584 185.985C150.64 186.329 149.643 186.51 148.638 186.518C148.141 186.522 147.646 186.483 147.156 186.4C146.664 186.313 146.215 186.214 145.735 186.142C143.837 185.847 141.915 185.666 139.993 185.516Z" fill="black"/>
<path d="M141.479 190.835C142.133 190.599 142.794 190.38 143.462 190.176C144.137 189.963 144.825 189.795 145.523 189.672C145.613 189.657 145.705 189.679 145.779 189.732C145.853 189.786 145.902 189.866 145.917 189.956C145.932 190.046 145.91 190.139 145.856 190.213C145.803 190.287 145.722 190.336 145.632 190.351C145.614 190.354 145.596 190.355 145.577 190.355H145.571C144.889 190.363 144.208 190.415 143.533 190.511C142.848 190.6 142.162 190.709 141.479 190.835Z" fill="black"/>
<path d="M144.06 173.516C144.411 173.88 144.824 174.179 145.278 174.4C145.74 174.612 146.223 174.773 146.72 174.877C146.457 174.938 146.186 174.952 145.918 174.919C145.647 174.882 145.383 174.806 145.135 174.692C144.891 174.566 144.669 174.402 144.477 174.206C144.285 174.013 144.142 173.776 144.06 173.516V173.516Z" fill="black"/>
<path d="M154.522 185.636C154.34 185.637 154.166 185.566 154.037 185.438C153.907 185.31 153.834 185.136 153.834 184.954C153.833 184.772 153.904 184.597 154.032 184.468C154.16 184.339 154.334 184.266 154.516 184.265L163.198 184.184C163.288 184.181 163.378 184.197 163.463 184.23C163.547 184.263 163.624 184.312 163.688 184.376C163.753 184.439 163.804 184.515 163.839 184.598C163.873 184.682 163.891 184.772 163.89 184.862C163.89 184.952 163.874 185.042 163.84 185.125C163.806 185.209 163.757 185.285 163.693 185.349C163.63 185.413 163.555 185.465 163.472 185.5C163.39 185.535 163.301 185.554 163.211 185.554L154.529 185.636H154.522Z" fill="black"/>
<path d="M178.379 185.414C178.197 185.414 178.023 185.342 177.894 185.214C177.766 185.085 177.693 184.911 177.693 184.729C177.693 184.547 177.765 184.373 177.894 184.244C178.022 184.116 178.196 184.043 178.378 184.043L202.31 184.012H202.311C202.493 184.012 202.667 184.084 202.796 184.212C202.925 184.341 202.997 184.515 202.997 184.697C202.997 184.878 202.925 185.053 202.797 185.181C202.668 185.31 202.494 185.382 202.312 185.382L178.38 185.414H178.379Z" fill="black"/>
<path d="M337.258 185.202C337.077 185.202 336.902 185.13 336.774 185.002C336.645 184.873 336.573 184.699 336.573 184.517C336.573 184.336 336.645 184.161 336.773 184.033C336.902 183.904 337.076 183.832 337.258 183.832L359.255 183.805H359.256C359.438 183.805 359.612 183.877 359.741 184.005C359.869 184.134 359.941 184.308 359.942 184.49C359.942 184.672 359.87 184.846 359.741 184.975C359.613 185.103 359.438 185.176 359.257 185.176L337.26 185.202H337.258Z" fill="black"/>
<path d="M211.974 184.849H210.347C210.304 184.849 210.262 184.832 210.231 184.802C210.2 184.771 210.182 184.73 210.181 184.686C210.181 184.665 210.185 184.644 210.193 184.624C210.201 184.605 210.213 184.587 210.228 184.572C210.242 184.556 210.26 184.544 210.28 184.536C210.299 184.528 210.32 184.524 210.342 184.524H211.974C211.996 184.524 212.017 184.528 212.037 184.536C212.057 184.544 212.075 184.556 212.09 184.571C212.105 184.586 212.117 184.604 212.125 184.624C212.134 184.644 212.138 184.665 212.138 184.686C212.138 184.708 212.134 184.729 212.125 184.749C212.117 184.769 212.105 184.787 212.09 184.802C212.075 184.817 212.057 184.829 212.037 184.837C212.017 184.845 211.996 184.849 211.974 184.849V184.849Z" fill="black"/>
<path d="M0.688565 187.07C0.506791 187.071 0.332128 187 0.202998 186.872C0.0738682 186.744 0.000850818 186.57 7.38829e-06 186.388C-0.000836041 186.206 0.0705641 186.032 0.198501 185.903C0.326438 185.774 0.500433 185.701 0.682206 185.7L30.8576 185.419C31.0378 185.422 31.21 185.494 31.3387 185.621C31.4674 185.747 31.5428 185.918 31.5493 186.098C31.5502 186.188 31.5333 186.277 31.4997 186.361C31.466 186.444 31.4162 186.52 31.3532 186.585C31.2901 186.649 31.215 186.7 31.1322 186.735C31.0493 186.771 30.9603 186.789 30.8703 186.79L0.694923 187.07H0.688565Z" fill="black"/>
<path d="M114.494 92.2016C114.748 92.1929 114.988 92.086 115.164 91.9036C115.34 91.7212 115.439 91.4775 115.439 91.2239C115.439 90.9703 115.34 90.7266 115.164 90.5442C114.988 90.3618 114.748 90.255 114.494 90.2462C114.241 90.255 114.001 90.3618 113.825 90.5442C113.648 90.7266 113.55 90.9703 113.55 91.2239C113.55 91.4775 113.648 91.7212 113.825 91.9036C114.001 92.086 114.241 92.1929 114.494 92.2016V92.2016Z" fill="black"/>
<path d="M163.919 73.2373L155.915 73.5355C153.289 73.6151 150.692 73.6787 148.11 73.7269C145.532 73.7627 142.963 73.8035 140.404 73.7748C137.844 73.7555 135.284 73.6411 132.699 73.5696L133.08 73.189C133.038 74.6659 132.971 76.1431 132.951 77.6201C132.915 79.0971 132.914 80.5742 132.905 82.0513C132.903 85.0054 132.965 87.9595 133.049 90.9136L132.699 90.5639L139.086 90.3865C139.151 90.3846 139.216 90.3957 139.277 90.4191C139.338 90.4425 139.393 90.4778 139.44 90.5229L139.459 90.5409L141.899 92.8871H141.06L143.419 90.4605C143.476 90.4018 143.544 90.355 143.619 90.3228C143.694 90.2906 143.774 90.2737 143.856 90.2729L143.872 90.2727C147.221 90.2451 150.57 90.1763 153.92 90.1825C155.594 90.1742 157.269 90.181 158.943 90.2031L163.967 90.2667L163.32 90.9136C163.366 88.0347 163.449 85.1553 163.568 82.2165L163.919 73.2373ZM164.016 73.1405L164.366 81.8861C164.485 84.8555 164.568 87.8843 164.614 90.9136C164.617 91.0826 164.552 91.2457 164.434 91.367C164.317 91.4883 164.156 91.5579 163.987 91.5605H163.985L163.967 91.5607L158.943 91.6243C157.269 91.6443 155.594 91.6512 153.92 91.6448C150.57 91.651 147.221 91.5822 143.872 91.5546L144.325 91.367L141.899 93.7259L141.885 93.7398C141.83 93.793 141.765 93.8349 141.694 93.8632C141.623 93.8914 141.547 93.9054 141.471 93.9043C141.394 93.9032 141.319 93.8871 141.249 93.8568C141.179 93.8266 141.115 93.7828 141.062 93.7281L141.06 93.7259L138.714 91.2866L139.086 91.4408L132.699 91.2635L132.679 91.263C132.589 91.2604 132.504 91.2222 132.442 91.1568C132.38 91.0913 132.347 91.0039 132.349 90.9138V90.9136C132.433 87.9596 132.495 85.0054 132.493 82.0514C132.484 80.5742 132.482 79.0972 132.446 77.6202C132.426 76.1432 132.359 74.666 132.318 73.189C132.317 73.1404 132.325 73.092 132.342 73.0466C132.36 73.0012 132.386 72.9597 132.419 72.9244C132.453 72.8891 132.493 72.8607 132.537 72.8409C132.581 72.821 132.629 72.8101 132.678 72.8088H132.678L132.699 72.8083C135.325 72.7368 137.976 72.6222 140.628 72.6031C143.28 72.5744 145.922 72.6152 148.556 72.651C151.185 72.699 153.8 72.7628 156.386 72.8424L164.016 73.1405Z" fill="black"/>
<path d="M255.876 40.4503L244.096 40.6541L232.415 40.8013L209.215 40.9643L197.674 40.9237L186.139 40.7777C178.441 40.6596 170.705 40.6032 162.972 40.6226L163.193 40.4019L163.234 49.2642L163.336 58.1266L162.972 57.7628C169.787 57.6699 176.602 57.5821 183.417 57.5349L203.862 57.4221C210.677 57.3694 217.492 57.43 224.307 57.4285C231.122 57.4201 237.936 57.5096 244.751 57.5642L244.761 57.5643C244.907 57.5656 245.047 57.6248 245.149 57.729L247.521 60.143H246.768L249.187 57.777L249.196 57.7681C249.241 57.7242 249.295 57.6895 249.353 57.6662C249.412 57.6428 249.474 57.6313 249.537 57.6321L255.925 57.725L255.523 58.1266C255.57 55.2179 255.608 52.3094 255.689 49.3619L255.876 40.4503ZM255.973 40.3534L256.161 49.1663C256.241 52.1271 256.28 55.1268 256.326 58.1265C256.328 58.2314 256.288 58.3325 256.215 58.4078C256.142 58.4831 256.042 58.5263 255.937 58.528H255.937L255.925 58.5281L249.537 58.621L249.887 58.4763L247.521 60.8956C247.423 60.9954 247.29 61.0523 247.15 61.0539C247.011 61.0554 246.876 61.0015 246.776 60.9039L246.776 60.903L246.768 60.8957L244.354 58.5243L244.751 58.6889C237.936 58.7435 231.122 58.833 224.307 58.8246C217.492 58.8231 210.677 58.8837 203.862 58.831L183.417 58.7182C176.602 58.671 169.787 58.5832 162.972 58.4903H162.963C162.916 58.4897 162.869 58.4799 162.826 58.4613C162.783 58.4427 162.743 58.4157 162.71 58.3819C162.677 58.3481 162.651 58.3082 162.634 58.2644C162.616 58.2205 162.608 58.1737 162.608 58.1265L162.71 49.2641L162.751 40.4019C162.751 40.3433 162.775 40.2872 162.816 40.2457C162.857 40.2043 162.914 40.181 162.972 40.1809C170.732 40.2004 178.487 40.144 186.282 40.0259L197.985 39.88L209.681 39.8392L232.958 40.0023L244.515 40.1494L255.973 40.3534Z" fill="black"/>
<path d="M191.334 2.62638C186.308 2.76944 181.368 2.869 176.456 2.95467C171.533 3.05691 166.669 3.10259 161.808 3.14007C156.947 3.17822 152.12 3.14777 147.282 3.03951C142.441 2.95668 137.578 2.82165 132.699 2.79738L132.918 2.57802C132.916 4.05501 132.895 5.53204 132.912 7.00904L132.939 11.4402C132.942 14.3944 133.014 17.3485 133.058 20.3026L132.699 19.9439L139.086 19.8242C139.146 19.8231 139.206 19.8337 139.262 19.8556C139.318 19.8775 139.369 19.9103 139.412 19.9519L139.425 19.9645L141.856 22.3188H141.103L143.465 19.896C143.517 19.8434 143.578 19.8015 143.645 19.7726C143.713 19.7437 143.785 19.7284 143.858 19.7277L143.872 19.7275L155.75 19.6243C159.709 19.5928 163.668 19.5639 167.627 19.5701C175.546 19.5664 183.464 19.6822 191.382 19.7876L190.867 20.3026L191.078 11.5664L191.334 2.62638ZM191.431 2.5295L191.687 11.3141L191.897 20.3026C191.901 20.436 191.851 20.5652 191.758 20.6617C191.666 20.7582 191.54 20.8142 191.406 20.8174L191.401 20.8175L191.382 20.8177C183.464 20.9231 175.546 21.0389 167.627 21.0352C163.668 21.0416 159.709 21.0125 155.75 20.9812L143.872 20.8778L144.279 20.7094L141.856 23.0719L141.845 23.0825C141.746 23.1795 141.612 23.2331 141.473 23.2314C141.334 23.2296 141.201 23.1728 141.104 23.0733L141.103 23.0719L138.748 20.641L139.086 20.781L132.699 20.6614L132.687 20.6612C132.641 20.6605 132.595 20.6507 132.552 20.6323C132.51 20.6138 132.471 20.5872 132.439 20.5539C132.407 20.5206 132.382 20.4813 132.365 20.4382C132.348 20.395 132.339 20.349 132.34 20.3026C132.383 17.3485 132.455 14.3944 132.459 11.4403L132.486 7.00905C132.502 5.53206 132.481 4.05503 132.479 2.57802C132.479 2.51978 132.503 2.46394 132.544 2.42275C132.585 2.38156 132.641 2.35839 132.699 2.35832C137.6 2.33406 142.518 2.19902 147.458 2.11638C152.4 2.00795 157.353 1.97767 162.274 2.01563C167.192 2.05328 172.109 2.09896 176.968 2.2012C181.836 2.28671 186.676 2.38643 191.431 2.52949V2.5295Z" fill="black"/>
</svg>
