<svg width="319" height="477" viewBox="0 0 319 477" fill="none" xmlns="http://www.w3.org/2000/svg">
<mask id="mask0_35_1560" style="mask-type:alpha" maskUnits="userSpaceOnUse" x="0" y="24" width="319" height="453">
<path d="M235.825 234.979L267.557 248.251C265.913 248.702 264.294 249.213 262.662 249.688L257.829 251.247C254.601 252.282 251.399 253.414 248.209 254.546C245.019 255.703 241.828 256.86 238.675 258.114C235.569 259.332 232.452 260.574 229.396 261.925C227.692 250.991 225.134 239.314 221.786 236.598L235.825 234.979Z" fill="black"/>
<path d="M267.557 248.251V270.802C261.688 273.53 248.537 277.84 231.941 282.784C231.941 282.784 231.076 272.726 229.396 261.95C232.623 261.049 235.825 260.038 238.991 258.991C242.218 257.956 245.421 256.824 248.611 255.691C251.801 254.534 254.991 253.378 258.145 252.123L262.869 250.248C264.428 249.578 266.011 248.957 267.557 248.251Z" fill="black"/>
<path d="M39.8431 260.172C41.0482 259.807 42.2297 259.405 43.3985 258.93L41.779 265.359C40.2037 263.807 38.5323 262.355 36.7745 261.012C37.7972 260.757 38.8323 260.489 39.8431 260.172Z" fill="black"/>
<path d="M147.618 284.793C130.68 282.066 84.3483 266.991 76.0073 260.647C69.8702 255.971 62.8443 248.312 61.931 230.047C60.5921 238.364 59.2163 246.68 57.8036 254.997L57.7549 255.289C58.791 254.705 59.9066 254.274 61.0666 254.011C62.3702 253.678 63.7211 253.571 65.0608 253.694C63.9187 254.405 62.6621 254.911 61.3467 255.192C60.1616 255.49 58.9379 255.605 57.718 255.533L54.3938 274.833C57.426 276.891 60.4334 278.961 63.4044 281.092L68.0806 284.428L72.7199 287.825C75.8128 290.09 78.9176 292.331 81.9618 294.669C85.0059 296.994 88.0863 299.259 91.1061 301.634L91.1186 301.646C91.1857 301.707 91.2323 301.788 91.2524 301.877C93.5902 301.207 95.953 300.586 98.3026 299.941L105.816 298.017C110.832 296.751 115.861 295.582 120.878 294.364C125.931 293.232 130.961 292.051 136.014 290.979C141.067 289.895 146.12 288.836 151.21 287.911C146.242 289.323 141.225 290.614 136.221 291.88C131.216 293.159 126.175 294.315 121.158 295.545C116.117 296.665 111.088 297.847 106.035 298.93L98.4489 300.525C96.0499 300.988 93.6633 301.475 91.2648 301.914C91.2648 301.926 91.2892 301.938 91.2892 301.95C91.7274 306.857 92.1412 311.764 92.4337 316.684C91.6661 311.886 91.021 307.076 90.4003 302.255C87.3193 300.075 84.312 297.81 81.2679 295.594C78.1625 293.353 75.1183 291.016 72.0623 288.714L67.4717 285.244L62.9418 281.713C60.0558 279.484 57.2066 277.195 54.3819 274.882L53.4074 280.556C53.3829 280.693 53.3051 280.815 53.191 280.895C53.0769 280.974 52.9358 281.006 52.7985 280.982C52.7689 280.98 52.74 280.971 52.7135 280.958L39.5143 276.367C39.3812 276.317 39.2709 276.22 39.2037 276.095C39.1365 275.969 39.1169 275.824 39.1486 275.685L41.7302 265.53C39.4751 264.297 37.3105 262.905 35.2525 261.366C33.6329 262.534 32.0377 263.716 30.4062 264.872C28.6284 266.102 26.8745 267.369 25.0724 268.586C26.7288 267.186 28.4091 265.822 30.0893 264.446C31.6482 263.168 33.2309 261.926 34.8137 260.671C34.8256 260.582 34.8547 260.495 34.8993 260.416C33.9617 256.811 33.1334 253.183 32.269 249.554C31.3557 245.804 30.5155 242.029 29.6998 238.254C28.8472 234.48 28.0315 230.705 27.2764 226.906C26.4851 223.119 25.7543 219.332 25.0724 215.521C26.12 219.247 27.1183 222.985 28.0434 226.735C29.0179 230.474 29.9186 234.236 30.7956 237.999C31.6964 241.761 32.5734 245.524 33.3772 249.299C34.1686 252.878 34.9724 256.458 35.7025 260.051C37.0058 259.746 38.3085 259.466 39.6236 259.235C40.89 259.015 42.1565 258.845 43.4473 258.735L44.8718 253.146L50.6676 230.608L50.6801 230.571V230.559C51.4076 228.589 51.9815 226.566 52.3966 224.507C52.8723 222.504 52.8599 220.416 52.3603 218.419C52.0547 217.47 51.4997 216.62 50.7532 215.959C50.3609 215.63 49.9459 215.329 49.5112 215.058L48.8293 214.607L48.4761 214.315C48.4274 214.303 48.3911 214.267 48.2567 214.218C46.2135 213.753 44.1372 213.447 42.0466 213.305C33.5716 212.537 25.0606 212.087 16.5613 211.624C20.8106 211.685 25.0724 211.807 29.3343 211.965C33.5961 212.123 37.846 212.294 42.1078 212.623C43.1673 212.708 44.2387 212.805 45.2982 212.927C46.3929 213.012 47.4772 213.2 48.5368 213.487C48.713 213.543 48.878 213.63 49.0243 213.743L49.2919 213.962L49.9494 214.376C50.4233 214.658 50.8751 214.976 51.3009 215.326C52.174 216.072 52.8302 217.039 53.2005 218.127C53.7832 220.264 53.8458 222.511 53.383 224.678C52.9885 226.791 52.4183 228.869 51.6784 230.888L46.0039 253.427L40.3788 275.466L52.4822 279.752L57.1216 254.876C58.6924 246.571 60.2956 238.271 61.931 229.974C61.6608 221.982 62.2241 213.984 63.6118 206.108L41.3164 203.77C39.07 203.564 36.9429 202.667 35.2281 201.201C33.4033 200.934 31.5943 200.568 29.8093 200.105C29.3467 199.996 28.8841 199.874 28.421 199.728C28.1897 199.655 27.9584 199.582 27.7152 199.496C27.688 199.484 27.6592 199.476 27.6296 199.472H27.5933C27.5108 199.481 27.4293 199.497 27.3496 199.521C26.4901 199.79 25.6583 200.14 24.8656 200.568C23.1853 201.384 21.5295 202.285 19.8493 203.137C18.1809 204.026 16.4757 204.866 14.7467 205.67C17.7161 203.275 20.9279 201.198 24.3299 199.472C25.2179 199.021 26.1479 198.658 27.1065 198.388C27.2628 198.357 27.4216 198.341 27.5809 198.34C27.7729 198.35 27.9619 198.392 28.1411 198.461C28.3361 198.559 28.5554 198.632 28.7623 198.717L30.0894 199.204C31.7821 199.801 33.4748 200.434 35.1551 201.128C33.3892 199.448 32.1228 196.732 32.866 192.3L33.9981 162.236L29.4318 161.298C29.4318 161.298 26.0714 162.053 32.7073 142.887L43.3131 112.385C43.3131 112.385 1.65694 117.523 0.147398 119.033C-1.36278 120.543 8.9023 222.291 23.1004 270.9C23.1004 270.9 87.7089 317.098 91.63 318.608C93.5415 319.326 129.353 310.742 168.476 300.428C168.476 300.428 164.543 287.521 147.618 284.793ZM11.0694 141.876C10.083 135.886 9.13349 129.895 8.30529 123.879C9.62046 129.809 10.8137 135.764 11.9826 141.718C13.1521 147.673 14.2235 153.651 15.3437 159.618C16.3663 165.597 17.4502 171.575 18.4241 177.566L19.873 186.552C20.3118 189.56 20.7863 192.555 21.1882 195.563C20.5187 192.604 19.9218 189.633 19.2767 186.662L17.4989 177.724C16.3299 171.77 15.2705 165.791 14.1503 159.825C13.1271 153.846 12.0438 147.88 11.0694 141.876V141.876Z" fill="black"/>
<path d="M123.642 71.3253C121.426 71.3253 118.601 72.5308 115.788 73.1397C112.975 73.7485 106.534 72.5308 105.926 70.7287C105.317 68.9144 101.517 53.9615 100.896 54.6678C100.287 55.3739 99.0821 56.6282 99.0821 56.6282C99.0821 56.6282 98.8752 74.8444 99.2766 76.8048C99.691 78.7774 107.131 88.6405 118.199 87.6298C129.268 86.6191 130.888 73.5415 130.888 73.5415C130.888 73.5415 125.846 71.3253 123.642 71.3253ZM125.469 76.7317C124.656 77.2324 123.705 77.4626 122.753 77.3893C121.829 77.3186 120.933 77.0353 120.135 76.5613C119.36 76.1121 118.698 75.4915 118.199 74.747C119.645 75.4954 121.211 75.9818 122.826 76.1838C123.582 76.2405 124.342 76.1368 125.055 75.8794C125.827 75.5798 126.566 75.2003 127.259 74.747C126.871 75.5707 126.248 76.2613 125.469 76.7317V76.7317Z" fill="black"/>
<path d="M99.0813 56.6335C99.0813 56.6335 109.145 47.1733 108.34 35.4989C108.34 35.4989 110.957 33.0836 115.184 37.1092C115.184 37.1092 118.807 38.1156 123.034 33.6874C127.261 29.2592 129.475 35.7002 129.475 35.7002C129.475 35.7002 131.689 42.5438 132.293 40.7322C132.897 38.9207 133.903 30.2656 124.845 27.4476C117.802 25.3495 110.439 24.5314 103.107 25.0323C100.692 25.4348 95.6595 29.4604 95.6595 35.0963C95.6595 40.7322 93.2441 47.777 93.4454 49.9912C93.6467 52.2054 99.0813 56.6335 99.0813 56.6335Z" fill="black"/>
<path d="M108.139 54.2181C110.091 53.4722 112.187 53.1785 114.269 53.3592C115.316 53.4491 116.347 53.6741 117.337 54.0283C118.321 54.3903 119.229 54.9325 120.014 55.627C119.086 55.2252 118.127 54.8998 117.145 54.654C116.175 54.4315 115.19 54.2779 114.198 54.1944C112.18 54.0565 110.155 54.0644 108.139 54.2181Z" fill="black"/>
<path d="M125.248 54.6687C126.055 53.7844 127.049 53.0908 128.158 52.6385C129.258 52.1182 130.496 51.9663 131.689 52.2053C130.6 52.5524 129.53 52.9549 128.482 53.4114C127.433 53.8425 126.399 54.3115 125.248 54.6687Z" fill="black"/>
<path d="M115.788 58.4954C116.114 58.4841 116.423 58.3467 116.649 58.112C116.876 57.8773 117.003 57.5637 117.003 57.2374C117.003 56.9111 116.876 56.5975 116.649 56.3628C116.423 56.1281 116.114 55.9906 115.788 55.9794C115.461 55.9906 115.152 56.1281 114.926 56.3628C114.699 56.5975 114.572 56.9111 114.572 57.2374C114.572 57.5637 114.699 57.8773 114.926 58.112C115.152 58.3467 115.461 58.4841 115.788 58.4954V58.4954Z" fill="black"/>
<path d="M128.67 57.6902C128.996 57.6789 129.305 57.5415 129.531 57.3068C129.758 57.0721 129.885 56.7585 129.885 56.4322C129.885 56.1058 129.758 55.7923 129.531 55.5576C129.305 55.3229 128.996 55.1854 128.67 55.1742C128.343 55.1854 128.034 55.3229 127.808 55.5576C127.581 55.7923 127.454 56.1058 127.454 56.4322C127.454 56.7585 127.581 57.0721 127.808 57.3068C128.034 57.5415 128.343 57.6789 128.67 57.6902V57.6902Z" fill="black"/>
<path d="M93.4454 49.9912C93.0053 50.1741 92.612 50.4534 92.2945 50.8088C91.9769 51.1641 91.7433 51.5862 91.6109 52.044C91.3569 52.9484 91.3586 53.9054 91.6156 54.809C92.2015 56.6573 92.8923 58.4706 93.6847 60.2403C94.3927 62.0905 94.9512 63.9945 95.3548 65.9339C95.5179 66.8444 95.9682 67.6787 96.6397 68.3147C96.9988 68.6269 97.42 68.8594 97.8755 68.997C98.3311 69.1346 98.8106 69.1741 99.2825 69.113C98.7939 69.2556 98.2795 69.2867 97.7773 69.2039C97.2751 69.1211 96.7979 68.9264 96.381 68.6344C95.5598 67.979 94.9765 67.072 94.7207 66.0528C94.2291 64.1776 93.6211 62.3348 92.9005 60.5351C92.5652 59.6204 92.2227 58.7074 91.8573 57.8023C91.4554 56.882 91.1626 55.9177 90.9848 54.9293C90.7816 53.9171 90.8657 52.8681 91.2277 51.9013C91.4205 51.4305 91.722 51.0121 92.1074 50.6802C92.4928 50.3482 92.9513 50.1121 93.4454 49.9912V49.9912Z" fill="black"/>
<path d="M126.254 63.6785C126.735 64.9519 126.72 66.3593 126.213 67.6223C125.934 68.2984 125.414 68.8473 124.755 69.1636C124.106 69.4228 123.384 69.4291 122.732 69.181C123.337 69.1036 123.92 68.9017 124.443 68.588C124.89 68.2532 125.237 67.8021 125.446 67.2838C125.866 66.1207 126.137 64.9094 126.254 63.6785V63.6785Z" fill="black"/>
<path d="M132.293 40.7323C132.122 43.4962 132.116 46.2678 132.276 49.0324C132.36 50.4033 132.518 51.7687 132.749 53.1225C132.994 54.4506 133.381 55.8113 133.614 57.1988C134.087 59.9853 134.056 62.834 133.524 65.6097C132.945 68.3445 132.059 71.0052 130.884 73.5412C131.75 70.9143 132.42 68.2267 132.888 65.5005C133.31 62.7926 133.276 60.0332 132.787 57.3366C132.586 55.9805 132.233 54.6575 131.998 53.251C131.77 51.8654 131.648 50.4641 131.635 49.0598C131.582 46.2691 131.802 43.48 132.293 40.7323V40.7323Z" fill="black"/>
<path d="M99.2825 76.8065C99.1157 78.4169 98.5155 79.952 97.5458 81.2485C97.0517 81.9072 96.4458 82.474 95.7558 82.9233C95.0572 83.3556 94.2549 83.5912 93.4335 83.6054C94.1306 83.2896 94.7823 82.8822 95.3714 82.3937C95.926 81.8946 96.43 81.3421 96.8763 80.7443C97.331 80.1366 97.7498 79.5029 98.1305 78.8464C98.5129 78.1817 98.907 77.5105 99.2825 76.8065Z" fill="black"/>
<path d="M98.4929 78.9574C92.3759 80.1998 86.39 82.0174 80.615 84.3861C77.6213 85.473 74.491 86.1384 71.314 86.3632C68.2268 86.5433 65.1522 86.8966 62.1046 87.4214C61.4171 87.5713 60.7573 87.828 60.1494 88.1823C59.4508 88.6152 58.7142 88.9836 57.9489 89.2831C56.5567 89.8 55.2741 90.5742 54.168 91.5653C52.0568 93.7618 50.3213 96.2907 49.031 99.0507C48.2994 100.412 47.7156 101.855 47.0728 103.268C46.4917 104.71 45.9076 106.154 45.3623 107.613C44.848 109.085 44.3025 110.547 43.8126 112.028L42.4154 116.499L42.4121 116.51L42.4062 116.527C39.4949 123.811 36.8494 131.196 34.4697 138.682C33.291 142.421 32.1773 146.183 31.2263 149.973C30.7572 151.869 30.3149 153.771 29.9837 155.676C29.8153 156.616 29.6996 157.564 29.6371 158.517C29.6099 158.969 29.617 159.421 29.6585 159.872C29.6682 160.187 29.763 160.494 29.9329 160.76L29.5868 160.583C36.5031 161.942 43.4243 163.298 50.3548 164.577L60.7424 166.515L65.9406 167.393C67.6279 167.686 69.3287 167.894 71.0369 168.017L71.5419 168.022C71.5432 167.995 71.5298 168.025 71.5604 168.006C71.5947 167.971 71.6332 167.941 71.6751 167.916C71.906 167.648 72.0985 167.349 72.2471 167.028C72.6013 166.273 72.8942 165.49 73.1229 164.688C73.5902 163.019 73.9641 161.324 74.243 159.613C74.8296 156.171 75.142 152.673 75.3846 149.173C75.6049 145.67 75.6764 142.158 75.5992 138.638C75.5481 135.121 75.3391 131.604 74.9449 128.1C74.9429 128.079 74.9492 128.057 74.9625 128.04C74.9759 128.023 74.9953 128.012 75.0167 128.009C75.0381 128.006 75.0598 128.011 75.0774 128.024C75.095 128.037 75.1071 128.055 75.1111 128.077C75.7009 131.558 76.1079 135.075 76.3564 138.606C76.5731 142.138 76.6373 145.678 76.5488 149.225C76.4617 152.777 76.1703 156.32 75.676 159.838C75.4291 161.615 75.0829 163.377 74.639 165.115C74.4049 166.015 74.0974 166.895 73.7196 167.745C73.506 168.229 73.2208 168.678 72.8735 169.077C72.7495 169.192 72.6146 169.304 72.479 169.408C72.2972 169.518 72.1017 169.604 71.8975 169.663C71.6119 169.691 71.3556 169.69 71.0821 169.699C69.2714 169.592 67.468 169.386 65.6799 169.082L60.4418 168.224C56.9625 167.609 53.4855 166.992 50.0225 166.309C43.0991 164.927 36.1878 163.497 29.2886 162.017L29.231 162.005C29.12 161.981 29.0191 161.924 28.9423 161.84C28.4981 161.334 28.2471 160.687 28.2339 160.014C28.196 159.486 28.1988 158.956 28.2422 158.428C28.3306 157.424 28.4753 156.425 28.6757 155.437C29.0586 153.48 29.5542 151.567 30.1033 149.672C31.1981 145.882 32.4482 142.152 33.7363 138.438C35.0464 134.732 36.3649 131.032 37.7217 127.346L41.8307 116.301L41.8215 116.329C43.3897 110.24 45.427 104.282 47.9152 98.5074C49.1646 95.5374 50.9521 92.8238 53.1877 90.5034C54.4053 89.3865 55.8196 88.5052 57.3589 87.9044C58.0478 87.6269 58.7153 87.2989 59.356 86.9231C60.1034 86.4923 60.9148 86.1835 61.7595 86.0083C64.8821 85.5071 68.0311 85.1868 71.1907 85.049C72.7363 84.9132 74.2753 84.7484 75.787 84.4713C77.3014 84.2381 78.7916 83.8688 80.2396 83.3677C86.1189 81.1462 92.235 79.6107 98.4665 78.7917C98.4885 78.7886 98.5108 78.7943 98.5286 78.8077C98.5464 78.821 98.5582 78.8409 98.5613 78.8629C98.5636 78.8843 98.5578 78.9058 98.5452 78.9233C98.5326 78.9407 98.5139 78.9529 98.4929 78.9574V78.9574Z" fill="black"/>
<path d="M118.24 96.4068C118.102 97.1392 118.067 97.8873 118.136 98.6294C118.181 99.3804 118.23 100.13 118.301 100.88L118.761 105.373C119.091 108.367 119.484 111.354 119.85 114.345L120.432 118.826C120.8 120.402 120.559 122.059 119.758 123.465C119.494 123.799 119.167 124.078 118.796 124.286C118.424 124.493 118.015 124.625 117.593 124.675C117.17 124.724 116.741 124.689 116.332 124.573C115.923 124.456 115.54 124.26 115.207 123.995C114.873 123.734 114.596 123.407 114.393 123.034C114.191 122.662 114.066 122.252 114.028 121.829L113.785 119.583C113.449 116.59 113.09 113.598 112.634 110.623C112.416 109.137 112.119 107.664 111.746 106.209C111.654 105.855 111.528 105.511 111.369 105.181C111.338 105.108 111.29 105.043 111.229 104.991C111.168 104.94 111.096 104.903 111.018 104.884L110.501 104.66C109.81 104.362 109.111 104.082 108.409 103.81C105.602 102.716 102.775 101.671 99.9221 100.712C98.5074 100.264 97.0379 99.6248 95.6784 100.073C95.0467 100.376 94.522 100.865 94.174 101.473C93.826 102.082 93.6711 102.781 93.7298 103.48C93.7285 103.559 93.6959 103.634 93.6391 103.689C93.5823 103.744 93.5059 103.775 93.4268 103.773C93.3751 103.772 93.3245 103.758 93.2799 103.731C93.2354 103.705 93.1983 103.667 93.1723 103.623C92.3818 102.248 91.4927 100.933 90.512 99.6869C89.5635 98.4371 88.4537 97.3184 87.2116 96.3601C86.6041 95.903 85.9255 95.5493 85.2029 95.3132C84.4096 95.0626 83.6467 94.7243 82.9284 94.3046C81.4636 93.4673 80.2256 92.2847 79.3221 90.8597C79.3099 90.84 79.3002 90.8189 79.2935 90.7967L79.2858 90.7706C79.0599 89.9326 79.1693 89.0395 79.5908 88.2807C79.9795 87.5803 80.4889 86.954 81.0954 86.4306C82.2598 85.4347 83.543 84.5868 84.9157 83.9062C87.6067 82.5415 90.4241 81.4419 93.3281 80.623C93.4019 80.6017 93.4804 80.6033 93.5533 80.6275C93.6261 80.6517 93.69 80.6974 93.7364 80.7586C93.7827 80.8198 93.8095 80.8936 93.8131 80.9703C93.8167 81.047 93.7969 81.123 93.7565 81.1883L93.7455 81.2061C93.2805 81.9905 92.9793 82.8611 92.8602 83.7652C92.7918 84.2254 92.7544 84.6896 92.7482 85.1548C92.7887 85.6195 92.7851 86.0905 92.8677 86.5523C93.1812 88.4272 93.8831 90.2159 94.9285 91.8036C95.4393 92.6119 95.9923 93.3927 96.5852 94.1429C97.2333 94.8491 97.8412 95.5949 98.5175 96.2778C99.2162 96.9378 99.8797 97.6399 100.61 98.2688L102.83 100.127C102.835 100.13 102.838 100.135 102.841 100.139C102.844 100.144 102.846 100.149 102.847 100.155C102.848 100.16 102.847 100.166 102.846 100.171C102.845 100.176 102.842 100.181 102.839 100.186C102.832 100.194 102.822 100.2 102.811 100.202C102.8 100.203 102.789 100.201 102.78 100.194L100.474 98.4289C99.7135 97.8293 99.0158 97.153 98.2815 96.517C97.5633 95.8634 96.9351 95.1155 96.2603 94.4144C95.637 93.6632 95.0541 92.8794 94.5138 92.0665C93.3899 90.4389 92.6188 88.5943 92.2497 86.651C92.1516 86.1644 92.1409 85.6617 92.0889 85.1663C92.0832 84.6653 92.1116 84.1645 92.1739 83.6673C92.2842 82.6465 92.6069 81.66 93.1213 80.7713L93.5384 81.3543C90.7098 82.2287 87.9591 83.3375 85.3147 84.6691C84.0105 85.3211 82.7915 86.1313 81.6855 87.0816C81.1356 87.4589 80.6996 87.98 80.4253 88.5879C80.151 89.1959 80.0488 89.8675 80.1299 90.5295L80.0936 90.4409C80.9115 91.7362 82.0279 92.8165 83.3494 93.5914C84.0117 93.9874 84.716 94.3084 85.4494 94.5484C86.25 94.8187 87.0009 95.2185 87.6722 95.7318C88.9657 96.74 90.1086 97.9277 91.0662 99.2591C92.0401 100.554 92.9184 101.918 93.6942 103.341L93.1371 103.484C93.1579 102.682 93.3569 101.894 93.7197 101.179C93.8989 100.808 94.1512 100.478 94.4615 100.207C94.7717 99.9368 95.1336 99.732 95.5251 99.6051C97.153 99.1347 98.6629 99.8726 100.056 100.323C102.903 101.329 105.716 102.42 108.509 103.559L110.604 104.416L111.126 104.635C111.23 104.668 111.327 104.72 111.41 104.791C111.493 104.861 111.562 104.947 111.611 105.044C111.785 105.391 111.924 105.754 112.025 106.129C112.444 107.592 112.705 109.08 112.985 110.563C113.531 113.533 113.979 116.518 114.4 119.506L114.707 121.748C114.739 122.078 114.839 122.399 115 122.689C115.161 122.979 115.379 123.234 115.642 123.436C116.164 123.845 116.826 124.031 117.484 123.953C118.142 123.875 118.742 123.54 119.154 123.021C119.519 122.433 119.741 121.769 119.804 121.08C119.879 120.359 119.853 119.631 119.727 118.916L119.195 114.424C118.84 111.428 118.557 108.424 118.302 105.417C118.172 103.914 118.067 102.408 118.008 100.899C117.972 100.145 117.958 99.3892 117.947 98.634C117.911 97.8716 117.984 97.108 118.166 96.3667C118.17 96.3565 118.177 96.348 118.186 96.343C118.196 96.3381 118.207 96.3371 118.217 96.3403C118.228 96.3435 118.236 96.3506 118.241 96.3601C118.246 96.3696 118.247 96.3807 118.244 96.391L118.24 96.4068Z" fill="black"/>
<path d="M122.013 86.692C122.603 87.5267 123.124 88.4085 123.569 89.3284C123.792 89.791 123.954 90.2838 124.149 90.7635C124.31 91.2609 124.428 91.7709 124.502 92.2881C124.688 93.3481 124.601 94.4381 124.248 95.4549C123.852 96.4965 123.099 97.3635 122.123 97.9014C122.085 97.9218 122.043 97.9346 122.001 97.9389C121.958 97.9433 121.914 97.9391 121.873 97.9267C121.832 97.9142 121.793 97.8938 121.76 97.8665C121.726 97.8392 121.699 97.8056 121.678 97.7675C121.658 97.7308 121.646 97.6905 121.641 97.6489L121.64 97.6374C121.504 96.1763 121.193 94.7367 120.713 93.35C120.473 92.6653 120.094 92.0376 119.6 91.506C119.359 91.2653 119.048 91.1062 118.712 91.051C118.547 91.0716 118.388 91.1249 118.245 91.2078C118.101 91.2907 117.975 91.4015 117.875 91.5337C117.041 92.7363 116.438 94.0833 116.096 95.5061C115.672 96.9156 115.316 98.3571 115.006 99.7901L115.012 99.6531L115.392 102.268C115.408 102.38 115.38 102.494 115.313 102.586C115.247 102.679 115.147 102.741 115.036 102.761C114.924 102.781 114.809 102.757 114.714 102.694C114.62 102.631 114.554 102.533 114.53 102.422L114.529 102.412C114.297 101.182 114.163 99.9351 114.128 98.6837C114.061 97.4428 114.092 96.2045 114.149 94.9706C114.254 92.5053 114.51 90.0488 114.916 87.615C114.917 87.604 114.924 87.5941 114.933 87.5876C114.942 87.5811 114.953 87.5785 114.964 87.5803C114.974 87.5822 114.983 87.5876 114.99 87.5956C114.996 87.6035 114.999 87.6136 114.999 87.6238C114.919 90.0832 114.879 92.5367 114.879 94.9843C114.846 97.4116 115.016 99.8373 115.386 102.236L114.523 102.381L114.219 99.7567L114.217 99.7432C114.213 99.7018 114.215 99.6598 114.225 99.6193C114.574 98.1597 115.009 96.7222 115.528 95.3141C116.004 93.8734 116.723 92.5249 117.654 91.3267C117.784 91.1671 117.946 91.0358 118.129 90.9409C118.312 90.846 118.512 90.7895 118.717 90.775C119.118 90.8399 119.488 91.0305 119.773 91.3192C120.315 91.8611 120.738 92.5094 121.016 93.2232C121.617 94.6097 122.053 96.0624 122.314 97.551L121.831 97.2871C122.617 96.7913 123.221 96.0548 123.555 95.1874C123.894 94.289 123.999 93.3188 123.859 92.3686C123.834 91.8828 123.682 91.4073 123.609 90.9201C123.457 90.4495 123.34 89.9643 123.158 89.4994C122.957 89.0424 122.802 88.5628 122.59 88.1064L121.941 86.7356C121.939 86.7307 121.937 86.7254 121.936 86.7199C121.936 86.7144 121.936 86.7088 121.938 86.7035C121.94 86.6983 121.942 86.6933 121.946 86.6891C121.949 86.6848 121.954 86.6813 121.958 86.6787C121.968 86.6742 121.978 86.6731 121.988 86.6755C121.998 86.678 122.007 86.6838 122.013 86.692V86.692Z" fill="black"/>
<path d="M115.939 106.702C116.265 106.691 116.574 106.554 116.8 106.319C117.027 106.084 117.154 105.771 117.154 105.444C117.154 105.118 117.027 104.804 116.8 104.57C116.574 104.335 116.265 104.198 115.939 104.186C115.612 104.198 115.303 104.335 115.077 104.57C114.85 104.804 114.723 105.118 114.723 105.444C114.723 105.771 114.85 106.084 115.077 106.319C115.303 106.554 115.612 106.691 115.939 106.702V106.702Z" fill="black"/>
<path d="M116.844 113.647C117.17 113.635 117.479 113.498 117.706 113.263C117.933 113.028 118.059 112.715 118.059 112.389C118.059 112.062 117.933 111.749 117.706 111.514C117.479 111.279 117.17 111.142 116.844 111.131C116.518 111.142 116.209 111.279 115.983 111.514C115.756 111.749 115.629 112.062 115.629 112.389C115.629 112.715 115.756 113.028 115.983 113.263C116.209 113.498 116.518 113.635 116.844 113.647Z" fill="black"/>
<path d="M117.599 120.289C117.925 120.278 118.234 120.14 118.461 119.906C118.688 119.671 118.814 119.357 118.814 119.031C118.814 118.705 118.688 118.391 118.461 118.156C118.234 117.922 117.925 117.784 117.599 117.773C117.273 117.784 116.964 117.922 116.737 118.156C116.511 118.391 116.384 118.705 116.384 119.031C116.384 119.357 116.511 119.671 116.737 119.906C116.964 120.14 117.273 120.278 117.599 120.289V120.289Z" fill="black"/>
<path d="M125.622 84.332C130.651 84.4572 135.673 84.7908 140.682 85.3059C143.189 85.5486 145.685 85.9 148.174 86.3236C150.707 86.6766 153.184 87.3508 155.547 88.3301C155.856 88.4837 156.146 88.6734 156.411 88.8954C156.655 89.1161 156.886 89.3509 157.102 89.5986C157.518 90.0483 157.971 90.4785 158.421 90.9219C159.351 91.8039 160.19 92.777 160.926 93.8266C162.334 95.9619 163.38 98.315 164.021 100.791C165.284 105.676 166.068 110.673 166.36 115.71C165.75 110.73 164.762 105.805 163.403 100.976C162.716 98.594 161.67 96.3305 160.301 94.2638C159.582 93.2617 158.765 92.3343 157.861 91.4956C157.412 91.0613 156.948 90.6299 156.505 90.1619C156.139 89.7065 155.68 89.3349 155.158 89.0721C152.878 88.1113 150.487 87.4398 148.04 87.0734C145.58 86.6168 143.093 86.2854 140.608 85.9437C135.63 85.2972 130.628 84.8023 125.622 84.332Z" fill="black"/>
<path d="M56.6108 94.972C58.9287 94.4814 61.3433 94.7605 63.4881 95.7669C65.6387 96.7993 67.4755 98.3857 68.8097 100.363C69.4763 101.336 70.057 102.364 70.5453 103.437C71.0076 104.513 71.4121 105.612 71.757 106.731C72.0094 107.871 72.3212 108.996 72.5205 110.139C72.6519 111.296 72.8106 112.445 72.9147 113.596C72.6221 112.471 72.384 111.344 72.1185 110.224C71.84 109.11 71.4627 108.022 71.1423 106.925C70.7133 105.868 70.3343 104.788 69.8539 103.76C69.3616 102.741 68.783 101.766 68.1246 100.845C66.8893 98.9554 65.1978 97.4074 63.2064 96.3438C61.1793 95.2792 58.8943 94.8039 56.6108 94.972V94.972Z" fill="black"/>
<path d="M86.4004 148.015C86.9786 149.555 87.5877 151.077 88.2961 152.556C88.9662 154.051 89.7017 155.514 90.4812 156.95C92.0236 159.828 93.7864 162.582 95.754 165.187C97.6935 167.808 99.8995 170.22 102.337 172.386L104.198 173.974C104.835 174.482 105.524 174.922 106.183 175.404L107.177 176.127C107.521 176.347 107.88 176.542 108.232 176.752L110.353 178.006C107.31 176.709 104.469 174.982 101.918 172.876C99.3746 170.749 97.0825 168.339 95.0857 165.692C93.1164 163.033 91.3846 160.207 89.9104 157.245C88.4332 154.294 87.2573 151.202 86.4004 148.015V148.015Z" fill="black"/>
<path d="M33.9998 162.236C33.9633 167.252 33.8527 172.265 33.7709 177.28C33.7031 182.294 33.5334 187.305 33.4189 192.319L33.4156 192.361L33.4085 192.407C33.1022 194.411 33.3579 196.46 34.1473 198.326C34.985 200.13 36.4885 201.539 38.3425 202.259C38.819 202.413 39.2855 202.593 39.7671 202.733L41.2612 203.022C42.2954 203.174 43.363 203.286 44.418 203.402C46.5349 203.627 48.6561 203.827 50.7816 204.003C59.2793 204.717 67.8045 205.083 76.3251 205.274C84.8421 205.47 93.3635 205.188 101.849 204.43C110.28 203.616 118.845 202.324 126.505 198.656C126.58 198.62 126.665 198.613 126.745 198.636C126.825 198.659 126.893 198.711 126.937 198.781C127.541 199.722 128.377 200.491 129.365 201.012C130.373 201.545 131.487 201.847 132.626 201.898C133.78 201.942 134.935 201.82 136.055 201.536C136.611 201.373 137.168 201.203 137.721 201.02L139.338 200.349L137.757 201.11C137.213 201.324 136.661 201.527 136.107 201.723C134.976 202.077 133.798 202.256 132.613 202.253C131.396 202.27 130.193 201.991 129.107 201.442C128.022 200.892 127.085 200.089 126.377 199.099L126.808 199.224C122.98 201.219 118.906 202.7 114.691 203.63C110.502 204.592 106.262 205.312 101.99 205.789C93.457 206.66 84.8795 207.027 76.3027 206.886C67.7324 206.832 59.1779 206.288 50.6477 205.527C48.5147 205.334 46.3835 205.114 44.2541 204.869C43.1866 204.743 42.1289 204.624 41.0515 204.457L39.4019 204.122C38.8606 203.962 38.3273 203.756 37.7916 203.572C35.6301 202.685 33.9016 200.987 32.9756 198.842C32.1328 196.731 31.9023 194.424 32.3106 192.188L32.3002 192.276C32.5656 187.269 32.7761 182.259 33.0886 177.254C33.3865 172.248 33.6562 167.24 33.9998 162.236Z" fill="black"/>
<path d="M65.0676 168.125C65.2071 170.882 65.2858 173.639 65.3815 176.396L65.1925 176.108C74.8926 179.586 85.0759 181.529 95.375 181.867C100.495 182.022 105.616 181.621 110.65 180.67L114.397 179.859C115.635 179.545 116.836 179.101 118.058 178.728L119.89 178.155C120.487 177.929 121.067 177.658 121.657 177.412L125.189 175.899L124.89 176.352C125.028 175.514 125.357 174.72 125.85 174.03C126.309 173.36 126.88 172.776 127.539 172.303C128.826 171.39 130.305 170.786 131.862 170.536C132.619 170.404 133.382 170.312 134.148 170.259C134.912 170.259 135.675 170.193 136.434 170.249C137.192 170.312 137.953 170.311 138.703 170.427L140.948 170.76L138.687 170.634C137.936 170.596 137.182 170.631 136.433 170.625C135.683 170.62 134.94 170.738 134.197 170.787C133.462 170.888 132.733 171.028 132.012 171.205C130.598 171.541 129.269 172.167 128.109 173.042C127.006 173.87 126.256 175.083 126.009 176.44L126.004 176.478C125.992 176.566 125.958 176.649 125.907 176.722C125.856 176.794 125.788 176.853 125.709 176.894C121.069 179.358 116.105 181.157 110.963 182.237C105.82 183.278 100.571 183.704 95.3272 183.508C90.1017 183.317 84.9052 182.641 79.8047 181.488C77.2644 180.894 74.7444 180.222 72.2636 179.426C69.7687 178.665 67.3238 177.75 64.943 176.684L64.9284 176.678C64.8747 176.653 64.8294 176.614 64.7983 176.563C64.7672 176.513 64.7516 176.455 64.7536 176.396C64.8497 173.639 64.9282 170.882 65.0676 168.125Z" fill="black"/>
<path d="M40.7097 182.748C42.0242 180.937 43.7006 179.418 45.6327 178.289C47.5663 177.144 49.6596 176.293 51.8438 175.765C52.9424 175.542 54.0537 175.387 55.1712 175.3C56.284 175.191 57.4038 175.173 58.5195 175.246C59.6352 175.271 60.7345 175.496 61.8363 175.615C62.9231 175.848 64.002 176.113 65.0677 176.396C63.9609 176.298 62.8762 176.116 61.7828 176.022C60.6849 175.988 59.596 175.837 58.5032 175.891C56.3267 175.881 54.1558 176.112 52.0305 176.581C49.9127 177.063 47.8684 177.825 45.9517 178.847C44.0076 179.859 42.2379 181.176 40.7097 182.748Z" fill="black"/>
<path d="M125.449 176.396C125.783 177.126 126.179 177.827 126.632 178.49C127.06 179.139 127.61 179.698 128.252 180.136C128.411 180.231 128.577 180.312 128.749 180.378C128.983 180.466 129.195 180.605 129.369 180.784C129.524 180.986 129.626 181.223 129.666 181.474C129.707 181.725 129.685 181.982 129.601 182.222C129.327 183.042 128.881 183.794 128.293 184.428L128.289 184.433L128.265 184.456C127.638 185.047 127.167 185.782 126.891 186.597C126.763 186.982 126.723 187.39 126.774 187.792C126.825 188.194 126.965 188.579 127.184 188.92C127.59 189.581 128.483 190.226 128.825 191.241C128.931 191.503 128.979 191.785 128.964 192.068C128.95 192.35 128.874 192.626 128.742 192.876C128.454 193.338 128.022 193.692 127.512 193.883L127.624 193.806C126.964 194.504 126.459 195.333 126.143 196.24C125.989 196.692 125.942 197.174 126.005 197.648C126.111 198.126 126.335 198.57 126.657 198.94C126.263 198.612 125.969 198.181 125.809 197.694C125.682 197.187 125.673 196.658 125.785 196.147C125.891 195.64 126.075 195.152 126.329 194.7C126.571 194.242 126.857 193.808 127.184 193.406C127.203 193.382 127.228 193.362 127.256 193.348L127.296 193.328C127.651 193.163 127.944 192.89 128.133 192.548C128.208 192.382 128.247 192.202 128.247 192.02C128.248 191.839 128.21 191.659 128.136 191.493C127.863 190.709 127.126 190.223 126.513 189.351C126.217 188.916 126.023 188.419 125.947 187.898C125.888 187.376 125.944 186.848 126.112 186.351C126.449 185.406 127.018 184.56 127.766 183.891L127.738 183.918C128.257 183.371 128.667 182.731 128.948 182.031C129.013 181.895 129.044 181.745 129.037 181.594C129.03 181.443 128.986 181.296 128.909 181.167C128.806 181.051 128.68 180.958 128.54 180.894C128.341 180.801 128.151 180.693 127.971 180.568C127.299 180.06 126.752 179.404 126.374 178.651C125.983 177.936 125.672 177.18 125.449 176.396V176.396Z" fill="black"/>
<path d="M140.445 177.243C140.42 177.755 140.394 178.258 140.369 178.761C139.354 178.753 138.331 178.711 137.316 178.602C136.122 178.505 134.938 178.306 133.777 178.006C134.938 177.707 136.122 177.508 137.316 177.411C138.356 177.302 139.405 177.26 140.445 177.243Z" fill="black"/>
<path d="M140.176 182.888C140.143 183.399 140.126 183.902 140.101 184.397C139.17 184.38 138.247 184.338 137.316 184.238C136.122 184.141 134.938 183.942 133.777 183.642C134.938 183.343 136.122 183.144 137.316 183.047C138.272 182.946 139.22 182.904 140.176 182.888Z" fill="black"/>
<path d="M139.925 188.322C139.908 188.834 139.883 189.337 139.866 189.832C139.019 189.807 138.164 189.765 137.316 189.673C136.122 189.576 134.938 189.376 133.777 189.077C134.938 188.778 136.122 188.578 137.316 188.481C138.188 188.389 139.061 188.347 139.925 188.322Z" fill="black"/>
<path d="M137.316 194.973C138.105 194.889 138.893 194.847 139.673 194.822C139.648 195.334 139.631 195.828 139.614 196.306C138.851 196.29 138.08 196.248 137.316 196.164C136.122 196.067 134.938 195.868 133.777 195.568C134.938 195.269 136.122 195.07 137.316 194.973V194.973Z" fill="black"/>
<path d="M111.465 207.456C111.465 207.456 96.355 192.522 90.7137 202.206C85.0724 211.891 88.9505 218.995 93.1419 223.789C98.2482 229.629 98.5048 231.378 100.02 233.107C101.535 234.837 118.638 255.747 139.955 254.572C152.389 253.887 152.178 247.26 149.842 241.857C148.145 238.03 145.417 234.75 141.964 232.383C135.155 227.624 119.938 216.602 111.465 207.456Z" fill="black"/>
<path d="M106.311 203.189C109.561 203.342 112.801 203.561 116.042 203.772L125.759 204.431C128.995 204.688 132.234 204.876 135.472 205.048C137.091 205.148 138.711 205.207 140.33 205.233C141.138 205.232 141.953 205.29 142.758 205.232L143.971 205.174L145.172 204.985C141.975 205.634 138.708 205.871 135.451 205.693C132.195 205.654 128.948 205.459 125.702 205.267C122.46 205.013 119.22 204.759 115.987 204.412C112.755 204.066 109.526 203.686 106.311 203.189Z" fill="black"/>
<path d="M138.649 230.455C138.557 230.455 138.467 230.425 138.394 230.369C138.321 230.313 138.268 230.235 138.244 230.146C138.22 230.057 138.225 229.963 138.26 229.878C138.294 229.793 138.355 229.721 138.435 229.674C139.091 229.288 154.577 220.194 160.373 222.085C160.478 222.12 160.565 222.195 160.615 222.294C160.664 222.393 160.673 222.508 160.638 222.614C160.604 222.719 160.529 222.806 160.43 222.856C160.331 222.907 160.216 222.916 160.111 222.882C154.678 221.102 139.019 230.303 138.861 230.397C138.797 230.435 138.723 230.455 138.649 230.455V230.455Z" fill="black"/>
<path d="M231.24 168.798L231.248 168.798L231.278 168.803L267.808 182.341L267.84 182.355C271.472 184.053 274.927 186.105 278.155 188.482C281.416 190.862 284.288 193.733 286.67 196.993C287.896 198.636 288.859 200.461 289.524 202.4C290.166 204.311 290.669 206.266 291.028 208.249C291.842 212.281 291.561 216.457 290.213 220.343C289.457 222.277 288.347 224.053 286.939 225.579C285.52 227.081 283.864 228.34 282.036 229.304C280.22 230.262 278.285 230.973 276.28 231.418C275.284 231.628 274.275 231.778 273.26 231.866L270.296 232.189C262.391 233.035 254.488 233.894 246.576 234.664C230.753 236.212 214.925 237.73 199.063 238.897C195.098 239.192 191.131 239.469 187.158 239.696C183.178 239.896 179.228 240.173 175.182 239.995C173.104 239.824 171.129 239.02 169.522 237.692C167.944 236.419 166.557 234.926 165.401 233.259C163.12 229.957 161.283 226.369 159.938 222.587C159.92 222.537 159.915 222.484 159.923 222.431C159.93 222.378 159.951 222.329 159.984 222.286C160.016 222.244 160.058 222.211 160.107 222.189C160.155 222.168 160.209 222.159 160.262 222.163L160.272 222.164C161.971 222.383 163.691 222.377 165.388 222.148C166.185 221.995 167.031 221.675 167.262 220.998C167.405 220.214 167.25 219.405 166.828 218.729C165.994 217.223 165.018 215.8 163.914 214.48C162.834 213.122 161.715 211.788 160.606 210.445C159.497 209.102 158.395 207.75 157.328 206.369C156.316 204.981 155.093 203.76 153.704 202.75C153.053 202.232 152.289 201.874 151.473 201.707C150.657 201.54 149.814 201.569 149.012 201.79C147.451 202.42 146.177 203.603 145.435 205.114L145.426 205.13C145.399 205.18 145.358 205.221 145.307 205.248C145.257 205.275 145.2 205.286 145.143 205.281C145.086 205.275 145.032 205.253 144.988 205.217C144.944 205.181 144.911 205.133 144.894 205.078C144.346 203.389 144.06 201.626 144.045 199.85C144.04 198.945 144.183 198.045 144.468 197.186C144.763 196.292 145.324 195.511 146.075 194.944L146.032 194.981C146.719 194.379 147.509 193.905 148.362 193.58C149.174 193.241 150.003 192.945 150.846 192.693C152.52 192.181 154.215 191.765 155.916 191.388C159.319 190.641 162.746 190.045 166.18 189.5C173.05 188.422 179.948 187.569 186.852 186.794C200.663 185.246 214.5 184.015 228.363 182.995L227.76 183.568C228.634 178.047 229.767 172.719 230.837 167.309L234.168 151.156L240.863 118.855L241.173 119.699C240.424 119.284 239.613 118.991 238.771 118.833C237.855 118.624 236.915 118.451 235.963 118.312C234.064 118.024 232.134 117.828 230.204 117.656C226.339 117.316 222.452 117.115 218.564 116.939C210.785 116.594 202.991 116.434 195.196 116.342C179.606 116.161 164.003 116.298 148.412 116.514L148.976 116.266C148.456 116.918 148.054 117.655 147.789 118.446C147.47 119.285 147.202 120.163 146.961 121.052C146.482 122.833 146.107 124.66 145.769 126.493C145.101 130.164 144.593 133.877 144.145 137.597C143.258 145.04 142.614 152.52 142.058 160.006C141.509 167.495 141.049 174.99 140.677 182.492C140.263 189.983 139.988 197.496 139.707 204.996L139.706 205.004C139.703 205.1 139.661 205.191 139.591 205.257C139.521 205.323 139.427 205.358 139.331 205.356L107.366 204.525C107.344 204.525 107.323 204.515 107.308 204.499C107.292 204.483 107.284 204.462 107.284 204.44C107.285 204.418 107.294 204.397 107.31 204.381C107.326 204.366 107.347 204.357 107.369 204.358L139.344 204.617L138.969 204.977C139.159 197.459 139.376 189.955 139.715 182.44C140.018 174.938 140.407 167.433 140.883 159.925C141.368 152.422 141.941 144.923 142.76 137.438C143.175 133.695 143.65 129.956 144.291 126.23C144.617 124.367 144.979 122.506 145.458 120.654C145.699 119.729 145.97 118.805 146.309 117.886C146.636 116.889 147.147 115.962 147.814 115.153C147.881 115.078 147.962 115.017 148.053 114.975C148.144 114.932 148.243 114.909 148.344 114.906L148.379 114.905C156.186 114.704 163.989 114.632 171.795 114.574C179.6 114.525 187.407 114.534 195.215 114.6C203.022 114.68 210.831 114.827 218.642 115.161C222.548 115.336 226.453 115.567 230.36 115.923C232.313 116.106 234.266 116.312 236.223 116.617C237.201 116.764 238.18 116.947 239.165 117.177C240.243 117.382 241.273 117.784 242.206 118.362C242.332 118.447 242.43 118.567 242.488 118.708C242.545 118.849 242.559 119.004 242.528 119.153L242.516 119.207L235.687 151.471L232.256 167.6C231.142 172.964 229.945 178.387 229.049 183.717L229.044 183.751C229.019 183.895 228.947 184.027 228.839 184.124C228.731 184.222 228.593 184.28 228.447 184.29C214.601 185.182 200.756 186.285 186.951 187.706C180.05 188.436 173.157 189.243 166.299 190.274C162.872 190.795 159.452 191.368 156.068 192.089C154.377 192.452 152.694 192.854 151.045 193.347C150.223 193.587 149.414 193.87 148.621 194.194C147.847 194.482 147.129 194.902 146.498 195.434L146.486 195.445L146.455 195.471C145.806 195.957 145.321 196.63 145.065 197.399C144.798 198.192 144.662 199.023 144.662 199.859C144.668 201.567 144.934 203.263 145.45 204.891L144.909 204.855C145.726 203.211 147.127 201.931 148.838 201.265C149.721 201.023 150.648 200.992 151.544 201.176C152.441 201.359 153.281 201.752 153.997 202.322C155.42 203.374 156.68 204.632 157.735 206.053C158.803 207.422 159.908 208.764 161.023 210.099C162.137 211.436 163.263 212.765 164.356 214.127C165.493 215.474 166.498 216.927 167.357 218.466C167.864 219.283 168.033 220.264 167.83 221.203C167.644 221.683 167.287 222.076 166.827 222.307C166.412 222.519 165.967 222.669 165.508 222.753C163.752 223.003 161.971 223.02 160.211 222.803L160.545 222.38C161.877 226.094 163.713 229.608 166.002 232.823C167.133 234.414 168.485 235.836 170.018 237.046C171.507 238.256 173.334 238.977 175.249 239.111C179.147 239.236 183.144 238.916 187.093 238.667C191.053 238.395 195.012 238.072 198.969 237.73C214.796 236.327 230.615 234.81 246.427 233.18L270.145 230.774C272.108 230.535 274.141 230.443 275.983 230.054C277.866 229.645 279.686 228.986 281.395 228.095C284.842 226.366 287.542 223.441 288.989 219.866C290.268 216.203 290.543 212.264 289.786 208.459C289.451 206.529 288.98 204.624 288.379 202.759C287.77 200.927 286.881 199.201 285.743 197.642C283.46 194.448 280.698 191.626 277.552 189.277C274.401 186.903 271.024 184.845 267.469 183.135L267.501 183.148L231.218 168.96L231.248 168.966L231.239 168.966C231.217 168.966 231.196 168.957 231.18 168.941C231.164 168.925 231.156 168.904 231.156 168.882C231.156 168.86 231.164 168.838 231.18 168.822C231.196 168.807 231.217 168.798 231.239 168.798L231.24 168.798Z" fill="black"/>
<path d="M148.395 115.71C142.256 122.654 139.338 204.987 139.338 204.987H145.175C145.175 204.987 142.734 197.757 146.265 195.208C152.681 188.599 228.405 183.642 228.405 183.642C228.572 182.191 229.705 176.421 231.248 168.882C235.156 149.684 241.689 119.031 241.689 119.031C235.047 113.898 148.395 115.71 148.395 115.71ZM191.268 153.45C183.93 153.45 177.984 151.689 177.984 149.525C177.984 147.361 183.93 145.6 191.268 145.6C198.607 145.6 204.553 147.361 204.553 149.525C204.553 151.689 198.607 153.45 191.268 153.45V153.45Z" fill="black"/>
<path d="M63.7784 205.681C62.8062 211.464 62.2969 217.315 62.2554 223.178C62.1639 229.023 62.7234 234.86 63.9234 240.582C65.2065 246.226 67.4316 251.803 71.3439 256.031C73.3404 258.103 75.656 259.842 78.2027 261.182L80.1044 262.24C80.7424 262.586 81.4124 262.879 82.065 263.202C83.374 263.841 84.6873 264.471 86.0408 265.025C91.3996 267.347 96.9076 269.352 102.467 271.197C108.022 273.057 113.63 274.763 119.257 276.411C130.505 279.746 141.861 282.651 153.248 285.557C156.164 286.332 158.895 287.684 161.281 289.53C163.666 291.377 165.659 293.683 167.14 296.311C167.871 297.62 168.477 298.996 168.949 300.419C169.38 301.845 169.706 303.3 169.923 304.774L171.367 313.462C173.354 325.034 175.277 336.618 177.343 348.177L189.753 417.528L189.171 417.026C197.834 417.151 206.519 417.036 215.166 416.573C219.488 416.343 223.806 416.018 228.079 415.456C230.204 415.183 232.314 414.801 234.4 414.312C235.422 414.071 236.427 413.765 237.41 413.395C238.318 413.08 239.154 412.587 239.87 411.946L239.657 412.53C239.04 397.679 238.301 382.825 237.531 367.978C236.752 353.129 235.789 338.293 234.816 323.458C233.798 308.627 232.632 293.804 231.028 279.028C230.224 271.641 229.281 264.269 228.098 256.938C227.496 253.275 226.828 249.619 225.931 246.02C225.498 244.219 224.957 242.446 224.31 240.709C223.988 239.845 223.592 239.01 223.126 238.214C222.931 237.807 222.657 237.442 222.32 237.141C221.984 236.839 221.591 236.607 221.164 236.458L221.158 236.457C221.136 236.452 221.117 236.44 221.105 236.421C221.092 236.403 221.088 236.38 221.092 236.359C221.096 236.337 221.109 236.318 221.127 236.305C221.146 236.293 221.168 236.288 221.19 236.292C221.647 236.436 222.071 236.668 222.437 236.977C222.803 237.286 223.103 237.665 223.321 238.092C223.813 238.89 224.235 239.729 224.583 240.6C225.274 242.335 225.859 244.109 226.336 245.914C227.32 249.511 228.071 253.163 228.758 256.822C230.114 264.147 231.089 271.53 232.001 278.915C233.786 293.693 235.133 308.515 236.33 323.346C237.552 338.176 238.429 353.03 239.27 367.883C240.111 382.737 240.79 397.6 241.306 412.47L241.307 412.496C241.311 412.599 241.294 412.701 241.257 412.797C241.22 412.892 241.165 412.98 241.093 413.054C240.207 413.886 239.153 414.521 238.003 414.917C236.951 415.307 235.875 415.63 234.782 415.882C232.637 416.374 230.469 416.755 228.285 417.023C223.942 417.571 219.591 417.875 215.241 418.083C206.537 418.454 197.842 418.464 189.139 418.239C188.999 418.236 188.864 418.184 188.758 418.092C188.652 418 188.581 417.875 188.557 417.737L176.796 348.272C174.834 336.695 172.729 325.143 170.687 313.58L169.111 304.915C168.879 303.487 168.543 302.078 168.103 300.699C167.63 299.342 167.029 298.032 166.308 296.787C164.862 294.306 162.935 292.139 160.64 290.414C158.345 288.688 155.728 287.438 152.943 286.738C141.523 284.059 130.128 281.114 118.838 277.845C113.187 276.225 107.583 274.434 102.01 272.548C96.4375 270.663 90.9111 268.615 85.5089 266.237C84.1474 265.671 82.8179 265.024 81.4924 264.367C80.8312 264.036 80.1567 263.735 79.5065 263.378L77.5668 262.284C74.917 260.868 72.5205 259.022 70.4746 256.822C66.4268 252.312 64.2466 246.537 63.02 240.78C61.8684 234.984 61.4135 229.071 61.665 223.167C61.8476 217.285 62.4993 211.427 63.614 205.648C63.6182 205.626 63.631 205.607 63.6495 205.594C63.6679 205.582 63.6905 205.577 63.7124 205.582C63.734 205.587 63.7529 205.6 63.7651 205.618C63.7774 205.637 63.7821 205.659 63.7784 205.681V205.681Z" fill="black"/>
<path d="M202.741 428.351C202.741 428.351 195.495 427.596 195.495 431.068C195.495 434.54 196.099 459.902 199.118 460.656C202.137 461.411 290.601 491.905 314.151 467.148C314.151 467.148 330.455 458.09 299.658 447.523C268.862 436.955 249.539 426.388 249.539 426.388C249.539 426.388 220.253 427.294 219.649 430.313C219.045 433.332 223.574 444.202 223.574 444.202C223.574 444.202 204.251 448.731 202.741 428.351Z" fill="black"/>
<path d="M202.742 428.771C202.707 428.771 202.672 428.766 202.638 428.758C202.53 428.73 202.438 428.66 202.381 428.565C202.324 428.469 202.308 428.354 202.336 428.247C202.734 426.502 202.785 424.696 202.485 422.931C202.184 421.167 201.539 419.479 200.586 417.964C200.555 417.919 200.532 417.868 200.521 417.814C200.509 417.761 200.508 417.705 200.517 417.651C200.527 417.597 200.547 417.545 200.577 417.498C200.606 417.452 200.645 417.412 200.69 417.38C200.735 417.349 200.786 417.326 200.84 417.315C200.893 417.303 200.949 417.302 201.003 417.311C201.057 417.321 201.109 417.341 201.156 417.371C201.202 417.4 201.242 417.439 201.274 417.484C202.308 419.093 203.007 420.894 203.329 422.779C203.651 424.664 203.589 426.595 203.148 428.456C203.125 428.546 203.072 428.626 202.999 428.683C202.925 428.74 202.835 428.771 202.742 428.771Z" fill="black"/>
<path d="M245.916 426.808L245.902 426.806C236.775 426.502 227.852 416.981 227.477 416.576C227.439 416.536 227.41 416.489 227.391 416.437C227.372 416.385 227.363 416.331 227.365 416.275C227.367 416.22 227.38 416.166 227.403 416.116C227.426 416.066 227.458 416.021 227.499 415.984C227.539 415.946 227.586 415.917 227.638 415.898C227.69 415.879 227.744 415.87 227.8 415.872C227.855 415.874 227.909 415.887 227.959 415.91C228.009 415.933 228.054 415.965 228.091 416.006C228.181 416.103 237.155 425.676 245.931 425.969C246.04 425.973 246.144 426.02 246.22 426.1C246.296 426.179 246.337 426.285 246.335 426.395C246.334 426.505 246.289 426.61 246.21 426.687C246.132 426.764 246.026 426.808 245.916 426.808V426.808Z" fill="black"/>
<path d="M35.4107 201.225C35.3495 201.213 35.2888 201.213 35.2282 201.201L35.155 201.128C35.2422 201.155 35.3276 201.187 35.4107 201.225V201.225Z" fill="white"/>
<path d="M61.931 229.974V230.047C61.9679 229.828 62.0042 229.621 62.041 229.402C62.0042 229.597 61.9679 229.779 61.931 229.974Z" fill="white"/>
<path d="M229.396 261.926V261.95C229.347 261.962 229.31 261.974 229.262 261.986C229.31 261.962 229.347 261.95 229.396 261.926Z" fill="white"/>
<path d="M23.2231 270.893L24.6569 296.111L25.9649 321.332C26.4111 329.739 27.0018 338.141 27.1475 346.559C27.212 350.768 27.2762 354.977 27.2319 359.191L27.162 365.511C27.0886 367.619 27.0622 369.726 26.9468 371.836C26.9451 371.868 26.9316 371.897 26.9092 371.919C26.8867 371.942 26.8568 371.954 26.8253 371.956C26.7938 371.957 26.763 371.946 26.739 371.926C26.7149 371.905 26.6994 371.877 26.6953 371.846C26.4248 369.75 26.2434 367.651 26.0148 365.553L25.4794 359.255C25.1248 355.057 24.8789 350.854 24.6331 346.652C24.158 338.246 24.128 329.824 23.9535 321.407L23.3997 296.157L22.9716 270.903C22.9711 270.87 22.9835 270.838 23.0061 270.814C23.0288 270.79 23.0599 270.776 23.0928 270.775C23.1257 270.774 23.1577 270.786 23.1821 270.808C23.2064 270.83 23.2211 270.861 23.2231 270.893V270.893Z" fill="black"/>
<path d="M91.7595 318.601L92.4641 344.281L93.0429 369.963C93.2459 378.523 93.5935 387.082 93.4957 395.645C93.4386 399.927 93.3812 404.208 93.2153 408.49L92.9626 414.914C92.8282 417.055 92.7412 419.197 92.5649 421.338C92.5623 421.37 92.548 421.399 92.5248 421.421C92.5017 421.442 92.4714 421.454 92.4399 421.454C92.4084 421.455 92.3779 421.443 92.3544 421.422C92.3309 421.401 92.3162 421.372 92.3131 421.34C92.1035 419.202 91.9825 417.062 91.8145 414.923L91.4614 408.504C91.2283 404.225 91.1041 399.945 90.9798 395.665C90.7479 387.105 90.9614 378.541 91.03 369.979L91.2063 344.291L91.5081 318.603C91.5085 318.57 91.5218 318.538 91.5451 318.515C91.5684 318.492 91.5999 318.479 91.6329 318.479C91.6658 318.478 91.6975 318.491 91.7211 318.514C91.7448 318.537 91.7586 318.568 91.7596 318.601L91.7595 318.601Z" fill="black"/>
<path d="M26.821 371.983C32.7128 371.983 37.489 371.082 37.489 369.971C37.489 368.859 32.7128 367.958 26.821 367.958C20.9293 367.958 16.1531 368.859 16.1531 369.971C16.1531 371.082 20.9293 371.983 26.821 371.983Z" fill="black"/>
<path d="M92.0363 421.75C97.9281 421.75 102.704 420.849 102.704 419.737C102.704 418.626 97.9281 417.724 92.0363 417.724C86.1446 417.724 81.3684 418.626 81.3684 419.737C81.3684 420.849 86.1446 421.75 92.0363 421.75Z" fill="black"/>
<path d="M162.983 301.991L163.921 313.773L164.733 325.559C164.988 329.489 165.46 333.41 165.42 337.35C165.449 341.308 165.216 345.264 164.724 349.192C164.72 349.222 164.706 349.249 164.683 349.269C164.661 349.289 164.632 349.301 164.602 349.302C164.572 349.303 164.543 349.294 164.519 349.275C164.495 349.257 164.479 349.231 164.473 349.201C163.692 345.321 163.169 341.393 162.906 337.443C162.576 333.516 162.758 329.571 162.722 325.634L162.664 313.819L162.732 302.001C162.732 301.968 162.744 301.937 162.767 301.914C162.79 301.89 162.82 301.877 162.853 301.876C162.885 301.874 162.917 301.886 162.941 301.907C162.965 301.929 162.98 301.959 162.983 301.991Z" fill="black"/>
<path d="M256.712 275.011L257.414 300.392L257.99 325.773C258.192 334.234 258.539 342.693 258.441 351.156C258.383 355.388 258.326 359.619 258.159 363.852L257.906 370.2C257.771 372.317 257.684 374.433 257.508 376.55C257.505 376.581 257.491 376.61 257.468 376.632C257.445 376.653 257.414 376.665 257.383 376.666C257.351 376.666 257.321 376.654 257.297 376.633C257.274 376.612 257.259 376.583 257.256 376.552C257.046 374.438 256.926 372.323 256.758 370.209L256.405 363.865C256.173 359.636 256.049 355.406 255.925 351.176C255.694 342.716 255.908 334.252 255.977 325.789L256.156 300.401L256.46 275.013C256.461 274.98 256.474 274.948 256.497 274.925C256.52 274.902 256.552 274.889 256.585 274.888C256.618 274.888 256.65 274.901 256.673 274.924C256.697 274.947 256.711 274.978 256.712 275.011V275.011Z" fill="black"/>
<path d="M164.598 349.339C170.49 349.339 175.266 348.438 175.266 347.326C175.266 346.215 170.49 345.314 164.598 345.314C158.707 345.314 153.93 346.215 153.93 347.326C153.93 348.438 158.707 349.339 164.598 349.339Z" fill="black"/>
<path d="M256.979 376.961C262.871 376.961 267.647 376.06 267.647 374.949C267.647 373.837 262.871 372.936 256.979 372.936C251.087 372.936 246.311 373.837 246.311 374.949C246.311 376.06 251.087 376.961 256.979 376.961Z" fill="black"/>
<path d="M145.172 205.404H139.338C139.227 205.403 139.121 205.359 139.042 205.28C138.964 205.202 138.92 205.095 138.92 204.984C138.92 204.873 138.964 204.767 139.042 204.688C139.121 204.61 139.227 204.565 139.338 204.564H145.172C145.283 204.565 145.389 204.61 145.467 204.688C145.546 204.767 145.59 204.873 145.59 204.984C145.59 205.095 145.546 205.202 145.467 205.28C145.389 205.359 145.283 205.403 145.172 205.404V205.404Z" fill="black"/>
</mask>
<g mask="url(#mask0_35_1560)">
<rect x="-7.58789" y="3.64606" width="312.939" height="255.709" fill="black"/>
</g>
<path d="M165.271 54.8563C166.489 50.4642 171.592 50.7723 172.672 48.3418C173.253 47.037 172.761 45.8684 171.431 45.2768C170.305 44.7762 169.159 44.9409 167.928 45.4353L166.709 42.5949C168.711 41.6771 170.994 41.4359 173.22 42.4257C176.315 43.8023 177.861 46.3898 176.394 49.6901C174.778 53.3231 169.792 52.546 168.571 56.324L165.271 54.8563ZM163.907 62.4013C162.552 61.7983 162.046 60.317 162.672 58.9099C163.297 57.5027 164.725 56.9117 166.081 57.5147C167.411 58.1063 167.979 59.5848 167.353 60.9919C166.728 62.399 165.238 62.9929 163.907 62.4013Z" fill="#FE5312"/>
<path d="M157.361 25.6305C156.865 20.6678 162.281 18.914 162.425 16.2939C162.503 14.8561 161.552 14.0988 160.242 14.0269C158.931 13.955 157.968 14.5751 156.923 15.5113L153.95 12.4638C155.818 10.5473 158.32 9.33854 161.195 9.49635C165.189 9.71554 168.153 11.769 167.909 16.2104C167.666 20.6517 162.13 21.6619 162.314 25.9023L157.361 25.6305ZM159.324 34.8399C157.343 34.7312 156.023 33.0884 156.131 31.1073C156.24 29.1263 157.73 27.6698 159.711 27.7785C161.66 27.8855 163.014 29.4981 162.905 31.4791C162.796 33.4601 161.273 34.9468 159.324 34.8399Z" fill="#FE5312"/>
</svg>
