<svg width="20" height="20" viewBox="0 0 20 20" fill="none" xmlns="http://www.w3.org/2000/svg">
<path fill-rule="evenodd" clip-rule="evenodd" d="M5 9.74962C5 9.3354 5.33579 8.99962 5.75 8.99962H13.75C14.1642 8.99962 14.5 9.3354 14.5 9.74962C14.5 10.1638 14.1642 10.4996 13.75 10.4996H5.75C5.33579 10.4996 5 10.1638 5 9.74962Z" fill="black"/>
<path fill-rule="evenodd" clip-rule="evenodd" d="M9.75 4.99962C10.1642 4.99962 10.5 5.3354 10.5 5.74962L10.5 13.7496C10.5 14.1638 10.1642 14.4996 9.75 14.4996C9.33579 14.4996 9 14.1638 9 13.7496L9 5.74962C9 5.3354 9.33579 4.99962 9.75 4.99962Z" fill="black"/>
<path fill-rule="evenodd" clip-rule="evenodd" d="M9.75 1.5C5.19365 1.5 1.5 5.19365 1.5 9.75C1.5 14.3063 5.19365 18 9.75 18C14.3063 18 18 14.3063 18 9.75C18 5.19365 14.3063 1.5 9.75 1.5ZM0 9.75C0 4.36522 4.36522 0 9.75 0C15.1348 0 19.5 4.36522 19.5 9.75C19.5 15.1348 15.1348 19.5 9.75 19.5C4.36522 19.5 0 15.1348 0 9.75Z" fill="black"/>
</svg>
